G04 #@! TF.GenerationSoftware,KiCad,Pcbnew,(5.1.10)-1*
G04 #@! TF.CreationDate,2021-05-29T20:37:25-07:00*
G04 #@! TF.ProjectId,snowstake,736e6f77-7374-4616-9b65-2e6b69636164,0.1*
G04 #@! TF.SameCoordinates,Original*
G04 #@! TF.FileFunction,Legend,Bot*
G04 #@! TF.FilePolarity,Positive*
%FSLAX46Y46*%
G04 Gerber Fmt 4.6, Leading zero omitted, Abs format (unit mm)*
G04 Created by KiCad (PCBNEW (5.1.10)-1) date 2021-05-29 20:37:25*
%MOMM*%
%LPD*%
G01*
G04 APERTURE LIST*
%ADD10C,0.120000*%
%ADD11C,0.150000*%
G04 APERTURE END LIST*
D10*
X190078000Y-123276000D02*
X190078000Y-127676000D01*
X194478000Y-123276000D02*
X190078000Y-123276000D01*
X194478000Y-127676000D02*
X194478000Y-123276000D01*
X190078000Y-127676000D02*
X194478000Y-127676000D01*
X181652744Y-130091256D02*
X185463256Y-132291256D01*
X183852744Y-126280744D02*
X181652744Y-130091256D01*
X187663256Y-128480744D02*
X183852744Y-126280744D01*
X185463256Y-132291256D02*
X187663256Y-128480744D01*
X190078000Y-116926000D02*
X190078000Y-121326000D01*
X194478000Y-116926000D02*
X190078000Y-116926000D01*
X194478000Y-121326000D02*
X194478000Y-116926000D01*
X190078000Y-121326000D02*
X194478000Y-121326000D01*
X197760000Y-121571936D02*
X197760000Y-122776064D01*
X195940000Y-121571936D02*
X195940000Y-122776064D01*
D11*
X193539904Y-128738380D02*
X192968476Y-128738380D01*
X193254190Y-129738380D02*
X193254190Y-128738380D01*
X192635142Y-129738380D02*
X192635142Y-128738380D01*
X192254190Y-128738380D01*
X192158952Y-128786000D01*
X192111333Y-128833619D01*
X192063714Y-128928857D01*
X192063714Y-129071714D01*
X192111333Y-129166952D01*
X192158952Y-129214571D01*
X192254190Y-129262190D01*
X192635142Y-129262190D01*
X191730380Y-128738380D02*
X191111333Y-128738380D01*
X191444666Y-129119333D01*
X191301809Y-129119333D01*
X191206571Y-129166952D01*
X191158952Y-129214571D01*
X191111333Y-129309809D01*
X191111333Y-129547904D01*
X191158952Y-129643142D01*
X191206571Y-129690761D01*
X191301809Y-129738380D01*
X191587523Y-129738380D01*
X191682761Y-129690761D01*
X191730380Y-129643142D01*
X188114257Y-129824348D02*
X187828543Y-130319220D01*
X188837425Y-130571784D02*
X187971400Y-130071784D01*
X188527901Y-131107895D02*
X187661876Y-130607895D01*
X187471400Y-130937810D01*
X187465020Y-131044098D01*
X187482450Y-131109147D01*
X187541119Y-131198005D01*
X187664837Y-131269434D01*
X187771125Y-131275813D01*
X187836174Y-131258383D01*
X187925032Y-131199714D01*
X188115508Y-130869800D01*
X187268164Y-131480300D02*
X187203115Y-131497730D01*
X187114257Y-131556399D01*
X186995209Y-131762596D01*
X186988830Y-131868884D01*
X187006259Y-131933933D01*
X187064928Y-132022791D01*
X187147407Y-132070410D01*
X187294934Y-132100599D01*
X188075520Y-131891442D01*
X187765997Y-132427553D01*
X197857904Y-117562380D02*
X197286476Y-117562380D01*
X197572190Y-118562380D02*
X197572190Y-117562380D01*
X196953142Y-118562380D02*
X196953142Y-117562380D01*
X196572190Y-117562380D01*
X196476952Y-117610000D01*
X196429333Y-117657619D01*
X196381714Y-117752857D01*
X196381714Y-117895714D01*
X196429333Y-117990952D01*
X196476952Y-118038571D01*
X196572190Y-118086190D01*
X196953142Y-118086190D01*
X195429333Y-118562380D02*
X196000761Y-118562380D01*
X195715047Y-118562380D02*
X195715047Y-117562380D01*
X195810285Y-117705238D01*
X195905523Y-117800476D01*
X196000761Y-117848095D01*
X199239142Y-122007333D02*
X199286761Y-121959714D01*
X199334380Y-121816857D01*
X199334380Y-121721619D01*
X199286761Y-121578761D01*
X199191523Y-121483523D01*
X199096285Y-121435904D01*
X198905809Y-121388285D01*
X198762952Y-121388285D01*
X198572476Y-121435904D01*
X198477238Y-121483523D01*
X198382000Y-121578761D01*
X198334380Y-121721619D01*
X198334380Y-121816857D01*
X198382000Y-121959714D01*
X198429619Y-122007333D01*
X198334380Y-122340666D02*
X198334380Y-122959714D01*
X198715333Y-122626380D01*
X198715333Y-122769238D01*
X198762952Y-122864476D01*
X198810571Y-122912095D01*
X198905809Y-122959714D01*
X199143904Y-122959714D01*
X199239142Y-122912095D01*
X199286761Y-122864476D01*
X199334380Y-122769238D01*
X199334380Y-122483523D01*
X199286761Y-122388285D01*
X199239142Y-122340666D01*
M02*
