G04 #@! TF.GenerationSoftware,KiCad,Pcbnew,(5.1.10)-1*
G04 #@! TF.CreationDate,2021-05-30T11:34:14-07:00*
G04 #@! TF.ProjectId,snowstake,736e6f77-7374-4616-9b65-2e6b69636164,0.1*
G04 #@! TF.SameCoordinates,Original*
G04 #@! TF.FileFunction,Copper,L2,Bot*
G04 #@! TF.FilePolarity,Positive*
%FSLAX46Y46*%
G04 Gerber Fmt 4.6, Leading zero omitted, Abs format (unit mm)*
G04 Created by KiCad (PCBNEW (5.1.10)-1) date 2021-05-30 11:34:14*
%MOMM*%
%LPD*%
G01*
G04 APERTURE LIST*
G04 #@! TA.AperFunction,SMDPad,CuDef*
%ADD10C,0.100000*%
G04 #@! TD*
G04 #@! TA.AperFunction,SMDPad,CuDef*
%ADD11R,4.000000X4.000000*%
G04 #@! TD*
G04 #@! TA.AperFunction,ComponentPad*
%ADD12C,1.900000*%
G04 #@! TD*
G04 #@! TA.AperFunction,ComponentPad*
%ADD13R,1.900000X1.900000*%
G04 #@! TD*
G04 #@! TA.AperFunction,ViaPad*
%ADD14C,1.200000*%
G04 #@! TD*
G04 #@! TA.AperFunction,ViaPad*
%ADD15C,0.800000*%
G04 #@! TD*
G04 #@! TA.AperFunction,Conductor*
%ADD16C,0.250000*%
G04 #@! TD*
G04 #@! TA.AperFunction,Conductor*
%ADD17C,1.500000*%
G04 #@! TD*
G04 #@! TA.AperFunction,Conductor*
%ADD18C,0.500000*%
G04 #@! TD*
G04 #@! TA.AperFunction,Conductor*
%ADD19C,0.254000*%
G04 #@! TD*
G04 #@! TA.AperFunction,Conductor*
%ADD20C,0.100000*%
G04 #@! TD*
G04 APERTURE END LIST*
G04 #@! TA.AperFunction,SMDPad,CuDef*
D10*
G36*
X220755949Y-131002051D02*
G01*
X218755949Y-127537949D01*
X222220051Y-125537949D01*
X224220051Y-129002051D01*
X220755949Y-131002051D01*
G37*
G04 #@! TD.AperFunction*
D11*
X214757000Y-123571000D03*
X214757000Y-117856000D03*
D12*
X194307460Y-137910280D03*
X194307460Y-140450280D03*
X194307460Y-142990280D03*
X194307460Y-145530280D03*
X194307460Y-148070280D03*
X194307460Y-150610280D03*
X194307460Y-153150280D03*
X194307460Y-155690280D03*
X194307460Y-158230280D03*
X194307460Y-160770280D03*
X194307460Y-163310280D03*
X194307460Y-165850280D03*
X212087460Y-137910280D03*
X212087460Y-140450280D03*
X212087460Y-142990280D03*
X212087460Y-145530280D03*
X212087460Y-148070280D03*
X212087460Y-150610280D03*
X212087460Y-153150280D03*
X212087460Y-155690280D03*
X212087460Y-158230280D03*
X212087460Y-160770280D03*
X212087460Y-163310280D03*
D13*
X212087460Y-165850280D03*
D14*
X215174500Y-128052500D03*
X203200000Y-193040000D03*
X203200000Y-110490000D03*
X165735000Y-130810000D03*
X240665000Y-130810000D03*
X240665000Y-173990000D03*
X165735000Y-173990000D03*
X221488000Y-133223000D03*
D15*
X217805000Y-138430000D03*
X212725000Y-134366000D03*
X217932000Y-135509000D03*
D16*
X211821740Y-166116000D02*
X212087460Y-165850280D01*
D17*
X215174500Y-128052500D02*
X212126500Y-128052500D01*
X212126500Y-128052500D02*
X210312000Y-126238000D01*
X210312000Y-126238000D02*
X210312000Y-119126000D01*
X211582000Y-117856000D02*
X214757000Y-117856000D01*
X210312000Y-119126000D02*
X211582000Y-117856000D01*
D18*
X217551000Y-129540000D02*
X217551000Y-129540000D01*
X217551000Y-132461000D02*
X217551000Y-126365000D01*
X219202000Y-134112000D02*
X217551000Y-132461000D01*
X219202000Y-137033000D02*
X219202000Y-134112000D01*
X217551000Y-126365000D02*
X214757000Y-123571000D01*
X217805000Y-138430000D02*
X219202000Y-137033000D01*
X212725000Y-134366000D02*
X213868000Y-135509000D01*
X213868000Y-135509000D02*
X217932000Y-135509000D01*
X217932000Y-135509000D02*
X217932000Y-135509000D01*
D19*
X179006471Y-121623892D02*
X187583056Y-126579253D01*
X187591551Y-126586225D01*
X187639239Y-126611714D01*
X187657887Y-126622489D01*
X187667846Y-126627005D01*
X187706208Y-126647510D01*
X187726911Y-126653790D01*
X187746622Y-126662729D01*
X187788989Y-126672622D01*
X187830618Y-126685250D01*
X187852156Y-126687371D01*
X187873225Y-126692291D01*
X187893783Y-126692971D01*
X195004360Y-130771906D01*
X195088422Y-130836084D01*
X195147813Y-130913205D01*
X195185159Y-131003100D01*
X195199000Y-131107952D01*
X195199000Y-136599724D01*
X195058239Y-136505671D01*
X194769787Y-136386191D01*
X194463569Y-136325280D01*
X194151351Y-136325280D01*
X193845133Y-136386191D01*
X193556681Y-136505671D01*
X193297081Y-136679130D01*
X193076310Y-136899901D01*
X192902851Y-137159501D01*
X192783371Y-137447953D01*
X192722460Y-137754171D01*
X192722460Y-138066389D01*
X192783371Y-138372607D01*
X192902851Y-138661059D01*
X193076310Y-138920659D01*
X193297081Y-139141430D01*
X193355224Y-139180280D01*
X193297081Y-139219130D01*
X193076310Y-139439901D01*
X192902851Y-139699501D01*
X192783371Y-139987953D01*
X192722460Y-140294171D01*
X192722460Y-140606389D01*
X192783371Y-140912607D01*
X192902851Y-141201059D01*
X193076310Y-141460659D01*
X193297081Y-141681430D01*
X193355224Y-141720280D01*
X193297081Y-141759130D01*
X193076310Y-141979901D01*
X192902851Y-142239501D01*
X192783371Y-142527953D01*
X192722460Y-142834171D01*
X192722460Y-143146389D01*
X192783371Y-143452607D01*
X192902851Y-143741059D01*
X193076310Y-144000659D01*
X193297081Y-144221430D01*
X193355224Y-144260280D01*
X193297081Y-144299130D01*
X193076310Y-144519901D01*
X192902851Y-144779501D01*
X192783371Y-145067953D01*
X192722460Y-145374171D01*
X192722460Y-145686389D01*
X192783371Y-145992607D01*
X192902851Y-146281059D01*
X193076310Y-146540659D01*
X193297081Y-146761430D01*
X193355224Y-146800280D01*
X193297081Y-146839130D01*
X193076310Y-147059901D01*
X192902851Y-147319501D01*
X192783371Y-147607953D01*
X192722460Y-147914171D01*
X192722460Y-148226389D01*
X192783371Y-148532607D01*
X192902851Y-148821059D01*
X193076310Y-149080659D01*
X193297081Y-149301430D01*
X193355224Y-149340280D01*
X193297081Y-149379130D01*
X193076310Y-149599901D01*
X192902851Y-149859501D01*
X192783371Y-150147953D01*
X192722460Y-150454171D01*
X192722460Y-150766389D01*
X192783371Y-151072607D01*
X192902851Y-151361059D01*
X193076310Y-151620659D01*
X193297081Y-151841430D01*
X193355224Y-151880280D01*
X193297081Y-151919130D01*
X193076310Y-152139901D01*
X192902851Y-152399501D01*
X192783371Y-152687953D01*
X192722460Y-152994171D01*
X192722460Y-153306389D01*
X192783371Y-153612607D01*
X192902851Y-153901059D01*
X193076310Y-154160659D01*
X193297081Y-154381430D01*
X193355224Y-154420280D01*
X193297081Y-154459130D01*
X193076310Y-154679901D01*
X192902851Y-154939501D01*
X192783371Y-155227953D01*
X192722460Y-155534171D01*
X192722460Y-155846389D01*
X192783371Y-156152607D01*
X192902851Y-156441059D01*
X193076310Y-156700659D01*
X193297081Y-156921430D01*
X193429136Y-157009667D01*
X193387313Y-157130528D01*
X194307460Y-158050675D01*
X195227607Y-157130528D01*
X195185784Y-157009667D01*
X195317839Y-156921430D01*
X195538610Y-156700659D01*
X195712069Y-156441059D01*
X195831549Y-156152607D01*
X195892460Y-155846389D01*
X195892460Y-155534171D01*
X195831549Y-155227953D01*
X195712069Y-154939501D01*
X195538610Y-154679901D01*
X195317839Y-154459130D01*
X195259696Y-154420280D01*
X195317839Y-154381430D01*
X195538610Y-154160659D01*
X195712069Y-153901059D01*
X195831549Y-153612607D01*
X195892460Y-153306389D01*
X195892460Y-152994171D01*
X195831549Y-152687953D01*
X195712069Y-152399501D01*
X195538610Y-152139901D01*
X195317839Y-151919130D01*
X195259696Y-151880280D01*
X195317839Y-151841430D01*
X195538610Y-151620659D01*
X195712069Y-151361059D01*
X195831549Y-151072607D01*
X195892460Y-150766389D01*
X195892460Y-150454171D01*
X195831549Y-150147953D01*
X195712069Y-149859501D01*
X195538610Y-149599901D01*
X195317839Y-149379130D01*
X195259696Y-149340280D01*
X195317839Y-149301430D01*
X195538610Y-149080659D01*
X195712069Y-148821059D01*
X195831549Y-148532607D01*
X195892460Y-148226389D01*
X195892460Y-147914171D01*
X195831549Y-147607953D01*
X195712069Y-147319501D01*
X195538610Y-147059901D01*
X195317839Y-146839130D01*
X195259696Y-146800280D01*
X195317839Y-146761430D01*
X195538610Y-146540659D01*
X195712069Y-146281059D01*
X195831549Y-145992607D01*
X195892460Y-145686389D01*
X195892460Y-145374171D01*
X195831549Y-145067953D01*
X195712069Y-144779501D01*
X195538610Y-144519901D01*
X195317839Y-144299130D01*
X195259696Y-144260280D01*
X195317839Y-144221430D01*
X195538610Y-144000659D01*
X195712069Y-143741059D01*
X195758403Y-143629197D01*
X195809423Y-143635914D01*
X195826000Y-143637000D01*
X210577052Y-143637000D01*
X210593564Y-143635922D01*
X210636946Y-143630233D01*
X210682851Y-143741059D01*
X210856310Y-144000659D01*
X211077081Y-144221430D01*
X211135224Y-144260280D01*
X211077081Y-144299130D01*
X210856310Y-144519901D01*
X210682851Y-144779501D01*
X210563371Y-145067953D01*
X210502460Y-145374171D01*
X210502460Y-145686389D01*
X210563371Y-145992607D01*
X210682851Y-146281059D01*
X210856310Y-146540659D01*
X211077081Y-146761430D01*
X211135224Y-146800280D01*
X211077081Y-146839130D01*
X210856310Y-147059901D01*
X210682851Y-147319501D01*
X210563371Y-147607953D01*
X210502460Y-147914171D01*
X210502460Y-148226389D01*
X210563371Y-148532607D01*
X210682851Y-148821059D01*
X210856310Y-149080659D01*
X211077081Y-149301430D01*
X211135224Y-149340280D01*
X211077081Y-149379130D01*
X210856310Y-149599901D01*
X210682851Y-149859501D01*
X210563371Y-150147953D01*
X210502460Y-150454171D01*
X210502460Y-150766389D01*
X210563371Y-151072607D01*
X210682851Y-151361059D01*
X210856310Y-151620659D01*
X211077081Y-151841430D01*
X211135224Y-151880280D01*
X211077081Y-151919130D01*
X210856310Y-152139901D01*
X210682851Y-152399501D01*
X210563371Y-152687953D01*
X210502460Y-152994171D01*
X210502460Y-153306389D01*
X210563371Y-153612607D01*
X210682851Y-153901059D01*
X210856310Y-154160659D01*
X211077081Y-154381430D01*
X211135224Y-154420280D01*
X211077081Y-154459130D01*
X210856310Y-154679901D01*
X210682851Y-154939501D01*
X210563371Y-155227953D01*
X210502460Y-155534171D01*
X210502460Y-155846389D01*
X210563371Y-156152607D01*
X210682851Y-156441059D01*
X210856310Y-156700659D01*
X211077081Y-156921430D01*
X211135224Y-156960280D01*
X211077081Y-156999130D01*
X210856310Y-157219901D01*
X210682851Y-157479501D01*
X210563371Y-157767953D01*
X210502460Y-158074171D01*
X210502460Y-158386389D01*
X210563371Y-158692607D01*
X210682851Y-158981059D01*
X210856310Y-159240659D01*
X211077081Y-159461430D01*
X211135224Y-159500280D01*
X211077081Y-159539130D01*
X210856310Y-159759901D01*
X210682851Y-160019501D01*
X210563371Y-160307953D01*
X210502460Y-160614171D01*
X210502460Y-160926389D01*
X210563371Y-161232607D01*
X210682851Y-161521059D01*
X210856310Y-161780659D01*
X211077081Y-162001430D01*
X211209136Y-162089667D01*
X211167313Y-162210528D01*
X212087460Y-163130675D01*
X213007607Y-162210528D01*
X212965784Y-162089667D01*
X213097839Y-162001430D01*
X213318610Y-161780659D01*
X213492069Y-161521059D01*
X213611549Y-161232607D01*
X213672460Y-160926389D01*
X213672460Y-160614171D01*
X213611549Y-160307953D01*
X213492069Y-160019501D01*
X213318610Y-159759901D01*
X213097839Y-159539130D01*
X213039696Y-159500280D01*
X213097839Y-159461430D01*
X213318610Y-159240659D01*
X213492069Y-158981059D01*
X213611549Y-158692607D01*
X213672460Y-158386389D01*
X213672460Y-158074171D01*
X213611549Y-157767953D01*
X213492069Y-157479501D01*
X213318610Y-157219901D01*
X213097839Y-156999130D01*
X213039696Y-156960280D01*
X213097839Y-156921430D01*
X213318610Y-156700659D01*
X213492069Y-156441059D01*
X213611549Y-156152607D01*
X213672460Y-155846389D01*
X213672460Y-155534171D01*
X213611549Y-155227953D01*
X213492069Y-154939501D01*
X213318610Y-154679901D01*
X213097839Y-154459130D01*
X213039696Y-154420280D01*
X213097839Y-154381430D01*
X213318610Y-154160659D01*
X213492069Y-153901059D01*
X213611549Y-153612607D01*
X213672460Y-153306389D01*
X213672460Y-152994171D01*
X213611549Y-152687953D01*
X213492069Y-152399501D01*
X213318610Y-152139901D01*
X213097839Y-151919130D01*
X213039696Y-151880280D01*
X213097839Y-151841430D01*
X213318610Y-151620659D01*
X213492069Y-151361059D01*
X213611549Y-151072607D01*
X213672460Y-150766389D01*
X213672460Y-150454171D01*
X213611549Y-150147953D01*
X213492069Y-149859501D01*
X213318610Y-149599901D01*
X213097839Y-149379130D01*
X213039696Y-149340280D01*
X213097839Y-149301430D01*
X213318610Y-149080659D01*
X213492069Y-148821059D01*
X213611549Y-148532607D01*
X213672460Y-148226389D01*
X213672460Y-147914171D01*
X213611549Y-147607953D01*
X213492069Y-147319501D01*
X213318610Y-147059901D01*
X213097839Y-146839130D01*
X213039696Y-146800280D01*
X213097839Y-146761430D01*
X213318610Y-146540659D01*
X213492069Y-146281059D01*
X213611549Y-145992607D01*
X213672460Y-145686389D01*
X213672460Y-145374171D01*
X213611549Y-145067953D01*
X213492069Y-144779501D01*
X213318610Y-144519901D01*
X213097839Y-144299130D01*
X213039696Y-144260280D01*
X213097839Y-144221430D01*
X213318610Y-144000659D01*
X213492069Y-143741059D01*
X213611549Y-143452607D01*
X213672460Y-143146389D01*
X213672460Y-142834171D01*
X213611549Y-142527953D01*
X213492069Y-142239501D01*
X213318610Y-141979901D01*
X213097839Y-141759130D01*
X213039696Y-141720280D01*
X213097839Y-141681430D01*
X213318610Y-141460659D01*
X213492069Y-141201059D01*
X213611549Y-140912607D01*
X213672460Y-140606389D01*
X213672460Y-140294171D01*
X213611549Y-139987953D01*
X213492069Y-139699501D01*
X213318610Y-139439901D01*
X213097839Y-139219130D01*
X213039696Y-139180280D01*
X213097839Y-139141430D01*
X213318610Y-138920659D01*
X213492069Y-138661059D01*
X213611549Y-138372607D01*
X213672460Y-138066389D01*
X213672460Y-137754171D01*
X213611549Y-137447953D01*
X213492069Y-137159501D01*
X213318610Y-136899901D01*
X213097839Y-136679130D01*
X212838239Y-136505671D01*
X212549787Y-136386191D01*
X212243569Y-136325280D01*
X211931351Y-136325280D01*
X211625133Y-136386191D01*
X211336681Y-136505671D01*
X211243505Y-136567929D01*
X211275402Y-131358166D01*
X211289529Y-131254699D01*
X211326500Y-131165982D01*
X211384973Y-131089699D01*
X211467618Y-131025868D01*
X214190534Y-129437500D01*
X215242537Y-129437500D01*
X215446007Y-129417460D01*
X215707081Y-129338264D01*
X215947688Y-129209657D01*
X216158581Y-129036581D01*
X216331657Y-128825688D01*
X216460264Y-128585081D01*
X216539460Y-128324007D01*
X216566201Y-128052500D01*
X216566126Y-128051738D01*
X216666001Y-127993478D01*
X216666000Y-129496518D01*
X216661718Y-129540000D01*
X216666000Y-129583481D01*
X216666000Y-132417531D01*
X216661719Y-132461000D01*
X216666000Y-132504469D01*
X216666000Y-132504476D01*
X216678805Y-132634489D01*
X216729411Y-132801312D01*
X216811589Y-132955058D01*
X216922183Y-133089817D01*
X216955956Y-133117534D01*
X218317001Y-134478580D01*
X218317001Y-134548197D01*
X218233898Y-134513774D01*
X218033939Y-134474000D01*
X217830061Y-134474000D01*
X217630102Y-134513774D01*
X217441744Y-134591795D01*
X217393546Y-134624000D01*
X214234579Y-134624000D01*
X213731535Y-134120957D01*
X213720226Y-134064102D01*
X213642205Y-133875744D01*
X213528937Y-133706226D01*
X213384774Y-133562063D01*
X213215256Y-133448795D01*
X213026898Y-133370774D01*
X212826939Y-133331000D01*
X212623061Y-133331000D01*
X212423102Y-133370774D01*
X212234744Y-133448795D01*
X212065226Y-133562063D01*
X211921063Y-133706226D01*
X211807795Y-133875744D01*
X211729774Y-134064102D01*
X211690000Y-134264061D01*
X211690000Y-134467939D01*
X211729774Y-134667898D01*
X211807795Y-134856256D01*
X211921063Y-135025774D01*
X212065226Y-135169937D01*
X212234744Y-135283205D01*
X212423102Y-135361226D01*
X212479957Y-135372535D01*
X213211470Y-136104049D01*
X213239183Y-136137817D01*
X213272951Y-136165530D01*
X213272953Y-136165532D01*
X213328858Y-136211412D01*
X213373941Y-136248411D01*
X213527687Y-136330589D01*
X213694510Y-136381195D01*
X213824523Y-136394000D01*
X213824533Y-136394000D01*
X213867999Y-136398281D01*
X213911465Y-136394000D01*
X217393546Y-136394000D01*
X217441744Y-136426205D01*
X217630102Y-136504226D01*
X217830061Y-136544000D01*
X218033939Y-136544000D01*
X218233898Y-136504226D01*
X218317000Y-136469804D01*
X218317000Y-136666421D01*
X217559957Y-137423465D01*
X217503102Y-137434774D01*
X217314744Y-137512795D01*
X217145226Y-137626063D01*
X217001063Y-137770226D01*
X216887795Y-137939744D01*
X216809774Y-138128102D01*
X216770000Y-138328061D01*
X216770000Y-138531939D01*
X216809774Y-138731898D01*
X216887795Y-138920256D01*
X217001063Y-139089774D01*
X217145226Y-139233937D01*
X217314744Y-139347205D01*
X217503102Y-139425226D01*
X217703061Y-139465000D01*
X217906939Y-139465000D01*
X218106898Y-139425226D01*
X218295256Y-139347205D01*
X218464774Y-139233937D01*
X218608937Y-139089774D01*
X218722205Y-138920256D01*
X218800226Y-138731898D01*
X218811535Y-138675043D01*
X219797050Y-137689529D01*
X219830817Y-137661817D01*
X219941411Y-137527059D01*
X220023589Y-137373313D01*
X220074195Y-137206490D01*
X220087000Y-137076477D01*
X220087000Y-137076467D01*
X220091281Y-137033001D01*
X220087000Y-136989535D01*
X220087000Y-134155469D01*
X220091281Y-134112000D01*
X220087000Y-134068531D01*
X220087000Y-134068523D01*
X220074195Y-133938510D01*
X220023589Y-133771687D01*
X220023589Y-133771686D01*
X219941411Y-133617941D01*
X219858532Y-133516953D01*
X219858530Y-133516951D01*
X219830817Y-133483183D01*
X219797049Y-133455470D01*
X218436000Y-132094422D01*
X218436000Y-129834967D01*
X219348898Y-129834967D01*
X220203363Y-131321087D01*
X220276221Y-131422761D01*
X220367515Y-131508268D01*
X220473738Y-131574320D01*
X220590804Y-131618381D01*
X220714217Y-131638756D01*
X220839234Y-131634665D01*
X220961051Y-131606261D01*
X221074985Y-131554637D01*
X222558033Y-130694852D01*
X222616140Y-130477995D01*
X221441515Y-128443485D01*
X219407005Y-129618110D01*
X219348898Y-129834967D01*
X218436000Y-129834967D01*
X218436000Y-129583477D01*
X218440282Y-129540000D01*
X218436000Y-129496523D01*
X218436000Y-128258262D01*
X219063148Y-129340033D01*
X219280005Y-129398140D01*
X221153486Y-128316485D01*
X221661485Y-128316485D01*
X222836110Y-130350995D01*
X223052967Y-130409102D01*
X224539087Y-129554637D01*
X224640761Y-129481779D01*
X224726268Y-129390485D01*
X224792320Y-129284262D01*
X224836381Y-129167196D01*
X224856756Y-129043783D01*
X224852665Y-128918766D01*
X224824261Y-128796949D01*
X224772637Y-128683015D01*
X223912852Y-127199967D01*
X223695995Y-127141860D01*
X221661485Y-128316485D01*
X221153486Y-128316485D01*
X221314515Y-128223515D01*
X220139890Y-126189005D01*
X219923033Y-126130898D01*
X218436913Y-126985363D01*
X218436000Y-126986017D01*
X218436000Y-126960978D01*
X219977096Y-126062005D01*
X220359860Y-126062005D01*
X221534485Y-128096515D01*
X223568995Y-126921890D01*
X223627102Y-126705033D01*
X222772637Y-125218913D01*
X222699779Y-125117239D01*
X222608485Y-125031732D01*
X222502262Y-124965680D01*
X222385196Y-124921619D01*
X222261783Y-124901244D01*
X222136766Y-124905335D01*
X222014949Y-124933739D01*
X221901015Y-124985363D01*
X220417967Y-125845148D01*
X220359860Y-126062005D01*
X219977096Y-126062005D01*
X222137032Y-124802042D01*
X225899000Y-124802042D01*
X225899000Y-125133958D01*
X225963754Y-125459496D01*
X226090772Y-125766147D01*
X226275175Y-126042125D01*
X226509875Y-126276825D01*
X226785853Y-126461228D01*
X227092504Y-126588246D01*
X227418042Y-126653000D01*
X227749958Y-126653000D01*
X228075496Y-126588246D01*
X228382147Y-126461228D01*
X228658125Y-126276825D01*
X228892825Y-126042125D01*
X229077228Y-125766147D01*
X229204246Y-125459496D01*
X229269000Y-125133958D01*
X229269000Y-124802042D01*
X229204246Y-124476504D01*
X229077228Y-124169853D01*
X228892825Y-123893875D01*
X228658125Y-123659175D01*
X228382147Y-123474772D01*
X228075496Y-123347754D01*
X227749958Y-123283000D01*
X227418042Y-123283000D01*
X227092504Y-123347754D01*
X226785853Y-123474772D01*
X226509875Y-123659175D01*
X226275175Y-123893875D01*
X226090772Y-124169853D01*
X225963754Y-124476504D01*
X225899000Y-124802042D01*
X222137032Y-124802042D01*
X227417995Y-121721481D01*
X227514885Y-121680784D01*
X227610713Y-121667589D01*
X227706701Y-121679554D01*
X227804113Y-121719008D01*
X233833652Y-125133325D01*
X242164000Y-129970749D01*
X242164001Y-146629870D01*
X242163146Y-146631914D01*
X242103393Y-146709031D01*
X242018916Y-146773051D01*
X233031167Y-151882837D01*
X233015354Y-151893472D01*
X232897807Y-151986055D01*
X232879853Y-152003303D01*
X232871805Y-152013774D01*
X232786916Y-152136992D01*
X232774869Y-152158780D01*
X232770280Y-152171163D01*
X232725651Y-152313981D01*
X232720590Y-152338358D01*
X232719870Y-152351545D01*
X232719498Y-152501174D01*
X232721877Y-152525957D01*
X232725092Y-152538766D01*
X232769010Y-152681805D01*
X232778615Y-152704774D01*
X232785476Y-152716059D01*
X232869751Y-152839698D01*
X232885722Y-152858796D01*
X232895615Y-152867546D01*
X233012700Y-152960712D01*
X233028459Y-152971425D01*
X241819157Y-158027215D01*
X241902532Y-158090874D01*
X241961601Y-158167242D01*
X241999024Y-158256246D01*
X242013422Y-158360155D01*
X242135934Y-174654232D01*
X242122585Y-174760311D01*
X242085118Y-174851309D01*
X242025100Y-174929287D01*
X241997929Y-174949918D01*
X240902181Y-175583625D01*
X227751232Y-183056272D01*
X227654442Y-183095722D01*
X227559019Y-183107968D01*
X227463649Y-183095329D01*
X227367026Y-183055482D01*
X218712726Y-178090646D01*
X218695682Y-178082489D01*
X218557462Y-178028572D01*
X218533493Y-178021842D01*
X218520712Y-178020238D01*
X218372755Y-178009253D01*
X218347866Y-178009852D01*
X218335175Y-178012069D01*
X218190508Y-178044986D01*
X218166891Y-178052863D01*
X218155411Y-178058706D01*
X218026773Y-178132624D01*
X218006506Y-178147084D01*
X217997245Y-178156039D01*
X217895960Y-178264452D01*
X217880829Y-178284223D01*
X217874604Y-178295502D01*
X217809592Y-178428864D01*
X217800929Y-178452204D01*
X217798288Y-178464812D01*
X217775272Y-178611379D01*
X217773737Y-178630211D01*
X217705387Y-188609272D01*
X217691476Y-188711657D01*
X217655192Y-188799566D01*
X217597798Y-188875405D01*
X217516596Y-188939285D01*
X209828471Y-193530804D01*
X203200075Y-197357849D01*
X195182039Y-192726396D01*
X188936959Y-189016340D01*
X188854963Y-188951989D01*
X188797146Y-188875415D01*
X188760846Y-188786607D01*
X188747400Y-188683237D01*
X188747400Y-178565007D01*
X188745981Y-178546073D01*
X188723755Y-178398655D01*
X188717648Y-178374520D01*
X188712590Y-178362472D01*
X188647889Y-178228161D01*
X188634938Y-178206898D01*
X188626553Y-178196877D01*
X188525128Y-178087612D01*
X188506483Y-178071113D01*
X188495516Y-178064009D01*
X188366384Y-177989505D01*
X188343704Y-177979237D01*
X188331130Y-177975683D01*
X188185772Y-177942563D01*
X188161073Y-177939438D01*
X188148009Y-177939748D01*
X187999348Y-177950957D01*
X187974825Y-177955254D01*
X187962435Y-177959402D01*
X187823687Y-178013943D01*
X187806585Y-178022191D01*
X179057039Y-183080522D01*
X178960701Y-183120652D01*
X178865533Y-183133647D01*
X178770211Y-183121837D01*
X178673388Y-183082912D01*
X171567696Y-179092043D01*
X164236000Y-174853788D01*
X164236000Y-160614171D01*
X192722460Y-160614171D01*
X192722460Y-160926389D01*
X192783371Y-161232607D01*
X192902851Y-161521059D01*
X193076310Y-161780659D01*
X193297081Y-162001430D01*
X193355224Y-162040280D01*
X193297081Y-162079130D01*
X193076310Y-162299901D01*
X192902851Y-162559501D01*
X192783371Y-162847953D01*
X192722460Y-163154171D01*
X192722460Y-163466389D01*
X192783371Y-163772607D01*
X192902851Y-164061059D01*
X193076310Y-164320659D01*
X193297081Y-164541430D01*
X193355224Y-164580280D01*
X193297081Y-164619130D01*
X193076310Y-164839901D01*
X192902851Y-165099501D01*
X192783371Y-165387953D01*
X192722460Y-165694171D01*
X192722460Y-166006389D01*
X192783371Y-166312607D01*
X192902851Y-166601059D01*
X193076310Y-166860659D01*
X193297081Y-167081430D01*
X193556681Y-167254889D01*
X193845133Y-167374369D01*
X194151351Y-167435280D01*
X194463569Y-167435280D01*
X194769787Y-167374369D01*
X195058239Y-167254889D01*
X195317839Y-167081430D01*
X195538610Y-166860659D01*
X195712069Y-166601059D01*
X195831549Y-166312607D01*
X195892460Y-166006389D01*
X195892460Y-165694171D01*
X195831549Y-165387953D01*
X195712069Y-165099501D01*
X195538610Y-164839901D01*
X195317839Y-164619130D01*
X195259696Y-164580280D01*
X195317839Y-164541430D01*
X195538610Y-164320659D01*
X195712069Y-164061059D01*
X195831549Y-163772607D01*
X195892460Y-163466389D01*
X195892460Y-163374853D01*
X210496101Y-163374853D01*
X210539276Y-163684071D01*
X210641947Y-163978924D01*
X210728418Y-164140701D01*
X210987706Y-164230426D01*
X210913482Y-164304650D01*
X210893280Y-164310778D01*
X210782966Y-164369743D01*
X210686275Y-164449095D01*
X210606923Y-164545786D01*
X210547958Y-164656100D01*
X210511648Y-164775798D01*
X210499388Y-164900280D01*
X210499388Y-166800280D01*
X210511648Y-166924762D01*
X210547958Y-167044460D01*
X210606923Y-167154774D01*
X210686275Y-167251465D01*
X210782966Y-167330817D01*
X210893280Y-167389782D01*
X211012978Y-167426092D01*
X211137460Y-167438352D01*
X213037460Y-167438352D01*
X213161942Y-167426092D01*
X213281640Y-167389782D01*
X213391954Y-167330817D01*
X213488645Y-167251465D01*
X213567997Y-167154774D01*
X213626962Y-167044460D01*
X213663272Y-166924762D01*
X213675532Y-166800280D01*
X213675532Y-164900280D01*
X213663272Y-164775798D01*
X213626962Y-164656100D01*
X213567997Y-164545786D01*
X213488645Y-164449095D01*
X213391954Y-164369743D01*
X213281640Y-164310778D01*
X213261438Y-164304650D01*
X213187214Y-164230426D01*
X213446502Y-164140701D01*
X213582395Y-163859609D01*
X213660839Y-163557407D01*
X213678819Y-163245707D01*
X213635644Y-162936489D01*
X213532973Y-162641636D01*
X213446502Y-162479859D01*
X213187212Y-162390133D01*
X212267065Y-163310280D01*
X212281208Y-163324423D01*
X212101603Y-163504028D01*
X212087460Y-163489885D01*
X212073318Y-163504028D01*
X211893713Y-163324423D01*
X211907855Y-163310280D01*
X210987708Y-162390133D01*
X210728418Y-162479859D01*
X210592525Y-162760951D01*
X210514081Y-163063153D01*
X210496101Y-163374853D01*
X195892460Y-163374853D01*
X195892460Y-163154171D01*
X195831549Y-162847953D01*
X195712069Y-162559501D01*
X195538610Y-162299901D01*
X195317839Y-162079130D01*
X195259696Y-162040280D01*
X195317839Y-162001430D01*
X195538610Y-161780659D01*
X195712069Y-161521059D01*
X195831549Y-161232607D01*
X195892460Y-160926389D01*
X195892460Y-160614171D01*
X195831549Y-160307953D01*
X195712069Y-160019501D01*
X195538610Y-159759901D01*
X195317839Y-159539130D01*
X195185784Y-159450893D01*
X195227607Y-159330032D01*
X194307460Y-158409885D01*
X193387313Y-159330032D01*
X193429136Y-159450893D01*
X193297081Y-159539130D01*
X193076310Y-159759901D01*
X192902851Y-160019501D01*
X192783371Y-160307953D01*
X192722460Y-160614171D01*
X164236000Y-160614171D01*
X164236000Y-158294853D01*
X192716101Y-158294853D01*
X192759276Y-158604071D01*
X192861947Y-158898924D01*
X192948418Y-159060701D01*
X193207708Y-159150427D01*
X194127855Y-158230280D01*
X194487065Y-158230280D01*
X195407212Y-159150427D01*
X195666502Y-159060701D01*
X195802395Y-158779609D01*
X195880839Y-158477407D01*
X195898819Y-158165707D01*
X195855644Y-157856489D01*
X195752973Y-157561636D01*
X195666502Y-157399859D01*
X195407212Y-157310133D01*
X194487065Y-158230280D01*
X194127855Y-158230280D01*
X193207708Y-157310133D01*
X192948418Y-157399859D01*
X192812525Y-157680951D01*
X192734081Y-157983153D01*
X192716101Y-158294853D01*
X164236000Y-158294853D01*
X164236000Y-158064109D01*
X173003148Y-152998647D01*
X173013132Y-152994893D01*
X173059314Y-152966195D01*
X173078253Y-152955253D01*
X173086888Y-152949061D01*
X173123557Y-152926275D01*
X173139583Y-152911275D01*
X173157433Y-152898475D01*
X173186952Y-152866937D01*
X173218474Y-152837433D01*
X173231268Y-152819592D01*
X173246275Y-152803558D01*
X173269073Y-152766870D01*
X173294235Y-152731780D01*
X173303302Y-152711786D01*
X173314893Y-152693133D01*
X173330094Y-152652705D01*
X173347929Y-152613377D01*
X173352921Y-152591996D01*
X173360650Y-152571442D01*
X173367672Y-152528823D01*
X173377491Y-152486774D01*
X173378216Y-152464833D01*
X173381787Y-152443163D01*
X173380360Y-152400000D01*
X173381787Y-152356837D01*
X173378216Y-152335167D01*
X173377491Y-152313226D01*
X173367672Y-152271177D01*
X173360650Y-152228558D01*
X173352921Y-152208004D01*
X173347929Y-152186623D01*
X173330094Y-152147295D01*
X173314893Y-152106867D01*
X173303302Y-152088214D01*
X173294235Y-152068220D01*
X173269073Y-152033130D01*
X173246275Y-151996442D01*
X173231268Y-151980408D01*
X173218474Y-151962567D01*
X173186952Y-151933063D01*
X173157433Y-151901525D01*
X173139583Y-151888725D01*
X173123557Y-151873725D01*
X173086888Y-151850939D01*
X173078253Y-151844747D01*
X173059314Y-151833805D01*
X173013132Y-151805107D01*
X173003148Y-151801353D01*
X164306635Y-146776702D01*
X164259622Y-146713452D01*
X164236000Y-146654908D01*
X164236000Y-129962664D01*
X164258839Y-129908106D01*
X169585210Y-126836566D01*
X173191866Y-124802042D01*
X177131000Y-124802042D01*
X177131000Y-125133958D01*
X177195754Y-125459496D01*
X177322772Y-125766147D01*
X177507175Y-126042125D01*
X177741875Y-126276825D01*
X178017853Y-126461228D01*
X178324504Y-126588246D01*
X178650042Y-126653000D01*
X178981958Y-126653000D01*
X179307496Y-126588246D01*
X179614147Y-126461228D01*
X179890125Y-126276825D01*
X180124825Y-126042125D01*
X180309228Y-125766147D01*
X180436246Y-125459496D01*
X180501000Y-125133958D01*
X180501000Y-124802042D01*
X180436246Y-124476504D01*
X180309228Y-124169853D01*
X180124825Y-123893875D01*
X179890125Y-123659175D01*
X179614147Y-123474772D01*
X179307496Y-123347754D01*
X178981958Y-123283000D01*
X178650042Y-123283000D01*
X178324504Y-123347754D01*
X178017853Y-123474772D01*
X177741875Y-123659175D01*
X177507175Y-123893875D01*
X177322772Y-124169853D01*
X177195754Y-124476504D01*
X177131000Y-124802042D01*
X173191866Y-124802042D01*
X178750499Y-121666403D01*
X178847110Y-121627333D01*
X178942267Y-121615308D01*
X179006471Y-121623892D01*
G04 #@! TA.AperFunction,Conductor*
D20*
G36*
X179006471Y-121623892D02*
G01*
X187583056Y-126579253D01*
X187591551Y-126586225D01*
X187639239Y-126611714D01*
X187657887Y-126622489D01*
X187667846Y-126627005D01*
X187706208Y-126647510D01*
X187726911Y-126653790D01*
X187746622Y-126662729D01*
X187788989Y-126672622D01*
X187830618Y-126685250D01*
X187852156Y-126687371D01*
X187873225Y-126692291D01*
X187893783Y-126692971D01*
X195004360Y-130771906D01*
X195088422Y-130836084D01*
X195147813Y-130913205D01*
X195185159Y-131003100D01*
X195199000Y-131107952D01*
X195199000Y-136599724D01*
X195058239Y-136505671D01*
X194769787Y-136386191D01*
X194463569Y-136325280D01*
X194151351Y-136325280D01*
X193845133Y-136386191D01*
X193556681Y-136505671D01*
X193297081Y-136679130D01*
X193076310Y-136899901D01*
X192902851Y-137159501D01*
X192783371Y-137447953D01*
X192722460Y-137754171D01*
X192722460Y-138066389D01*
X192783371Y-138372607D01*
X192902851Y-138661059D01*
X193076310Y-138920659D01*
X193297081Y-139141430D01*
X193355224Y-139180280D01*
X193297081Y-139219130D01*
X193076310Y-139439901D01*
X192902851Y-139699501D01*
X192783371Y-139987953D01*
X192722460Y-140294171D01*
X192722460Y-140606389D01*
X192783371Y-140912607D01*
X192902851Y-141201059D01*
X193076310Y-141460659D01*
X193297081Y-141681430D01*
X193355224Y-141720280D01*
X193297081Y-141759130D01*
X193076310Y-141979901D01*
X192902851Y-142239501D01*
X192783371Y-142527953D01*
X192722460Y-142834171D01*
X192722460Y-143146389D01*
X192783371Y-143452607D01*
X192902851Y-143741059D01*
X193076310Y-144000659D01*
X193297081Y-144221430D01*
X193355224Y-144260280D01*
X193297081Y-144299130D01*
X193076310Y-144519901D01*
X192902851Y-144779501D01*
X192783371Y-145067953D01*
X192722460Y-145374171D01*
X192722460Y-145686389D01*
X192783371Y-145992607D01*
X192902851Y-146281059D01*
X193076310Y-146540659D01*
X193297081Y-146761430D01*
X193355224Y-146800280D01*
X193297081Y-146839130D01*
X193076310Y-147059901D01*
X192902851Y-147319501D01*
X192783371Y-147607953D01*
X192722460Y-147914171D01*
X192722460Y-148226389D01*
X192783371Y-148532607D01*
X192902851Y-148821059D01*
X193076310Y-149080659D01*
X193297081Y-149301430D01*
X193355224Y-149340280D01*
X193297081Y-149379130D01*
X193076310Y-149599901D01*
X192902851Y-149859501D01*
X192783371Y-150147953D01*
X192722460Y-150454171D01*
X192722460Y-150766389D01*
X192783371Y-151072607D01*
X192902851Y-151361059D01*
X193076310Y-151620659D01*
X193297081Y-151841430D01*
X193355224Y-151880280D01*
X193297081Y-151919130D01*
X193076310Y-152139901D01*
X192902851Y-152399501D01*
X192783371Y-152687953D01*
X192722460Y-152994171D01*
X192722460Y-153306389D01*
X192783371Y-153612607D01*
X192902851Y-153901059D01*
X193076310Y-154160659D01*
X193297081Y-154381430D01*
X193355224Y-154420280D01*
X193297081Y-154459130D01*
X193076310Y-154679901D01*
X192902851Y-154939501D01*
X192783371Y-155227953D01*
X192722460Y-155534171D01*
X192722460Y-155846389D01*
X192783371Y-156152607D01*
X192902851Y-156441059D01*
X193076310Y-156700659D01*
X193297081Y-156921430D01*
X193429136Y-157009667D01*
X193387313Y-157130528D01*
X194307460Y-158050675D01*
X195227607Y-157130528D01*
X195185784Y-157009667D01*
X195317839Y-156921430D01*
X195538610Y-156700659D01*
X195712069Y-156441059D01*
X195831549Y-156152607D01*
X195892460Y-155846389D01*
X195892460Y-155534171D01*
X195831549Y-155227953D01*
X195712069Y-154939501D01*
X195538610Y-154679901D01*
X195317839Y-154459130D01*
X195259696Y-154420280D01*
X195317839Y-154381430D01*
X195538610Y-154160659D01*
X195712069Y-153901059D01*
X195831549Y-153612607D01*
X195892460Y-153306389D01*
X195892460Y-152994171D01*
X195831549Y-152687953D01*
X195712069Y-152399501D01*
X195538610Y-152139901D01*
X195317839Y-151919130D01*
X195259696Y-151880280D01*
X195317839Y-151841430D01*
X195538610Y-151620659D01*
X195712069Y-151361059D01*
X195831549Y-151072607D01*
X195892460Y-150766389D01*
X195892460Y-150454171D01*
X195831549Y-150147953D01*
X195712069Y-149859501D01*
X195538610Y-149599901D01*
X195317839Y-149379130D01*
X195259696Y-149340280D01*
X195317839Y-149301430D01*
X195538610Y-149080659D01*
X195712069Y-148821059D01*
X195831549Y-148532607D01*
X195892460Y-148226389D01*
X195892460Y-147914171D01*
X195831549Y-147607953D01*
X195712069Y-147319501D01*
X195538610Y-147059901D01*
X195317839Y-146839130D01*
X195259696Y-146800280D01*
X195317839Y-146761430D01*
X195538610Y-146540659D01*
X195712069Y-146281059D01*
X195831549Y-145992607D01*
X195892460Y-145686389D01*
X195892460Y-145374171D01*
X195831549Y-145067953D01*
X195712069Y-144779501D01*
X195538610Y-144519901D01*
X195317839Y-144299130D01*
X195259696Y-144260280D01*
X195317839Y-144221430D01*
X195538610Y-144000659D01*
X195712069Y-143741059D01*
X195758403Y-143629197D01*
X195809423Y-143635914D01*
X195826000Y-143637000D01*
X210577052Y-143637000D01*
X210593564Y-143635922D01*
X210636946Y-143630233D01*
X210682851Y-143741059D01*
X210856310Y-144000659D01*
X211077081Y-144221430D01*
X211135224Y-144260280D01*
X211077081Y-144299130D01*
X210856310Y-144519901D01*
X210682851Y-144779501D01*
X210563371Y-145067953D01*
X210502460Y-145374171D01*
X210502460Y-145686389D01*
X210563371Y-145992607D01*
X210682851Y-146281059D01*
X210856310Y-146540659D01*
X211077081Y-146761430D01*
X211135224Y-146800280D01*
X211077081Y-146839130D01*
X210856310Y-147059901D01*
X210682851Y-147319501D01*
X210563371Y-147607953D01*
X210502460Y-147914171D01*
X210502460Y-148226389D01*
X210563371Y-148532607D01*
X210682851Y-148821059D01*
X210856310Y-149080659D01*
X211077081Y-149301430D01*
X211135224Y-149340280D01*
X211077081Y-149379130D01*
X210856310Y-149599901D01*
X210682851Y-149859501D01*
X210563371Y-150147953D01*
X210502460Y-150454171D01*
X210502460Y-150766389D01*
X210563371Y-151072607D01*
X210682851Y-151361059D01*
X210856310Y-151620659D01*
X211077081Y-151841430D01*
X211135224Y-151880280D01*
X211077081Y-151919130D01*
X210856310Y-152139901D01*
X210682851Y-152399501D01*
X210563371Y-152687953D01*
X210502460Y-152994171D01*
X210502460Y-153306389D01*
X210563371Y-153612607D01*
X210682851Y-153901059D01*
X210856310Y-154160659D01*
X211077081Y-154381430D01*
X211135224Y-154420280D01*
X211077081Y-154459130D01*
X210856310Y-154679901D01*
X210682851Y-154939501D01*
X210563371Y-155227953D01*
X210502460Y-155534171D01*
X210502460Y-155846389D01*
X210563371Y-156152607D01*
X210682851Y-156441059D01*
X210856310Y-156700659D01*
X211077081Y-156921430D01*
X211135224Y-156960280D01*
X211077081Y-156999130D01*
X210856310Y-157219901D01*
X210682851Y-157479501D01*
X210563371Y-157767953D01*
X210502460Y-158074171D01*
X210502460Y-158386389D01*
X210563371Y-158692607D01*
X210682851Y-158981059D01*
X210856310Y-159240659D01*
X211077081Y-159461430D01*
X211135224Y-159500280D01*
X211077081Y-159539130D01*
X210856310Y-159759901D01*
X210682851Y-160019501D01*
X210563371Y-160307953D01*
X210502460Y-160614171D01*
X210502460Y-160926389D01*
X210563371Y-161232607D01*
X210682851Y-161521059D01*
X210856310Y-161780659D01*
X211077081Y-162001430D01*
X211209136Y-162089667D01*
X211167313Y-162210528D01*
X212087460Y-163130675D01*
X213007607Y-162210528D01*
X212965784Y-162089667D01*
X213097839Y-162001430D01*
X213318610Y-161780659D01*
X213492069Y-161521059D01*
X213611549Y-161232607D01*
X213672460Y-160926389D01*
X213672460Y-160614171D01*
X213611549Y-160307953D01*
X213492069Y-160019501D01*
X213318610Y-159759901D01*
X213097839Y-159539130D01*
X213039696Y-159500280D01*
X213097839Y-159461430D01*
X213318610Y-159240659D01*
X213492069Y-158981059D01*
X213611549Y-158692607D01*
X213672460Y-158386389D01*
X213672460Y-158074171D01*
X213611549Y-157767953D01*
X213492069Y-157479501D01*
X213318610Y-157219901D01*
X213097839Y-156999130D01*
X213039696Y-156960280D01*
X213097839Y-156921430D01*
X213318610Y-156700659D01*
X213492069Y-156441059D01*
X213611549Y-156152607D01*
X213672460Y-155846389D01*
X213672460Y-155534171D01*
X213611549Y-155227953D01*
X213492069Y-154939501D01*
X213318610Y-154679901D01*
X213097839Y-154459130D01*
X213039696Y-154420280D01*
X213097839Y-154381430D01*
X213318610Y-154160659D01*
X213492069Y-153901059D01*
X213611549Y-153612607D01*
X213672460Y-153306389D01*
X213672460Y-152994171D01*
X213611549Y-152687953D01*
X213492069Y-152399501D01*
X213318610Y-152139901D01*
X213097839Y-151919130D01*
X213039696Y-151880280D01*
X213097839Y-151841430D01*
X213318610Y-151620659D01*
X213492069Y-151361059D01*
X213611549Y-151072607D01*
X213672460Y-150766389D01*
X213672460Y-150454171D01*
X213611549Y-150147953D01*
X213492069Y-149859501D01*
X213318610Y-149599901D01*
X213097839Y-149379130D01*
X213039696Y-149340280D01*
X213097839Y-149301430D01*
X213318610Y-149080659D01*
X213492069Y-148821059D01*
X213611549Y-148532607D01*
X213672460Y-148226389D01*
X213672460Y-147914171D01*
X213611549Y-147607953D01*
X213492069Y-147319501D01*
X213318610Y-147059901D01*
X213097839Y-146839130D01*
X213039696Y-146800280D01*
X213097839Y-146761430D01*
X213318610Y-146540659D01*
X213492069Y-146281059D01*
X213611549Y-145992607D01*
X213672460Y-145686389D01*
X213672460Y-145374171D01*
X213611549Y-145067953D01*
X213492069Y-144779501D01*
X213318610Y-144519901D01*
X213097839Y-144299130D01*
X213039696Y-144260280D01*
X213097839Y-144221430D01*
X213318610Y-144000659D01*
X213492069Y-143741059D01*
X213611549Y-143452607D01*
X213672460Y-143146389D01*
X213672460Y-142834171D01*
X213611549Y-142527953D01*
X213492069Y-142239501D01*
X213318610Y-141979901D01*
X213097839Y-141759130D01*
X213039696Y-141720280D01*
X213097839Y-141681430D01*
X213318610Y-141460659D01*
X213492069Y-141201059D01*
X213611549Y-140912607D01*
X213672460Y-140606389D01*
X213672460Y-140294171D01*
X213611549Y-139987953D01*
X213492069Y-139699501D01*
X213318610Y-139439901D01*
X213097839Y-139219130D01*
X213039696Y-139180280D01*
X213097839Y-139141430D01*
X213318610Y-138920659D01*
X213492069Y-138661059D01*
X213611549Y-138372607D01*
X213672460Y-138066389D01*
X213672460Y-137754171D01*
X213611549Y-137447953D01*
X213492069Y-137159501D01*
X213318610Y-136899901D01*
X213097839Y-136679130D01*
X212838239Y-136505671D01*
X212549787Y-136386191D01*
X212243569Y-136325280D01*
X211931351Y-136325280D01*
X211625133Y-136386191D01*
X211336681Y-136505671D01*
X211243505Y-136567929D01*
X211275402Y-131358166D01*
X211289529Y-131254699D01*
X211326500Y-131165982D01*
X211384973Y-131089699D01*
X211467618Y-131025868D01*
X214190534Y-129437500D01*
X215242537Y-129437500D01*
X215446007Y-129417460D01*
X215707081Y-129338264D01*
X215947688Y-129209657D01*
X216158581Y-129036581D01*
X216331657Y-128825688D01*
X216460264Y-128585081D01*
X216539460Y-128324007D01*
X216566201Y-128052500D01*
X216566126Y-128051738D01*
X216666001Y-127993478D01*
X216666000Y-129496518D01*
X216661718Y-129540000D01*
X216666000Y-129583481D01*
X216666000Y-132417531D01*
X216661719Y-132461000D01*
X216666000Y-132504469D01*
X216666000Y-132504476D01*
X216678805Y-132634489D01*
X216729411Y-132801312D01*
X216811589Y-132955058D01*
X216922183Y-133089817D01*
X216955956Y-133117534D01*
X218317001Y-134478580D01*
X218317001Y-134548197D01*
X218233898Y-134513774D01*
X218033939Y-134474000D01*
X217830061Y-134474000D01*
X217630102Y-134513774D01*
X217441744Y-134591795D01*
X217393546Y-134624000D01*
X214234579Y-134624000D01*
X213731535Y-134120957D01*
X213720226Y-134064102D01*
X213642205Y-133875744D01*
X213528937Y-133706226D01*
X213384774Y-133562063D01*
X213215256Y-133448795D01*
X213026898Y-133370774D01*
X212826939Y-133331000D01*
X212623061Y-133331000D01*
X212423102Y-133370774D01*
X212234744Y-133448795D01*
X212065226Y-133562063D01*
X211921063Y-133706226D01*
X211807795Y-133875744D01*
X211729774Y-134064102D01*
X211690000Y-134264061D01*
X211690000Y-134467939D01*
X211729774Y-134667898D01*
X211807795Y-134856256D01*
X211921063Y-135025774D01*
X212065226Y-135169937D01*
X212234744Y-135283205D01*
X212423102Y-135361226D01*
X212479957Y-135372535D01*
X213211470Y-136104049D01*
X213239183Y-136137817D01*
X213272951Y-136165530D01*
X213272953Y-136165532D01*
X213328858Y-136211412D01*
X213373941Y-136248411D01*
X213527687Y-136330589D01*
X213694510Y-136381195D01*
X213824523Y-136394000D01*
X213824533Y-136394000D01*
X213867999Y-136398281D01*
X213911465Y-136394000D01*
X217393546Y-136394000D01*
X217441744Y-136426205D01*
X217630102Y-136504226D01*
X217830061Y-136544000D01*
X218033939Y-136544000D01*
X218233898Y-136504226D01*
X218317000Y-136469804D01*
X218317000Y-136666421D01*
X217559957Y-137423465D01*
X217503102Y-137434774D01*
X217314744Y-137512795D01*
X217145226Y-137626063D01*
X217001063Y-137770226D01*
X216887795Y-137939744D01*
X216809774Y-138128102D01*
X216770000Y-138328061D01*
X216770000Y-138531939D01*
X216809774Y-138731898D01*
X216887795Y-138920256D01*
X217001063Y-139089774D01*
X217145226Y-139233937D01*
X217314744Y-139347205D01*
X217503102Y-139425226D01*
X217703061Y-139465000D01*
X217906939Y-139465000D01*
X218106898Y-139425226D01*
X218295256Y-139347205D01*
X218464774Y-139233937D01*
X218608937Y-139089774D01*
X218722205Y-138920256D01*
X218800226Y-138731898D01*
X218811535Y-138675043D01*
X219797050Y-137689529D01*
X219830817Y-137661817D01*
X219941411Y-137527059D01*
X220023589Y-137373313D01*
X220074195Y-137206490D01*
X220087000Y-137076477D01*
X220087000Y-137076467D01*
X220091281Y-137033001D01*
X220087000Y-136989535D01*
X220087000Y-134155469D01*
X220091281Y-134112000D01*
X220087000Y-134068531D01*
X220087000Y-134068523D01*
X220074195Y-133938510D01*
X220023589Y-133771687D01*
X220023589Y-133771686D01*
X219941411Y-133617941D01*
X219858532Y-133516953D01*
X219858530Y-133516951D01*
X219830817Y-133483183D01*
X219797049Y-133455470D01*
X218436000Y-132094422D01*
X218436000Y-129834967D01*
X219348898Y-129834967D01*
X220203363Y-131321087D01*
X220276221Y-131422761D01*
X220367515Y-131508268D01*
X220473738Y-131574320D01*
X220590804Y-131618381D01*
X220714217Y-131638756D01*
X220839234Y-131634665D01*
X220961051Y-131606261D01*
X221074985Y-131554637D01*
X222558033Y-130694852D01*
X222616140Y-130477995D01*
X221441515Y-128443485D01*
X219407005Y-129618110D01*
X219348898Y-129834967D01*
X218436000Y-129834967D01*
X218436000Y-129583477D01*
X218440282Y-129540000D01*
X218436000Y-129496523D01*
X218436000Y-128258262D01*
X219063148Y-129340033D01*
X219280005Y-129398140D01*
X221153486Y-128316485D01*
X221661485Y-128316485D01*
X222836110Y-130350995D01*
X223052967Y-130409102D01*
X224539087Y-129554637D01*
X224640761Y-129481779D01*
X224726268Y-129390485D01*
X224792320Y-129284262D01*
X224836381Y-129167196D01*
X224856756Y-129043783D01*
X224852665Y-128918766D01*
X224824261Y-128796949D01*
X224772637Y-128683015D01*
X223912852Y-127199967D01*
X223695995Y-127141860D01*
X221661485Y-128316485D01*
X221153486Y-128316485D01*
X221314515Y-128223515D01*
X220139890Y-126189005D01*
X219923033Y-126130898D01*
X218436913Y-126985363D01*
X218436000Y-126986017D01*
X218436000Y-126960978D01*
X219977096Y-126062005D01*
X220359860Y-126062005D01*
X221534485Y-128096515D01*
X223568995Y-126921890D01*
X223627102Y-126705033D01*
X222772637Y-125218913D01*
X222699779Y-125117239D01*
X222608485Y-125031732D01*
X222502262Y-124965680D01*
X222385196Y-124921619D01*
X222261783Y-124901244D01*
X222136766Y-124905335D01*
X222014949Y-124933739D01*
X221901015Y-124985363D01*
X220417967Y-125845148D01*
X220359860Y-126062005D01*
X219977096Y-126062005D01*
X222137032Y-124802042D01*
X225899000Y-124802042D01*
X225899000Y-125133958D01*
X225963754Y-125459496D01*
X226090772Y-125766147D01*
X226275175Y-126042125D01*
X226509875Y-126276825D01*
X226785853Y-126461228D01*
X227092504Y-126588246D01*
X227418042Y-126653000D01*
X227749958Y-126653000D01*
X228075496Y-126588246D01*
X228382147Y-126461228D01*
X228658125Y-126276825D01*
X228892825Y-126042125D01*
X229077228Y-125766147D01*
X229204246Y-125459496D01*
X229269000Y-125133958D01*
X229269000Y-124802042D01*
X229204246Y-124476504D01*
X229077228Y-124169853D01*
X228892825Y-123893875D01*
X228658125Y-123659175D01*
X228382147Y-123474772D01*
X228075496Y-123347754D01*
X227749958Y-123283000D01*
X227418042Y-123283000D01*
X227092504Y-123347754D01*
X226785853Y-123474772D01*
X226509875Y-123659175D01*
X226275175Y-123893875D01*
X226090772Y-124169853D01*
X225963754Y-124476504D01*
X225899000Y-124802042D01*
X222137032Y-124802042D01*
X227417995Y-121721481D01*
X227514885Y-121680784D01*
X227610713Y-121667589D01*
X227706701Y-121679554D01*
X227804113Y-121719008D01*
X233833652Y-125133325D01*
X242164000Y-129970749D01*
X242164001Y-146629870D01*
X242163146Y-146631914D01*
X242103393Y-146709031D01*
X242018916Y-146773051D01*
X233031167Y-151882837D01*
X233015354Y-151893472D01*
X232897807Y-151986055D01*
X232879853Y-152003303D01*
X232871805Y-152013774D01*
X232786916Y-152136992D01*
X232774869Y-152158780D01*
X232770280Y-152171163D01*
X232725651Y-152313981D01*
X232720590Y-152338358D01*
X232719870Y-152351545D01*
X232719498Y-152501174D01*
X232721877Y-152525957D01*
X232725092Y-152538766D01*
X232769010Y-152681805D01*
X232778615Y-152704774D01*
X232785476Y-152716059D01*
X232869751Y-152839698D01*
X232885722Y-152858796D01*
X232895615Y-152867546D01*
X233012700Y-152960712D01*
X233028459Y-152971425D01*
X241819157Y-158027215D01*
X241902532Y-158090874D01*
X241961601Y-158167242D01*
X241999024Y-158256246D01*
X242013422Y-158360155D01*
X242135934Y-174654232D01*
X242122585Y-174760311D01*
X242085118Y-174851309D01*
X242025100Y-174929287D01*
X241997929Y-174949918D01*
X240902181Y-175583625D01*
X227751232Y-183056272D01*
X227654442Y-183095722D01*
X227559019Y-183107968D01*
X227463649Y-183095329D01*
X227367026Y-183055482D01*
X218712726Y-178090646D01*
X218695682Y-178082489D01*
X218557462Y-178028572D01*
X218533493Y-178021842D01*
X218520712Y-178020238D01*
X218372755Y-178009253D01*
X218347866Y-178009852D01*
X218335175Y-178012069D01*
X218190508Y-178044986D01*
X218166891Y-178052863D01*
X218155411Y-178058706D01*
X218026773Y-178132624D01*
X218006506Y-178147084D01*
X217997245Y-178156039D01*
X217895960Y-178264452D01*
X217880829Y-178284223D01*
X217874604Y-178295502D01*
X217809592Y-178428864D01*
X217800929Y-178452204D01*
X217798288Y-178464812D01*
X217775272Y-178611379D01*
X217773737Y-178630211D01*
X217705387Y-188609272D01*
X217691476Y-188711657D01*
X217655192Y-188799566D01*
X217597798Y-188875405D01*
X217516596Y-188939285D01*
X209828471Y-193530804D01*
X203200075Y-197357849D01*
X195182039Y-192726396D01*
X188936959Y-189016340D01*
X188854963Y-188951989D01*
X188797146Y-188875415D01*
X188760846Y-188786607D01*
X188747400Y-188683237D01*
X188747400Y-178565007D01*
X188745981Y-178546073D01*
X188723755Y-178398655D01*
X188717648Y-178374520D01*
X188712590Y-178362472D01*
X188647889Y-178228161D01*
X188634938Y-178206898D01*
X188626553Y-178196877D01*
X188525128Y-178087612D01*
X188506483Y-178071113D01*
X188495516Y-178064009D01*
X188366384Y-177989505D01*
X188343704Y-177979237D01*
X188331130Y-177975683D01*
X188185772Y-177942563D01*
X188161073Y-177939438D01*
X188148009Y-177939748D01*
X187999348Y-177950957D01*
X187974825Y-177955254D01*
X187962435Y-177959402D01*
X187823687Y-178013943D01*
X187806585Y-178022191D01*
X179057039Y-183080522D01*
X178960701Y-183120652D01*
X178865533Y-183133647D01*
X178770211Y-183121837D01*
X178673388Y-183082912D01*
X171567696Y-179092043D01*
X164236000Y-174853788D01*
X164236000Y-160614171D01*
X192722460Y-160614171D01*
X192722460Y-160926389D01*
X192783371Y-161232607D01*
X192902851Y-161521059D01*
X193076310Y-161780659D01*
X193297081Y-162001430D01*
X193355224Y-162040280D01*
X193297081Y-162079130D01*
X193076310Y-162299901D01*
X192902851Y-162559501D01*
X192783371Y-162847953D01*
X192722460Y-163154171D01*
X192722460Y-163466389D01*
X192783371Y-163772607D01*
X192902851Y-164061059D01*
X193076310Y-164320659D01*
X193297081Y-164541430D01*
X193355224Y-164580280D01*
X193297081Y-164619130D01*
X193076310Y-164839901D01*
X192902851Y-165099501D01*
X192783371Y-165387953D01*
X192722460Y-165694171D01*
X192722460Y-166006389D01*
X192783371Y-166312607D01*
X192902851Y-166601059D01*
X193076310Y-166860659D01*
X193297081Y-167081430D01*
X193556681Y-167254889D01*
X193845133Y-167374369D01*
X194151351Y-167435280D01*
X194463569Y-167435280D01*
X194769787Y-167374369D01*
X195058239Y-167254889D01*
X195317839Y-167081430D01*
X195538610Y-166860659D01*
X195712069Y-166601059D01*
X195831549Y-166312607D01*
X195892460Y-166006389D01*
X195892460Y-165694171D01*
X195831549Y-165387953D01*
X195712069Y-165099501D01*
X195538610Y-164839901D01*
X195317839Y-164619130D01*
X195259696Y-164580280D01*
X195317839Y-164541430D01*
X195538610Y-164320659D01*
X195712069Y-164061059D01*
X195831549Y-163772607D01*
X195892460Y-163466389D01*
X195892460Y-163374853D01*
X210496101Y-163374853D01*
X210539276Y-163684071D01*
X210641947Y-163978924D01*
X210728418Y-164140701D01*
X210987706Y-164230426D01*
X210913482Y-164304650D01*
X210893280Y-164310778D01*
X210782966Y-164369743D01*
X210686275Y-164449095D01*
X210606923Y-164545786D01*
X210547958Y-164656100D01*
X210511648Y-164775798D01*
X210499388Y-164900280D01*
X210499388Y-166800280D01*
X210511648Y-166924762D01*
X210547958Y-167044460D01*
X210606923Y-167154774D01*
X210686275Y-167251465D01*
X210782966Y-167330817D01*
X210893280Y-167389782D01*
X211012978Y-167426092D01*
X211137460Y-167438352D01*
X213037460Y-167438352D01*
X213161942Y-167426092D01*
X213281640Y-167389782D01*
X213391954Y-167330817D01*
X213488645Y-167251465D01*
X213567997Y-167154774D01*
X213626962Y-167044460D01*
X213663272Y-166924762D01*
X213675532Y-166800280D01*
X213675532Y-164900280D01*
X213663272Y-164775798D01*
X213626962Y-164656100D01*
X213567997Y-164545786D01*
X213488645Y-164449095D01*
X213391954Y-164369743D01*
X213281640Y-164310778D01*
X213261438Y-164304650D01*
X213187214Y-164230426D01*
X213446502Y-164140701D01*
X213582395Y-163859609D01*
X213660839Y-163557407D01*
X213678819Y-163245707D01*
X213635644Y-162936489D01*
X213532973Y-162641636D01*
X213446502Y-162479859D01*
X213187212Y-162390133D01*
X212267065Y-163310280D01*
X212281208Y-163324423D01*
X212101603Y-163504028D01*
X212087460Y-163489885D01*
X212073318Y-163504028D01*
X211893713Y-163324423D01*
X211907855Y-163310280D01*
X210987708Y-162390133D01*
X210728418Y-162479859D01*
X210592525Y-162760951D01*
X210514081Y-163063153D01*
X210496101Y-163374853D01*
X195892460Y-163374853D01*
X195892460Y-163154171D01*
X195831549Y-162847953D01*
X195712069Y-162559501D01*
X195538610Y-162299901D01*
X195317839Y-162079130D01*
X195259696Y-162040280D01*
X195317839Y-162001430D01*
X195538610Y-161780659D01*
X195712069Y-161521059D01*
X195831549Y-161232607D01*
X195892460Y-160926389D01*
X195892460Y-160614171D01*
X195831549Y-160307953D01*
X195712069Y-160019501D01*
X195538610Y-159759901D01*
X195317839Y-159539130D01*
X195185784Y-159450893D01*
X195227607Y-159330032D01*
X194307460Y-158409885D01*
X193387313Y-159330032D01*
X193429136Y-159450893D01*
X193297081Y-159539130D01*
X193076310Y-159759901D01*
X192902851Y-160019501D01*
X192783371Y-160307953D01*
X192722460Y-160614171D01*
X164236000Y-160614171D01*
X164236000Y-158294853D01*
X192716101Y-158294853D01*
X192759276Y-158604071D01*
X192861947Y-158898924D01*
X192948418Y-159060701D01*
X193207708Y-159150427D01*
X194127855Y-158230280D01*
X194487065Y-158230280D01*
X195407212Y-159150427D01*
X195666502Y-159060701D01*
X195802395Y-158779609D01*
X195880839Y-158477407D01*
X195898819Y-158165707D01*
X195855644Y-157856489D01*
X195752973Y-157561636D01*
X195666502Y-157399859D01*
X195407212Y-157310133D01*
X194487065Y-158230280D01*
X194127855Y-158230280D01*
X193207708Y-157310133D01*
X192948418Y-157399859D01*
X192812525Y-157680951D01*
X192734081Y-157983153D01*
X192716101Y-158294853D01*
X164236000Y-158294853D01*
X164236000Y-158064109D01*
X173003148Y-152998647D01*
X173013132Y-152994893D01*
X173059314Y-152966195D01*
X173078253Y-152955253D01*
X173086888Y-152949061D01*
X173123557Y-152926275D01*
X173139583Y-152911275D01*
X173157433Y-152898475D01*
X173186952Y-152866937D01*
X173218474Y-152837433D01*
X173231268Y-152819592D01*
X173246275Y-152803558D01*
X173269073Y-152766870D01*
X173294235Y-152731780D01*
X173303302Y-152711786D01*
X173314893Y-152693133D01*
X173330094Y-152652705D01*
X173347929Y-152613377D01*
X173352921Y-152591996D01*
X173360650Y-152571442D01*
X173367672Y-152528823D01*
X173377491Y-152486774D01*
X173378216Y-152464833D01*
X173381787Y-152443163D01*
X173380360Y-152400000D01*
X173381787Y-152356837D01*
X173378216Y-152335167D01*
X173377491Y-152313226D01*
X173367672Y-152271177D01*
X173360650Y-152228558D01*
X173352921Y-152208004D01*
X173347929Y-152186623D01*
X173330094Y-152147295D01*
X173314893Y-152106867D01*
X173303302Y-152088214D01*
X173294235Y-152068220D01*
X173269073Y-152033130D01*
X173246275Y-151996442D01*
X173231268Y-151980408D01*
X173218474Y-151962567D01*
X173186952Y-151933063D01*
X173157433Y-151901525D01*
X173139583Y-151888725D01*
X173123557Y-151873725D01*
X173086888Y-151850939D01*
X173078253Y-151844747D01*
X173059314Y-151833805D01*
X173013132Y-151805107D01*
X173003148Y-151801353D01*
X164306635Y-146776702D01*
X164259622Y-146713452D01*
X164236000Y-146654908D01*
X164236000Y-129962664D01*
X164258839Y-129908106D01*
X169585210Y-126836566D01*
X173191866Y-124802042D01*
X177131000Y-124802042D01*
X177131000Y-125133958D01*
X177195754Y-125459496D01*
X177322772Y-125766147D01*
X177507175Y-126042125D01*
X177741875Y-126276825D01*
X178017853Y-126461228D01*
X178324504Y-126588246D01*
X178650042Y-126653000D01*
X178981958Y-126653000D01*
X179307496Y-126588246D01*
X179614147Y-126461228D01*
X179890125Y-126276825D01*
X180124825Y-126042125D01*
X180309228Y-125766147D01*
X180436246Y-125459496D01*
X180501000Y-125133958D01*
X180501000Y-124802042D01*
X180436246Y-124476504D01*
X180309228Y-124169853D01*
X180124825Y-123893875D01*
X179890125Y-123659175D01*
X179614147Y-123474772D01*
X179307496Y-123347754D01*
X178981958Y-123283000D01*
X178650042Y-123283000D01*
X178324504Y-123347754D01*
X178017853Y-123474772D01*
X177741875Y-123659175D01*
X177507175Y-123893875D01*
X177322772Y-124169853D01*
X177195754Y-124476504D01*
X177131000Y-124802042D01*
X173191866Y-124802042D01*
X178750499Y-121666403D01*
X178847110Y-121627333D01*
X178942267Y-121615308D01*
X179006471Y-121623892D01*
G37*
G04 #@! TD.AperFunction*
D19*
X211353312Y-129209657D02*
X211593919Y-129338264D01*
X211854993Y-129417460D01*
X212126500Y-129444201D01*
X212194537Y-129437500D01*
X215201976Y-129437500D01*
X211328000Y-131730261D01*
X211328000Y-129188884D01*
X211353312Y-129209657D01*
G04 #@! TA.AperFunction,Conductor*
D20*
G36*
X211353312Y-129209657D02*
G01*
X211593919Y-129338264D01*
X211854993Y-129417460D01*
X212126500Y-129444201D01*
X212194537Y-129437500D01*
X215201976Y-129437500D01*
X211328000Y-131730261D01*
X211328000Y-129188884D01*
X211353312Y-129209657D01*
G37*
G04 #@! TD.AperFunction*
D19*
X216145363Y-115217928D02*
X212757000Y-115217928D01*
X212632518Y-115230188D01*
X212512820Y-115266498D01*
X212402506Y-115325463D01*
X212305815Y-115404815D01*
X212226463Y-115501506D01*
X212167498Y-115611820D01*
X212131188Y-115731518D01*
X212118928Y-115856000D01*
X212118928Y-116471000D01*
X211650026Y-116471000D01*
X211581999Y-116464300D01*
X211513972Y-116471000D01*
X211513963Y-116471000D01*
X211310493Y-116491040D01*
X211049419Y-116570236D01*
X210808812Y-116698843D01*
X210808810Y-116698844D01*
X210808811Y-116698844D01*
X210650766Y-116828548D01*
X210650764Y-116828550D01*
X210597919Y-116871919D01*
X210554550Y-116924764D01*
X209380764Y-118098551D01*
X209327920Y-118141919D01*
X209284551Y-118194764D01*
X209284548Y-118194767D01*
X209154844Y-118352812D01*
X209026236Y-118593420D01*
X208947040Y-118854493D01*
X208920300Y-119126000D01*
X208927001Y-119194039D01*
X208927000Y-126169971D01*
X208920300Y-126238000D01*
X208927000Y-126306029D01*
X208927000Y-126306036D01*
X208947040Y-126509506D01*
X209026236Y-126770580D01*
X209154843Y-127011187D01*
X209327919Y-127222080D01*
X209380765Y-127265450D01*
X210385314Y-128270000D01*
X195199000Y-128270000D01*
X195174224Y-128272440D01*
X195150399Y-128279667D01*
X195128443Y-128291403D01*
X195109197Y-128307197D01*
X195093403Y-128326443D01*
X195081667Y-128348399D01*
X195074440Y-128372224D01*
X195072000Y-128397000D01*
X195072000Y-130715588D01*
X188595000Y-126927154D01*
X188595000Y-126217896D01*
X188597820Y-126205819D01*
X188610450Y-126164183D01*
X188612572Y-126142642D01*
X188617491Y-126121574D01*
X188618928Y-126078100D01*
X188620000Y-126067219D01*
X188620000Y-126045687D01*
X188621787Y-125991637D01*
X188620000Y-125980792D01*
X188620000Y-116136109D01*
X203199832Y-107589311D01*
X216145363Y-115217928D01*
G04 #@! TA.AperFunction,Conductor*
D20*
G36*
X216145363Y-115217928D02*
G01*
X212757000Y-115217928D01*
X212632518Y-115230188D01*
X212512820Y-115266498D01*
X212402506Y-115325463D01*
X212305815Y-115404815D01*
X212226463Y-115501506D01*
X212167498Y-115611820D01*
X212131188Y-115731518D01*
X212118928Y-115856000D01*
X212118928Y-116471000D01*
X211650026Y-116471000D01*
X211581999Y-116464300D01*
X211513972Y-116471000D01*
X211513963Y-116471000D01*
X211310493Y-116491040D01*
X211049419Y-116570236D01*
X210808812Y-116698843D01*
X210808810Y-116698844D01*
X210808811Y-116698844D01*
X210650766Y-116828548D01*
X210650764Y-116828550D01*
X210597919Y-116871919D01*
X210554550Y-116924764D01*
X209380764Y-118098551D01*
X209327920Y-118141919D01*
X209284551Y-118194764D01*
X209284548Y-118194767D01*
X209154844Y-118352812D01*
X209026236Y-118593420D01*
X208947040Y-118854493D01*
X208920300Y-119126000D01*
X208927001Y-119194039D01*
X208927000Y-126169971D01*
X208920300Y-126238000D01*
X208927000Y-126306029D01*
X208927000Y-126306036D01*
X208947040Y-126509506D01*
X209026236Y-126770580D01*
X209154843Y-127011187D01*
X209327919Y-127222080D01*
X209380765Y-127265450D01*
X210385314Y-128270000D01*
X195199000Y-128270000D01*
X195174224Y-128272440D01*
X195150399Y-128279667D01*
X195128443Y-128291403D01*
X195109197Y-128307197D01*
X195093403Y-128326443D01*
X195081667Y-128348399D01*
X195074440Y-128372224D01*
X195072000Y-128397000D01*
X195072000Y-130715588D01*
X188595000Y-126927154D01*
X188595000Y-126217896D01*
X188597820Y-126205819D01*
X188610450Y-126164183D01*
X188612572Y-126142642D01*
X188617491Y-126121574D01*
X188618928Y-126078100D01*
X188620000Y-126067219D01*
X188620000Y-126045687D01*
X188621787Y-125991637D01*
X188620000Y-125980792D01*
X188620000Y-116136109D01*
X203199832Y-107589311D01*
X216145363Y-115217928D01*
G37*
G04 #@! TD.AperFunction*
D19*
X212118928Y-119856000D02*
X212131188Y-119980482D01*
X212167498Y-120100180D01*
X212226463Y-120210494D01*
X212305815Y-120307185D01*
X212402506Y-120386537D01*
X212512820Y-120445502D01*
X212632518Y-120481812D01*
X212757000Y-120494072D01*
X216757000Y-120494072D01*
X216881482Y-120481812D01*
X217001180Y-120445502D01*
X217111494Y-120386537D01*
X217208185Y-120307185D01*
X217287537Y-120210494D01*
X217297000Y-120192790D01*
X217297000Y-121234210D01*
X217287537Y-121216506D01*
X217208185Y-121119815D01*
X217111494Y-121040463D01*
X217001180Y-120981498D01*
X216881482Y-120945188D01*
X216757000Y-120932928D01*
X212757000Y-120932928D01*
X212632518Y-120945188D01*
X212512820Y-120981498D01*
X212402506Y-121040463D01*
X212305815Y-121119815D01*
X212226463Y-121216506D01*
X212167498Y-121326820D01*
X212131188Y-121446518D01*
X212118928Y-121571000D01*
X212118928Y-125571000D01*
X212131188Y-125695482D01*
X212167498Y-125815180D01*
X212226463Y-125925494D01*
X212305815Y-126022185D01*
X212402506Y-126101537D01*
X212512820Y-126160502D01*
X212632518Y-126196812D01*
X212757000Y-126209072D01*
X216143493Y-126209072D01*
X216666001Y-126731580D01*
X216666000Y-128571037D01*
X216376046Y-128742643D01*
X216460264Y-128585081D01*
X216539460Y-128324007D01*
X216566201Y-128052500D01*
X216539460Y-127780993D01*
X216460264Y-127519919D01*
X216331657Y-127279312D01*
X216158581Y-127068419D01*
X215947688Y-126895343D01*
X215707081Y-126766736D01*
X215446007Y-126687540D01*
X215242537Y-126667500D01*
X212700186Y-126667500D01*
X211697000Y-125664315D01*
X211697000Y-119699685D01*
X212118928Y-119277758D01*
X212118928Y-119856000D01*
G04 #@! TA.AperFunction,Conductor*
D20*
G36*
X212118928Y-119856000D02*
G01*
X212131188Y-119980482D01*
X212167498Y-120100180D01*
X212226463Y-120210494D01*
X212305815Y-120307185D01*
X212402506Y-120386537D01*
X212512820Y-120445502D01*
X212632518Y-120481812D01*
X212757000Y-120494072D01*
X216757000Y-120494072D01*
X216881482Y-120481812D01*
X217001180Y-120445502D01*
X217111494Y-120386537D01*
X217208185Y-120307185D01*
X217287537Y-120210494D01*
X217297000Y-120192790D01*
X217297000Y-121234210D01*
X217287537Y-121216506D01*
X217208185Y-121119815D01*
X217111494Y-121040463D01*
X217001180Y-120981498D01*
X216881482Y-120945188D01*
X216757000Y-120932928D01*
X212757000Y-120932928D01*
X212632518Y-120945188D01*
X212512820Y-120981498D01*
X212402506Y-121040463D01*
X212305815Y-121119815D01*
X212226463Y-121216506D01*
X212167498Y-121326820D01*
X212131188Y-121446518D01*
X212118928Y-121571000D01*
X212118928Y-125571000D01*
X212131188Y-125695482D01*
X212167498Y-125815180D01*
X212226463Y-125925494D01*
X212305815Y-126022185D01*
X212402506Y-126101537D01*
X212512820Y-126160502D01*
X212632518Y-126196812D01*
X212757000Y-126209072D01*
X216143493Y-126209072D01*
X216666001Y-126731580D01*
X216666000Y-128571037D01*
X216376046Y-128742643D01*
X216460264Y-128585081D01*
X216539460Y-128324007D01*
X216566201Y-128052500D01*
X216539460Y-127780993D01*
X216460264Y-127519919D01*
X216331657Y-127279312D01*
X216158581Y-127068419D01*
X215947688Y-126895343D01*
X215707081Y-126766736D01*
X215446007Y-126687540D01*
X215242537Y-126667500D01*
X212700186Y-126667500D01*
X211697000Y-125664315D01*
X211697000Y-119699685D01*
X212118928Y-119277758D01*
X212118928Y-119856000D01*
G37*
G04 #@! TD.AperFunction*
M02*
