G04 #@! TF.GenerationSoftware,KiCad,Pcbnew,(5.1.10)-1*
G04 #@! TF.CreationDate,2021-05-30T11:34:14-07:00*
G04 #@! TF.ProjectId,snowstake,736e6f77-7374-4616-9b65-2e6b69636164,0.1*
G04 #@! TF.SameCoordinates,Original*
G04 #@! TF.FileFunction,Paste,Top*
G04 #@! TF.FilePolarity,Positive*
%FSLAX46Y46*%
G04 Gerber Fmt 4.6, Leading zero omitted, Abs format (unit mm)*
G04 Created by KiCad (PCBNEW (5.1.10)-1) date 2021-05-30 11:34:14*
%MOMM*%
%LPD*%
G01*
G04 APERTURE LIST*
%ADD10R,0.800000X0.900000*%
G04 APERTURE END LIST*
G36*
G01*
X219044000Y-148065500D02*
X219044000Y-147590500D01*
G75*
G02*
X219281500Y-147353000I237500J0D01*
G01*
X219856500Y-147353000D01*
G75*
G02*
X220094000Y-147590500I0J-237500D01*
G01*
X220094000Y-148065500D01*
G75*
G02*
X219856500Y-148303000I-237500J0D01*
G01*
X219281500Y-148303000D01*
G75*
G02*
X219044000Y-148065500I0J237500D01*
G01*
G37*
G36*
G01*
X217294000Y-148065500D02*
X217294000Y-147590500D01*
G75*
G02*
X217531500Y-147353000I237500J0D01*
G01*
X218106500Y-147353000D01*
G75*
G02*
X218344000Y-147590500I0J-237500D01*
G01*
X218344000Y-148065500D01*
G75*
G02*
X218106500Y-148303000I-237500J0D01*
G01*
X217531500Y-148303000D01*
G75*
G02*
X217294000Y-148065500I0J237500D01*
G01*
G37*
G36*
G01*
X234372359Y-170814681D02*
X234609859Y-170403319D01*
G75*
G02*
X234934290Y-170316388I205681J-118750D01*
G01*
X235432254Y-170603888D01*
G75*
G02*
X235519185Y-170928319I-118750J-205681D01*
G01*
X235281685Y-171339681D01*
G75*
G02*
X234957254Y-171426612I-205681J118750D01*
G01*
X234459290Y-171139112D01*
G75*
G02*
X234372359Y-170814681I118750J205681D01*
G01*
G37*
G36*
G01*
X232856815Y-169939681D02*
X233094315Y-169528319D01*
G75*
G02*
X233418746Y-169441388I205681J-118750D01*
G01*
X233916710Y-169728888D01*
G75*
G02*
X234003641Y-170053319I-118750J-205681D01*
G01*
X233766141Y-170464681D01*
G75*
G02*
X233441710Y-170551612I-205681J118750D01*
G01*
X232943746Y-170264112D01*
G75*
G02*
X232856815Y-169939681I118750J205681D01*
G01*
G37*
G36*
G01*
X202962500Y-184754000D02*
X203437500Y-184754000D01*
G75*
G02*
X203675000Y-184991500I0J-237500D01*
G01*
X203675000Y-185566500D01*
G75*
G02*
X203437500Y-185804000I-237500J0D01*
G01*
X202962500Y-185804000D01*
G75*
G02*
X202725000Y-185566500I0J237500D01*
G01*
X202725000Y-184991500D01*
G75*
G02*
X202962500Y-184754000I237500J0D01*
G01*
G37*
G36*
G01*
X202962500Y-183004000D02*
X203437500Y-183004000D01*
G75*
G02*
X203675000Y-183241500I0J-237500D01*
G01*
X203675000Y-183816500D01*
G75*
G02*
X203437500Y-184054000I-237500J0D01*
G01*
X202962500Y-184054000D01*
G75*
G02*
X202725000Y-183816500I0J237500D01*
G01*
X202725000Y-183241500D01*
G75*
G02*
X202962500Y-183004000I237500J0D01*
G01*
G37*
G36*
G01*
X219933000Y-154542500D02*
X219933000Y-154067500D01*
G75*
G02*
X220170500Y-153830000I237500J0D01*
G01*
X220745500Y-153830000D01*
G75*
G02*
X220983000Y-154067500I0J-237500D01*
G01*
X220983000Y-154542500D01*
G75*
G02*
X220745500Y-154780000I-237500J0D01*
G01*
X220170500Y-154780000D01*
G75*
G02*
X219933000Y-154542500I0J237500D01*
G01*
G37*
G36*
G01*
X218183000Y-154542500D02*
X218183000Y-154067500D01*
G75*
G02*
X218420500Y-153830000I237500J0D01*
G01*
X218995500Y-153830000D01*
G75*
G02*
X219233000Y-154067500I0J-237500D01*
G01*
X219233000Y-154542500D01*
G75*
G02*
X218995500Y-154780000I-237500J0D01*
G01*
X218420500Y-154780000D01*
G75*
G02*
X218183000Y-154542500I0J237500D01*
G01*
G37*
G36*
G01*
X171790141Y-170149319D02*
X172027641Y-170560681D01*
G75*
G02*
X171940710Y-170885112I-205681J-118750D01*
G01*
X171442746Y-171172612D01*
G75*
G02*
X171118315Y-171085681I-118750J205681D01*
G01*
X170880815Y-170674319D01*
G75*
G02*
X170967746Y-170349888I205681J118750D01*
G01*
X171465710Y-170062388D01*
G75*
G02*
X171790141Y-170149319I118750J-205681D01*
G01*
G37*
G36*
G01*
X173305685Y-169274319D02*
X173543185Y-169685681D01*
G75*
G02*
X173456254Y-170010112I-205681J-118750D01*
G01*
X172958290Y-170297612D01*
G75*
G02*
X172633859Y-170210681I-118750J205681D01*
G01*
X172396359Y-169799319D01*
G75*
G02*
X172483290Y-169474888I205681J118750D01*
G01*
X172981254Y-169187388D01*
G75*
G02*
X173305685Y-169274319I118750J-205681D01*
G01*
G37*
G36*
G01*
X172535641Y-134493319D02*
X172298141Y-134904681D01*
G75*
G02*
X171973710Y-134991612I-205681J118750D01*
G01*
X171475746Y-134704112D01*
G75*
G02*
X171388815Y-134379681I118750J205681D01*
G01*
X171626315Y-133968319D01*
G75*
G02*
X171950746Y-133881388I205681J-118750D01*
G01*
X172448710Y-134168888D01*
G75*
G02*
X172535641Y-134493319I-118750J-205681D01*
G01*
G37*
G36*
G01*
X174051185Y-135368319D02*
X173813685Y-135779681D01*
G75*
G02*
X173489254Y-135866612I-205681J118750D01*
G01*
X172991290Y-135579112D01*
G75*
G02*
X172904359Y-135254681I118750J205681D01*
G01*
X173141859Y-134843319D01*
G75*
G02*
X173466290Y-134756388I205681J-118750D01*
G01*
X173964254Y-135043888D01*
G75*
G02*
X174051185Y-135368319I-118750J-205681D01*
G01*
G37*
G36*
G01*
X203437500Y-116617000D02*
X202962500Y-116617000D01*
G75*
G02*
X202725000Y-116379500I0J237500D01*
G01*
X202725000Y-115804500D01*
G75*
G02*
X202962500Y-115567000I237500J0D01*
G01*
X203437500Y-115567000D01*
G75*
G02*
X203675000Y-115804500I0J-237500D01*
G01*
X203675000Y-116379500D01*
G75*
G02*
X203437500Y-116617000I-237500J0D01*
G01*
G37*
G36*
G01*
X203437500Y-118367000D02*
X202962500Y-118367000D01*
G75*
G02*
X202725000Y-118129500I0J237500D01*
G01*
X202725000Y-117554500D01*
G75*
G02*
X202962500Y-117317000I237500J0D01*
G01*
X203437500Y-117317000D01*
G75*
G02*
X203675000Y-117554500I0J-237500D01*
G01*
X203675000Y-118129500D01*
G75*
G02*
X203437500Y-118367000I-237500J0D01*
G01*
G37*
G36*
G01*
X235244859Y-134142681D02*
X235007359Y-133731319D01*
G75*
G02*
X235094290Y-133406888I205681J118750D01*
G01*
X235592254Y-133119388D01*
G75*
G02*
X235916685Y-133206319I118750J-205681D01*
G01*
X236154185Y-133617681D01*
G75*
G02*
X236067254Y-133942112I-205681J-118750D01*
G01*
X235569290Y-134229612D01*
G75*
G02*
X235244859Y-134142681I-118750J205681D01*
G01*
G37*
G36*
G01*
X233729315Y-135017681D02*
X233491815Y-134606319D01*
G75*
G02*
X233578746Y-134281888I205681J118750D01*
G01*
X234076710Y-133994388D01*
G75*
G02*
X234401141Y-134081319I118750J-205681D01*
G01*
X234638641Y-134492681D01*
G75*
G02*
X234551710Y-134817112I-205681J-118750D01*
G01*
X234053746Y-135104612D01*
G75*
G02*
X233729315Y-135017681I-118750J205681D01*
G01*
G37*
D10*
X219583000Y-150257000D03*
X220533000Y-152257000D03*
X218633000Y-152257000D03*
G36*
G01*
X237786515Y-171845876D02*
X237330265Y-172636124D01*
G75*
G02*
X236997296Y-172725343I-211094J121875D01*
G01*
X236575108Y-172481593D01*
G75*
G02*
X236485889Y-172148624I121875J211094D01*
G01*
X236942139Y-171358376D01*
G75*
G02*
X237275108Y-171269157I211094J-121875D01*
G01*
X237697296Y-171512907D01*
G75*
G02*
X237786515Y-171845876I-121875J-211094D01*
G01*
G37*
G36*
G01*
X239410313Y-172783376D02*
X238954063Y-173573624D01*
G75*
G02*
X238621094Y-173662843I-211094J121875D01*
G01*
X238198906Y-173419093D01*
G75*
G02*
X238109687Y-173086124I121875J211094D01*
G01*
X238565937Y-172295876D01*
G75*
G02*
X238898906Y-172206657I211094J-121875D01*
G01*
X239321094Y-172450407D01*
G75*
G02*
X239410313Y-172783376I-121875J-211094D01*
G01*
G37*
G36*
G01*
X203656250Y-189542000D02*
X202743750Y-189542000D01*
G75*
G02*
X202500000Y-189298250I0J243750D01*
G01*
X202500000Y-188810750D01*
G75*
G02*
X202743750Y-188567000I243750J0D01*
G01*
X203656250Y-188567000D01*
G75*
G02*
X203900000Y-188810750I0J-243750D01*
G01*
X203900000Y-189298250D01*
G75*
G02*
X203656250Y-189542000I-243750J0D01*
G01*
G37*
G36*
G01*
X203656250Y-191417000D02*
X202743750Y-191417000D01*
G75*
G02*
X202500000Y-191173250I0J243750D01*
G01*
X202500000Y-190685750D01*
G75*
G02*
X202743750Y-190442000I243750J0D01*
G01*
X203656250Y-190442000D01*
G75*
G02*
X203900000Y-190685750I0J-243750D01*
G01*
X203900000Y-191173250D01*
G75*
G02*
X203656250Y-191417000I-243750J0D01*
G01*
G37*
G36*
G01*
X169019836Y-172636124D02*
X168563586Y-171845876D01*
G75*
G02*
X168652805Y-171512907I211094J121875D01*
G01*
X169074993Y-171269157D01*
G75*
G02*
X169407962Y-171358376I121875J-211094D01*
G01*
X169864212Y-172148624D01*
G75*
G02*
X169774993Y-172481593I-211094J-121875D01*
G01*
X169352805Y-172725343D01*
G75*
G02*
X169019836Y-172636124I-121875J211094D01*
G01*
G37*
G36*
G01*
X167396038Y-173573624D02*
X166939788Y-172783376D01*
G75*
G02*
X167029007Y-172450407I211094J121875D01*
G01*
X167451195Y-172206657D01*
G75*
G02*
X167784164Y-172295876I121875J-211094D01*
G01*
X168240414Y-173086124D01*
G75*
G02*
X168151195Y-173419093I-211094J-121875D01*
G01*
X167729007Y-173662843D01*
G75*
G02*
X167396038Y-173573624I-121875J211094D01*
G01*
G37*
G36*
G01*
X168944586Y-133208124D02*
X169400836Y-132417876D01*
G75*
G02*
X169733805Y-132328657I211094J-121875D01*
G01*
X170155993Y-132572407D01*
G75*
G02*
X170245212Y-132905376I-121875J-211094D01*
G01*
X169788962Y-133695624D01*
G75*
G02*
X169455993Y-133784843I-211094J121875D01*
G01*
X169033805Y-133541093D01*
G75*
G02*
X168944586Y-133208124I121875J211094D01*
G01*
G37*
G36*
G01*
X167320788Y-132270624D02*
X167777038Y-131480376D01*
G75*
G02*
X168110007Y-131391157I211094J-121875D01*
G01*
X168532195Y-131634907D01*
G75*
G02*
X168621414Y-131967876I-121875J-211094D01*
G01*
X168165164Y-132758124D01*
G75*
G02*
X167832195Y-132847343I-211094J121875D01*
G01*
X167410007Y-132603593D01*
G75*
G02*
X167320788Y-132270624I121875J211094D01*
G01*
G37*
G36*
G01*
X202743750Y-113734000D02*
X203656250Y-113734000D01*
G75*
G02*
X203900000Y-113977750I0J-243750D01*
G01*
X203900000Y-114465250D01*
G75*
G02*
X203656250Y-114709000I-243750J0D01*
G01*
X202743750Y-114709000D01*
G75*
G02*
X202500000Y-114465250I0J243750D01*
G01*
X202500000Y-113977750D01*
G75*
G02*
X202743750Y-113734000I243750J0D01*
G01*
G37*
G36*
G01*
X202743750Y-111859000D02*
X203656250Y-111859000D01*
G75*
G02*
X203900000Y-112102750I0J-243750D01*
G01*
X203900000Y-112590250D01*
G75*
G02*
X203656250Y-112834000I-243750J0D01*
G01*
X202743750Y-112834000D01*
G75*
G02*
X202500000Y-112590250I0J243750D01*
G01*
X202500000Y-112102750D01*
G75*
G02*
X202743750Y-111859000I243750J0D01*
G01*
G37*
G36*
G01*
X237761164Y-131909876D02*
X238217414Y-132700124D01*
G75*
G02*
X238128195Y-133033093I-211094J-121875D01*
G01*
X237706007Y-133276843D01*
G75*
G02*
X237373038Y-133187624I-121875J211094D01*
G01*
X236916788Y-132397376D01*
G75*
G02*
X237006007Y-132064407I211094J121875D01*
G01*
X237428195Y-131820657D01*
G75*
G02*
X237761164Y-131909876I121875J-211094D01*
G01*
G37*
G36*
G01*
X239384962Y-130972376D02*
X239841212Y-131762624D01*
G75*
G02*
X239751993Y-132095593I-211094J-121875D01*
G01*
X239329805Y-132339343D01*
G75*
G02*
X238996836Y-132250124I-121875J211094D01*
G01*
X238540586Y-131459876D01*
G75*
G02*
X238629805Y-131126907I211094J121875D01*
G01*
X239051993Y-130883157D01*
G75*
G02*
X239384962Y-130972376I121875J-211094D01*
G01*
G37*
G36*
G01*
X217437000Y-130800000D02*
X217437000Y-129550000D01*
G75*
G02*
X217687000Y-129300000I250000J0D01*
G01*
X218612000Y-129300000D01*
G75*
G02*
X218862000Y-129550000I0J-250000D01*
G01*
X218862000Y-130800000D01*
G75*
G02*
X218612000Y-131050000I-250000J0D01*
G01*
X217687000Y-131050000D01*
G75*
G02*
X217437000Y-130800000I0J250000D01*
G01*
G37*
G36*
G01*
X214462000Y-130800000D02*
X214462000Y-129550000D01*
G75*
G02*
X214712000Y-129300000I250000J0D01*
G01*
X215637000Y-129300000D01*
G75*
G02*
X215887000Y-129550000I0J-250000D01*
G01*
X215887000Y-130800000D01*
G75*
G02*
X215637000Y-131050000I-250000J0D01*
G01*
X214712000Y-131050000D01*
G75*
G02*
X214462000Y-130800000I0J250000D01*
G01*
G37*
G36*
G01*
X190897500Y-162910000D02*
X191372500Y-162910000D01*
G75*
G02*
X191610000Y-163147500I0J-237500D01*
G01*
X191610000Y-163722500D01*
G75*
G02*
X191372500Y-163960000I-237500J0D01*
G01*
X190897500Y-163960000D01*
G75*
G02*
X190660000Y-163722500I0J237500D01*
G01*
X190660000Y-163147500D01*
G75*
G02*
X190897500Y-162910000I237500J0D01*
G01*
G37*
G36*
G01*
X190897500Y-161160000D02*
X191372500Y-161160000D01*
G75*
G02*
X191610000Y-161397500I0J-237500D01*
G01*
X191610000Y-161972500D01*
G75*
G02*
X191372500Y-162210000I-237500J0D01*
G01*
X190897500Y-162210000D01*
G75*
G02*
X190660000Y-161972500I0J237500D01*
G01*
X190660000Y-161397500D01*
G75*
G02*
X190897500Y-161160000I237500J0D01*
G01*
G37*
G36*
G01*
X215629500Y-164242000D02*
X215154500Y-164242000D01*
G75*
G02*
X214917000Y-164004500I0J237500D01*
G01*
X214917000Y-163429500D01*
G75*
G02*
X215154500Y-163192000I237500J0D01*
G01*
X215629500Y-163192000D01*
G75*
G02*
X215867000Y-163429500I0J-237500D01*
G01*
X215867000Y-164004500D01*
G75*
G02*
X215629500Y-164242000I-237500J0D01*
G01*
G37*
G36*
G01*
X215629500Y-165992000D02*
X215154500Y-165992000D01*
G75*
G02*
X214917000Y-165754500I0J237500D01*
G01*
X214917000Y-165179500D01*
G75*
G02*
X215154500Y-164942000I237500J0D01*
G01*
X215629500Y-164942000D01*
G75*
G02*
X215867000Y-165179500I0J-237500D01*
G01*
X215867000Y-165754500D01*
G75*
G02*
X215629500Y-165992000I-237500J0D01*
G01*
G37*
M02*
