G04 #@! TF.GenerationSoftware,KiCad,Pcbnew,(5.1.10)-1*
G04 #@! TF.CreationDate,2021-05-29T20:37:25-07:00*
G04 #@! TF.ProjectId,snowstake,736e6f77-7374-4616-9b65-2e6b69636164,0.1*
G04 #@! TF.SameCoordinates,Original*
G04 #@! TF.FileFunction,Soldermask,Top*
G04 #@! TF.FilePolarity,Negative*
%FSLAX46Y46*%
G04 Gerber Fmt 4.6, Leading zero omitted, Abs format (unit mm)*
G04 Created by KiCad (PCBNEW (5.1.10)-1) date 2021-05-29 20:37:25*
%MOMM*%
%LPD*%
G01*
G04 APERTURE LIST*
%ADD10C,2.202000*%
%ADD11C,1.500000*%
%ADD12C,2.002000*%
%ADD13C,0.100000*%
G04 APERTURE END LIST*
D10*
X227584000Y-124968000D03*
X178816000Y-124968000D03*
D11*
X197358000Y-174498000D03*
X175514000Y-152400000D03*
X228092000Y-152400000D03*
G36*
G01*
X190201000Y-146295000D02*
X190201000Y-146821000D01*
G75*
G02*
X189938000Y-147084000I-263000J0D01*
G01*
X189312000Y-147084000D01*
G75*
G02*
X189049000Y-146821000I0J263000D01*
G01*
X189049000Y-146295000D01*
G75*
G02*
X189312000Y-146032000I263000J0D01*
G01*
X189938000Y-146032000D01*
G75*
G02*
X190201000Y-146295000I0J-263000D01*
G01*
G37*
G36*
G01*
X191951000Y-146295000D02*
X191951000Y-146821000D01*
G75*
G02*
X191688000Y-147084000I-263000J0D01*
G01*
X191062000Y-147084000D01*
G75*
G02*
X190799000Y-146821000I0J263000D01*
G01*
X190799000Y-146295000D01*
G75*
G02*
X191062000Y-146032000I263000J0D01*
G01*
X191688000Y-146032000D01*
G75*
G02*
X191951000Y-146295000I0J-263000D01*
G01*
G37*
G36*
G01*
X172583559Y-169847735D02*
X172846559Y-170303265D01*
G75*
G02*
X172750294Y-170662530I-227765J-131500D01*
G01*
X172208162Y-170975530D01*
G75*
G02*
X171848897Y-170879265I-131500J227765D01*
G01*
X171585897Y-170423735D01*
G75*
G02*
X171682162Y-170064470I227765J131500D01*
G01*
X172224294Y-169751470D01*
G75*
G02*
X172583559Y-169847735I131500J-227765D01*
G01*
G37*
G36*
G01*
X174099103Y-168972735D02*
X174362103Y-169428265D01*
G75*
G02*
X174265838Y-169787530I-227765J-131500D01*
G01*
X173723706Y-170100530D01*
G75*
G02*
X173364441Y-170004265I-131500J227765D01*
G01*
X173101441Y-169548735D01*
G75*
G02*
X173197706Y-169189470I227765J131500D01*
G01*
X173739838Y-168876470D01*
G75*
G02*
X174099103Y-168972735I131500J-227765D01*
G01*
G37*
G36*
G01*
X202937000Y-184703000D02*
X203463000Y-184703000D01*
G75*
G02*
X203726000Y-184966000I0J-263000D01*
G01*
X203726000Y-185592000D01*
G75*
G02*
X203463000Y-185855000I-263000J0D01*
G01*
X202937000Y-185855000D01*
G75*
G02*
X202674000Y-185592000I0J263000D01*
G01*
X202674000Y-184966000D01*
G75*
G02*
X202937000Y-184703000I263000J0D01*
G01*
G37*
G36*
G01*
X202937000Y-182953000D02*
X203463000Y-182953000D01*
G75*
G02*
X203726000Y-183216000I0J-263000D01*
G01*
X203726000Y-183842000D01*
G75*
G02*
X203463000Y-184105000I-263000J0D01*
G01*
X202937000Y-184105000D01*
G75*
G02*
X202674000Y-183842000I0J263000D01*
G01*
X202674000Y-183216000D01*
G75*
G02*
X202937000Y-182953000I263000J0D01*
G01*
G37*
G36*
G01*
X190037000Y-153171000D02*
X190037000Y-152645000D01*
G75*
G02*
X190300000Y-152382000I263000J0D01*
G01*
X190926000Y-152382000D01*
G75*
G02*
X191189000Y-152645000I0J-263000D01*
G01*
X191189000Y-153171000D01*
G75*
G02*
X190926000Y-153434000I-263000J0D01*
G01*
X190300000Y-153434000D01*
G75*
G02*
X190037000Y-153171000I0J263000D01*
G01*
G37*
G36*
G01*
X188287000Y-153171000D02*
X188287000Y-152645000D01*
G75*
G02*
X188550000Y-152382000I263000J0D01*
G01*
X189176000Y-152382000D01*
G75*
G02*
X189439000Y-152645000I0J-263000D01*
G01*
X189439000Y-153171000D01*
G75*
G02*
X189176000Y-153434000I-263000J0D01*
G01*
X188550000Y-153434000D01*
G75*
G02*
X188287000Y-153171000I0J263000D01*
G01*
G37*
G36*
G01*
X203463000Y-117049000D02*
X202937000Y-117049000D01*
G75*
G02*
X202674000Y-116786000I0J263000D01*
G01*
X202674000Y-116160000D01*
G75*
G02*
X202937000Y-115897000I263000J0D01*
G01*
X203463000Y-115897000D01*
G75*
G02*
X203726000Y-116160000I0J-263000D01*
G01*
X203726000Y-116786000D01*
G75*
G02*
X203463000Y-117049000I-263000J0D01*
G01*
G37*
G36*
G01*
X203463000Y-118799000D02*
X202937000Y-118799000D01*
G75*
G02*
X202674000Y-118536000I0J263000D01*
G01*
X202674000Y-117910000D01*
G75*
G02*
X202937000Y-117647000I263000J0D01*
G01*
X203463000Y-117647000D01*
G75*
G02*
X203726000Y-117910000I0J-263000D01*
G01*
X203726000Y-118536000D01*
G75*
G02*
X203463000Y-118799000I-263000J0D01*
G01*
G37*
G36*
G01*
X234315441Y-170811265D02*
X234578441Y-170355735D01*
G75*
G02*
X234937706Y-170259470I227765J-131500D01*
G01*
X235479838Y-170572470D01*
G75*
G02*
X235576103Y-170931735I-131500J-227765D01*
G01*
X235313103Y-171387265D01*
G75*
G02*
X234953838Y-171483530I-227765J131500D01*
G01*
X234411706Y-171170530D01*
G75*
G02*
X234315441Y-170811265I131500J227765D01*
G01*
G37*
G36*
G01*
X232799897Y-169936265D02*
X233062897Y-169480735D01*
G75*
G02*
X233422162Y-169384470I227765J-131500D01*
G01*
X233964294Y-169697470D01*
G75*
G02*
X234060559Y-170056735I-131500J-227765D01*
G01*
X233797559Y-170512265D01*
G75*
G02*
X233438294Y-170608530I-227765J131500D01*
G01*
X232896162Y-170295530D01*
G75*
G02*
X232799897Y-169936265I131500J227765D01*
G01*
G37*
G36*
G01*
X235340441Y-134190265D02*
X235077441Y-133734735D01*
G75*
G02*
X235173706Y-133375470I227765J131500D01*
G01*
X235715838Y-133062470D01*
G75*
G02*
X236075103Y-133158735I131500J-227765D01*
G01*
X236338103Y-133614265D01*
G75*
G02*
X236241838Y-133973530I-227765J-131500D01*
G01*
X235699706Y-134286530D01*
G75*
G02*
X235340441Y-134190265I-131500J227765D01*
G01*
G37*
G36*
G01*
X233824897Y-135065265D02*
X233561897Y-134609735D01*
G75*
G02*
X233658162Y-134250470I227765J131500D01*
G01*
X234200294Y-133937470D01*
G75*
G02*
X234559559Y-134033735I131500J-227765D01*
G01*
X234822559Y-134489265D01*
G75*
G02*
X234726294Y-134848530I-227765J-131500D01*
G01*
X234184162Y-135161530D01*
G75*
G02*
X233824897Y-135065265I-131500J227765D01*
G01*
G37*
G36*
G01*
X173354559Y-134750735D02*
X173091559Y-135206265D01*
G75*
G02*
X172732294Y-135302530I-227765J131500D01*
G01*
X172190162Y-134989530D01*
G75*
G02*
X172093897Y-134630265I131500J227765D01*
G01*
X172356897Y-134174735D01*
G75*
G02*
X172716162Y-134078470I227765J-131500D01*
G01*
X173258294Y-134391470D01*
G75*
G02*
X173354559Y-134750735I-131500J-227765D01*
G01*
G37*
G36*
G01*
X174870103Y-135625735D02*
X174607103Y-136081265D01*
G75*
G02*
X174247838Y-136177530I-227765J131500D01*
G01*
X173705706Y-135864530D01*
G75*
G02*
X173609441Y-135505265I131500J227765D01*
G01*
X173872441Y-135049735D01*
G75*
G02*
X174231706Y-134953470I227765J-131500D01*
G01*
X174773838Y-135266470D01*
G75*
G02*
X174870103Y-135625735I-131500J-227765D01*
G01*
G37*
G36*
G01*
X204007000Y-154695000D02*
X204007000Y-154169000D01*
G75*
G02*
X204270000Y-153906000I263000J0D01*
G01*
X204896000Y-153906000D01*
G75*
G02*
X205159000Y-154169000I0J-263000D01*
G01*
X205159000Y-154695000D01*
G75*
G02*
X204896000Y-154958000I-263000J0D01*
G01*
X204270000Y-154958000D01*
G75*
G02*
X204007000Y-154695000I0J263000D01*
G01*
G37*
G36*
G01*
X202257000Y-154695000D02*
X202257000Y-154169000D01*
G75*
G02*
X202520000Y-153906000I263000J0D01*
G01*
X203146000Y-153906000D01*
G75*
G02*
X203409000Y-154169000I0J-263000D01*
G01*
X203409000Y-154695000D01*
G75*
G02*
X203146000Y-154958000I-263000J0D01*
G01*
X202520000Y-154958000D01*
G75*
G02*
X202257000Y-154695000I0J263000D01*
G01*
G37*
G36*
G01*
X190138000Y-149361000D02*
X189338000Y-149361000D01*
G75*
G02*
X189287000Y-149310000I0J51000D01*
G01*
X189287000Y-148410000D01*
G75*
G02*
X189338000Y-148359000I51000J0D01*
G01*
X190138000Y-148359000D01*
G75*
G02*
X190189000Y-148410000I0J-51000D01*
G01*
X190189000Y-149310000D01*
G75*
G02*
X190138000Y-149361000I-51000J0D01*
G01*
G37*
G36*
G01*
X191088000Y-151361000D02*
X190288000Y-151361000D01*
G75*
G02*
X190237000Y-151310000I0J51000D01*
G01*
X190237000Y-150410000D01*
G75*
G02*
X190288000Y-150359000I51000J0D01*
G01*
X191088000Y-150359000D01*
G75*
G02*
X191139000Y-150410000I0J-51000D01*
G01*
X191139000Y-151310000D01*
G75*
G02*
X191088000Y-151361000I-51000J0D01*
G01*
G37*
G36*
G01*
X189188000Y-151361000D02*
X188388000Y-151361000D01*
G75*
G02*
X188337000Y-151310000I0J51000D01*
G01*
X188337000Y-150410000D01*
G75*
G02*
X188388000Y-150359000I51000J0D01*
G01*
X189188000Y-150359000D01*
G75*
G02*
X189239000Y-150410000I0J-51000D01*
G01*
X189239000Y-151310000D01*
G75*
G02*
X189188000Y-151361000I-51000J0D01*
G01*
G37*
G36*
G01*
X204108000Y-150885000D02*
X203308000Y-150885000D01*
G75*
G02*
X203257000Y-150834000I0J51000D01*
G01*
X203257000Y-149934000D01*
G75*
G02*
X203308000Y-149883000I51000J0D01*
G01*
X204108000Y-149883000D01*
G75*
G02*
X204159000Y-149934000I0J-51000D01*
G01*
X204159000Y-150834000D01*
G75*
G02*
X204108000Y-150885000I-51000J0D01*
G01*
G37*
G36*
G01*
X205058000Y-152885000D02*
X204258000Y-152885000D01*
G75*
G02*
X204207000Y-152834000I0J51000D01*
G01*
X204207000Y-151934000D01*
G75*
G02*
X204258000Y-151883000I51000J0D01*
G01*
X205058000Y-151883000D01*
G75*
G02*
X205109000Y-151934000I0J-51000D01*
G01*
X205109000Y-152834000D01*
G75*
G02*
X205058000Y-152885000I-51000J0D01*
G01*
G37*
G36*
G01*
X203158000Y-152885000D02*
X202358000Y-152885000D01*
G75*
G02*
X202307000Y-152834000I0J51000D01*
G01*
X202307000Y-151934000D01*
G75*
G02*
X202358000Y-151883000I51000J0D01*
G01*
X203158000Y-151883000D01*
G75*
G02*
X203209000Y-151934000I0J-51000D01*
G01*
X203209000Y-152834000D01*
G75*
G02*
X203158000Y-152885000I-51000J0D01*
G01*
G37*
G36*
G01*
X168988420Y-172683708D02*
X168506670Y-171849292D01*
G75*
G02*
X168605222Y-171481490I233177J134625D01*
G01*
X169071576Y-171212240D01*
G75*
G02*
X169439378Y-171310792I134625J-233177D01*
G01*
X169921128Y-172145208D01*
G75*
G02*
X169822576Y-172513010I-233177J-134625D01*
G01*
X169356222Y-172782260D01*
G75*
G02*
X168988420Y-172683708I-134625J233177D01*
G01*
G37*
G36*
G01*
X167364622Y-173621208D02*
X166882872Y-172786792D01*
G75*
G02*
X166981424Y-172418990I233177J134625D01*
G01*
X167447778Y-172149740D01*
G75*
G02*
X167815580Y-172248292I134625J-233177D01*
G01*
X168297330Y-173082708D01*
G75*
G02*
X168198778Y-173450510I-233177J-134625D01*
G01*
X167732424Y-173719760D01*
G75*
G02*
X167364622Y-173621208I-134625J233177D01*
G01*
G37*
G36*
G01*
X203681750Y-189593000D02*
X202718250Y-189593000D01*
G75*
G02*
X202449000Y-189323750I0J269250D01*
G01*
X202449000Y-188785250D01*
G75*
G02*
X202718250Y-188516000I269250J0D01*
G01*
X203681750Y-188516000D01*
G75*
G02*
X203951000Y-188785250I0J-269250D01*
G01*
X203951000Y-189323750D01*
G75*
G02*
X203681750Y-189593000I-269250J0D01*
G01*
G37*
G36*
G01*
X203681750Y-191468000D02*
X202718250Y-191468000D01*
G75*
G02*
X202449000Y-191198750I0J269250D01*
G01*
X202449000Y-190660250D01*
G75*
G02*
X202718250Y-190391000I269250J0D01*
G01*
X203681750Y-190391000D01*
G75*
G02*
X203951000Y-190660250I0J-269250D01*
G01*
X203951000Y-191198750D01*
G75*
G02*
X203681750Y-191468000I-269250J0D01*
G01*
G37*
G36*
G01*
X202718250Y-113683000D02*
X203681750Y-113683000D01*
G75*
G02*
X203951000Y-113952250I0J-269250D01*
G01*
X203951000Y-114490750D01*
G75*
G02*
X203681750Y-114760000I-269250J0D01*
G01*
X202718250Y-114760000D01*
G75*
G02*
X202449000Y-114490750I0J269250D01*
G01*
X202449000Y-113952250D01*
G75*
G02*
X202718250Y-113683000I269250J0D01*
G01*
G37*
G36*
G01*
X202718250Y-111808000D02*
X203681750Y-111808000D01*
G75*
G02*
X203951000Y-112077250I0J-269250D01*
G01*
X203951000Y-112615750D01*
G75*
G02*
X203681750Y-112885000I-269250J0D01*
G01*
X202718250Y-112885000D01*
G75*
G02*
X202449000Y-112615750I0J269250D01*
G01*
X202449000Y-112077250D01*
G75*
G02*
X202718250Y-111808000I269250J0D01*
G01*
G37*
G36*
G01*
X237843431Y-171849292D02*
X237361681Y-172683708D01*
G75*
G02*
X236993879Y-172782260I-233177J134625D01*
G01*
X236527525Y-172513010D01*
G75*
G02*
X236428973Y-172145208I134625J233177D01*
G01*
X236910723Y-171310792D01*
G75*
G02*
X237278525Y-171212240I233177J-134625D01*
G01*
X237744879Y-171481490D01*
G75*
G02*
X237843431Y-171849292I-134625J-233177D01*
G01*
G37*
G36*
G01*
X239467229Y-172786792D02*
X238985479Y-173621208D01*
G75*
G02*
X238617677Y-173719760I-233177J134625D01*
G01*
X238151323Y-173450510D01*
G75*
G02*
X238052771Y-173082708I134625J233177D01*
G01*
X238534521Y-172248292D01*
G75*
G02*
X238902323Y-172149740I233177J-134625D01*
G01*
X239368677Y-172418990D01*
G75*
G02*
X239467229Y-172786792I-134625J-233177D01*
G01*
G37*
G36*
G01*
X237919580Y-131862292D02*
X238401330Y-132696708D01*
G75*
G02*
X238302778Y-133064510I-233177J-134625D01*
G01*
X237836424Y-133333760D01*
G75*
G02*
X237468622Y-133235208I-134625J233177D01*
G01*
X236986872Y-132400792D01*
G75*
G02*
X237085424Y-132032990I233177J134625D01*
G01*
X237551778Y-131763740D01*
G75*
G02*
X237919580Y-131862292I134625J-233177D01*
G01*
G37*
G36*
G01*
X239543378Y-130924792D02*
X240025128Y-131759208D01*
G75*
G02*
X239926576Y-132127010I-233177J-134625D01*
G01*
X239460222Y-132396260D01*
G75*
G02*
X239092420Y-132297708I-134625J233177D01*
G01*
X238610670Y-131463292D01*
G75*
G02*
X238709222Y-131095490I233177J134625D01*
G01*
X239175576Y-130826240D01*
G75*
G02*
X239543378Y-130924792I134625J-233177D01*
G01*
G37*
G36*
G01*
X169014670Y-133204708D02*
X169496420Y-132370292D01*
G75*
G02*
X169864222Y-132271740I233177J-134625D01*
G01*
X170330576Y-132540990D01*
G75*
G02*
X170429128Y-132908792I-134625J-233177D01*
G01*
X169947378Y-133743208D01*
G75*
G02*
X169579576Y-133841760I-233177J134625D01*
G01*
X169113222Y-133572510D01*
G75*
G02*
X169014670Y-133204708I134625J233177D01*
G01*
G37*
G36*
G01*
X167390872Y-132267208D02*
X167872622Y-131432792D01*
G75*
G02*
X168240424Y-131334240I233177J-134625D01*
G01*
X168706778Y-131603490D01*
G75*
G02*
X168805330Y-131971292I-134625J-233177D01*
G01*
X168323580Y-132805708D01*
G75*
G02*
X167955778Y-132904260I-233177J134625D01*
G01*
X167489424Y-132635010D01*
G75*
G02*
X167390872Y-132267208I134625J233177D01*
G01*
G37*
G36*
G01*
X190237000Y-164891000D02*
X190763000Y-164891000D01*
G75*
G02*
X191026000Y-165154000I0J-263000D01*
G01*
X191026000Y-165780000D01*
G75*
G02*
X190763000Y-166043000I-263000J0D01*
G01*
X190237000Y-166043000D01*
G75*
G02*
X189974000Y-165780000I0J263000D01*
G01*
X189974000Y-165154000D01*
G75*
G02*
X190237000Y-164891000I263000J0D01*
G01*
G37*
G36*
G01*
X190237000Y-163141000D02*
X190763000Y-163141000D01*
G75*
G02*
X191026000Y-163404000I0J-263000D01*
G01*
X191026000Y-164030000D01*
G75*
G02*
X190763000Y-164293000I-263000J0D01*
G01*
X190237000Y-164293000D01*
G75*
G02*
X189974000Y-164030000I0J263000D01*
G01*
X189974000Y-163404000D01*
G75*
G02*
X190237000Y-163141000I263000J0D01*
G01*
G37*
G36*
G01*
X215655000Y-164293000D02*
X215129000Y-164293000D01*
G75*
G02*
X214866000Y-164030000I0J263000D01*
G01*
X214866000Y-163404000D01*
G75*
G02*
X215129000Y-163141000I263000J0D01*
G01*
X215655000Y-163141000D01*
G75*
G02*
X215918000Y-163404000I0J-263000D01*
G01*
X215918000Y-164030000D01*
G75*
G02*
X215655000Y-164293000I-263000J0D01*
G01*
G37*
G36*
G01*
X215655000Y-166043000D02*
X215129000Y-166043000D01*
G75*
G02*
X214866000Y-165780000I0J263000D01*
G01*
X214866000Y-165154000D01*
G75*
G02*
X215129000Y-164891000I263000J0D01*
G01*
X215655000Y-164891000D01*
G75*
G02*
X215918000Y-165154000I0J-263000D01*
G01*
X215918000Y-165780000D01*
G75*
G02*
X215655000Y-166043000I-263000J0D01*
G01*
G37*
D12*
X194307460Y-137910280D03*
X194307460Y-140450280D03*
X194307460Y-142990280D03*
X194307460Y-145530280D03*
X194307460Y-148070280D03*
X194307460Y-150610280D03*
X194307460Y-153150280D03*
X194307460Y-155690280D03*
X194307460Y-158230280D03*
X194307460Y-160770280D03*
X194307460Y-163310280D03*
X194307460Y-165850280D03*
X212087460Y-137910280D03*
X212087460Y-140450280D03*
X212087460Y-142990280D03*
X212087460Y-145530280D03*
X212087460Y-148070280D03*
X212087460Y-150610280D03*
X212087460Y-153150280D03*
X212087460Y-155690280D03*
X212087460Y-158230280D03*
X212087460Y-160770280D03*
X212087460Y-163310280D03*
G36*
G01*
X213088460Y-164900280D02*
X213088460Y-166800280D01*
G75*
G02*
X213037460Y-166851280I-51000J0D01*
G01*
X211137460Y-166851280D01*
G75*
G02*
X211086460Y-166800280I0J51000D01*
G01*
X211086460Y-164900280D01*
G75*
G02*
X211137460Y-164849280I51000J0D01*
G01*
X213037460Y-164849280D01*
G75*
G02*
X213088460Y-164900280I0J-51000D01*
G01*
G37*
D13*
G36*
X239418482Y-172445435D02*
G01*
X239418647Y-172445541D01*
X239456514Y-172472676D01*
X239456809Y-172472935D01*
X239484435Y-172502432D01*
X239484673Y-172502743D01*
X239506013Y-172537059D01*
X239506187Y-172537411D01*
X239520423Y-172575236D01*
X239520524Y-172575614D01*
X239527106Y-172615481D01*
X239527132Y-172615872D01*
X239525810Y-172656260D01*
X239525759Y-172656649D01*
X239516580Y-172696013D01*
X239516454Y-172696384D01*
X239497233Y-172738806D01*
X239497143Y-172738981D01*
X239438911Y-172839841D01*
X238959031Y-173671019D01*
X238958925Y-173671184D01*
X238931795Y-173709042D01*
X238931536Y-173709337D01*
X238902038Y-173736965D01*
X238901727Y-173737203D01*
X238867411Y-173758543D01*
X238867059Y-173758717D01*
X238829234Y-173772953D01*
X238828856Y-173773054D01*
X238788989Y-173779636D01*
X238788598Y-173779662D01*
X238748210Y-173778340D01*
X238747821Y-173778289D01*
X238708460Y-173769111D01*
X238708089Y-173768985D01*
X238665657Y-173749759D01*
X238665482Y-173749669D01*
X238616681Y-173721494D01*
X238615681Y-173719762D01*
X238616681Y-173718030D01*
X238618506Y-173717940D01*
X238666399Y-173739641D01*
X238717421Y-173751537D01*
X238769782Y-173753252D01*
X238821466Y-173744719D01*
X238870503Y-173726262D01*
X238914986Y-173698600D01*
X238953223Y-173662788D01*
X238983798Y-173620120D01*
X239435447Y-172837841D01*
X239465447Y-172785878D01*
X239487110Y-172738070D01*
X239499006Y-172687048D01*
X239500721Y-172634687D01*
X239492188Y-172583003D01*
X239473731Y-172533966D01*
X239446069Y-172489483D01*
X239410257Y-172451246D01*
X239367589Y-172420671D01*
X239247352Y-172351252D01*
X239246352Y-172349520D01*
X239247352Y-172347788D01*
X239249352Y-172347788D01*
X239418482Y-172445435D01*
G37*
G36*
X167103749Y-172349520D02*
G01*
X167102749Y-172351252D01*
X166982512Y-172420671D01*
X166939844Y-172451246D01*
X166904032Y-172489483D01*
X166876370Y-172533966D01*
X166857913Y-172583003D01*
X166849380Y-172634687D01*
X166851095Y-172687048D01*
X166862991Y-172738070D01*
X166884654Y-172785878D01*
X166914654Y-172837841D01*
X167366303Y-173620120D01*
X167396878Y-173662788D01*
X167435115Y-173698600D01*
X167479598Y-173726262D01*
X167528635Y-173744719D01*
X167580319Y-173753252D01*
X167632680Y-173751537D01*
X167683702Y-173739641D01*
X167731595Y-173717940D01*
X167733585Y-173718136D01*
X167734410Y-173719958D01*
X167733420Y-173721494D01*
X167684619Y-173749669D01*
X167684444Y-173749759D01*
X167642012Y-173768985D01*
X167641641Y-173769111D01*
X167602280Y-173778289D01*
X167601891Y-173778340D01*
X167561503Y-173779662D01*
X167561112Y-173779636D01*
X167521245Y-173773054D01*
X167520867Y-173772953D01*
X167483042Y-173758717D01*
X167482690Y-173758543D01*
X167448374Y-173737203D01*
X167448063Y-173736965D01*
X167418565Y-173709337D01*
X167418306Y-173709042D01*
X167391176Y-173671184D01*
X167391070Y-173671019D01*
X166911190Y-172839841D01*
X166852958Y-172738981D01*
X166852868Y-172738806D01*
X166833647Y-172696384D01*
X166833521Y-172696013D01*
X166824342Y-172656649D01*
X166824291Y-172656260D01*
X166822969Y-172615872D01*
X166822995Y-172615481D01*
X166829577Y-172575614D01*
X166829678Y-172575236D01*
X166843914Y-172537411D01*
X166844088Y-172537059D01*
X166865428Y-172502743D01*
X166865666Y-172502432D01*
X166893292Y-172472935D01*
X166893587Y-172472676D01*
X166931454Y-172445541D01*
X166931619Y-172445435D01*
X167100749Y-172347788D01*
X167102749Y-172347788D01*
X167103749Y-172349520D01*
G37*
G36*
X167619090Y-172089864D02*
G01*
X167658957Y-172096446D01*
X167659335Y-172096547D01*
X167697160Y-172110783D01*
X167697512Y-172110957D01*
X167731828Y-172132297D01*
X167732139Y-172132535D01*
X167761637Y-172160163D01*
X167761896Y-172160458D01*
X167789026Y-172198316D01*
X167789132Y-172198481D01*
X168327244Y-173130519D01*
X168327334Y-173130694D01*
X168346555Y-173173116D01*
X168346681Y-173173487D01*
X168355860Y-173212851D01*
X168355911Y-173213240D01*
X168357233Y-173253628D01*
X168357207Y-173254019D01*
X168350625Y-173293886D01*
X168350524Y-173294264D01*
X168336288Y-173332089D01*
X168336114Y-173332441D01*
X168314774Y-173366757D01*
X168314536Y-173367068D01*
X168286910Y-173396565D01*
X168286615Y-173396824D01*
X168248748Y-173423959D01*
X168248583Y-173424065D01*
X167966601Y-173586867D01*
X167964601Y-173586867D01*
X167963601Y-173585135D01*
X167964601Y-173583403D01*
X168197690Y-173448829D01*
X168240358Y-173418254D01*
X168276170Y-173380017D01*
X168303832Y-173335534D01*
X168322289Y-173286497D01*
X168330822Y-173234813D01*
X168329107Y-173182452D01*
X168317211Y-173131430D01*
X168295548Y-173083622D01*
X167813899Y-172249380D01*
X167783324Y-172206712D01*
X167745087Y-172170900D01*
X167700604Y-172143238D01*
X167651567Y-172124781D01*
X167599883Y-172116248D01*
X167547522Y-172117963D01*
X167496500Y-172129859D01*
X167448607Y-172151560D01*
X167446617Y-172151364D01*
X167445792Y-172149542D01*
X167446782Y-172148006D01*
X167495583Y-172119831D01*
X167495758Y-172119741D01*
X167538190Y-172100515D01*
X167538561Y-172100389D01*
X167577922Y-172091211D01*
X167578311Y-172091160D01*
X167618699Y-172089838D01*
X167619090Y-172089864D01*
G37*
G36*
X238771790Y-172091160D02*
G01*
X238772179Y-172091211D01*
X238811540Y-172100389D01*
X238811911Y-172100515D01*
X238854343Y-172119741D01*
X238854518Y-172119831D01*
X238903319Y-172148006D01*
X238904319Y-172149738D01*
X238903319Y-172151470D01*
X238901494Y-172151560D01*
X238853601Y-172129859D01*
X238802579Y-172117963D01*
X238750218Y-172116248D01*
X238698534Y-172124781D01*
X238649497Y-172143238D01*
X238605014Y-172170900D01*
X238566777Y-172206712D01*
X238536202Y-172249380D01*
X238054553Y-173083622D01*
X238032890Y-173131430D01*
X238020994Y-173182452D01*
X238019279Y-173234813D01*
X238027812Y-173286497D01*
X238046269Y-173335534D01*
X238073931Y-173380017D01*
X238109743Y-173418254D01*
X238152411Y-173448829D01*
X238385500Y-173583403D01*
X238386500Y-173585135D01*
X238385500Y-173586867D01*
X238383500Y-173586867D01*
X238101518Y-173424065D01*
X238101353Y-173423959D01*
X238063486Y-173396824D01*
X238063191Y-173396565D01*
X238035565Y-173367068D01*
X238035327Y-173366757D01*
X238013987Y-173332441D01*
X238013813Y-173332089D01*
X237999577Y-173294264D01*
X237999476Y-173293886D01*
X237992894Y-173254019D01*
X237992868Y-173253628D01*
X237994190Y-173213240D01*
X237994241Y-173212851D01*
X238003420Y-173173487D01*
X238003546Y-173173116D01*
X238022767Y-173130694D01*
X238022857Y-173130519D01*
X238560969Y-172198481D01*
X238561075Y-172198316D01*
X238588205Y-172160458D01*
X238588464Y-172160163D01*
X238617962Y-172132535D01*
X238618273Y-172132297D01*
X238652589Y-172110957D01*
X238652941Y-172110783D01*
X238690766Y-172096547D01*
X238691144Y-172096446D01*
X238731011Y-172089864D01*
X238731402Y-172089838D01*
X238771790Y-172091160D01*
G37*
G36*
X237794684Y-171507935D02*
G01*
X237794849Y-171508041D01*
X237832716Y-171535176D01*
X237833011Y-171535435D01*
X237860637Y-171564932D01*
X237860875Y-171565243D01*
X237882215Y-171599559D01*
X237882389Y-171599911D01*
X237896625Y-171637736D01*
X237896726Y-171638114D01*
X237903308Y-171677981D01*
X237903334Y-171678372D01*
X237902012Y-171718760D01*
X237901961Y-171719149D01*
X237892782Y-171758513D01*
X237892656Y-171758884D01*
X237873435Y-171801306D01*
X237873345Y-171801481D01*
X237335233Y-172733519D01*
X237335127Y-172733684D01*
X237307997Y-172771542D01*
X237307738Y-172771837D01*
X237278240Y-172799465D01*
X237277929Y-172799703D01*
X237243613Y-172821043D01*
X237243261Y-172821217D01*
X237205436Y-172835453D01*
X237205058Y-172835554D01*
X237165191Y-172842136D01*
X237164800Y-172842162D01*
X237124412Y-172840840D01*
X237124023Y-172840789D01*
X237084662Y-172831611D01*
X237084291Y-172831485D01*
X237041859Y-172812259D01*
X237041684Y-172812169D01*
X236992883Y-172783994D01*
X236991883Y-172782262D01*
X236992883Y-172780530D01*
X236994708Y-172780440D01*
X237042601Y-172802141D01*
X237093623Y-172814037D01*
X237145984Y-172815752D01*
X237197668Y-172807219D01*
X237246705Y-172788762D01*
X237291188Y-172761100D01*
X237329425Y-172725288D01*
X237360000Y-172682620D01*
X237841649Y-171848378D01*
X237863312Y-171800570D01*
X237875208Y-171749548D01*
X237876923Y-171697187D01*
X237868390Y-171645503D01*
X237849933Y-171596466D01*
X237822271Y-171551983D01*
X237786459Y-171513746D01*
X237743791Y-171483171D01*
X237580677Y-171388997D01*
X237579677Y-171387265D01*
X237580677Y-171385533D01*
X237582677Y-171385533D01*
X237794684Y-171507935D01*
G37*
G36*
X168770424Y-171387265D02*
G01*
X168769424Y-171388997D01*
X168606310Y-171483171D01*
X168563642Y-171513746D01*
X168527830Y-171551983D01*
X168500168Y-171596466D01*
X168481711Y-171645503D01*
X168473178Y-171697187D01*
X168474893Y-171749548D01*
X168486789Y-171800570D01*
X168508452Y-171848378D01*
X168990101Y-172682620D01*
X169020676Y-172725288D01*
X169058913Y-172761100D01*
X169103396Y-172788762D01*
X169152433Y-172807219D01*
X169204117Y-172815752D01*
X169256478Y-172814037D01*
X169307500Y-172802141D01*
X169355393Y-172780440D01*
X169357383Y-172780636D01*
X169358208Y-172782458D01*
X169357218Y-172783994D01*
X169308417Y-172812169D01*
X169308242Y-172812259D01*
X169265810Y-172831485D01*
X169265439Y-172831611D01*
X169226078Y-172840789D01*
X169225689Y-172840840D01*
X169185301Y-172842162D01*
X169184910Y-172842136D01*
X169145043Y-172835554D01*
X169144665Y-172835453D01*
X169106840Y-172821217D01*
X169106488Y-172821043D01*
X169072172Y-172799703D01*
X169071861Y-172799465D01*
X169042363Y-172771837D01*
X169042104Y-172771542D01*
X169014974Y-172733684D01*
X169014868Y-172733519D01*
X168476756Y-171801481D01*
X168476666Y-171801306D01*
X168457445Y-171758884D01*
X168457319Y-171758513D01*
X168448140Y-171719149D01*
X168448089Y-171718760D01*
X168446767Y-171678372D01*
X168446793Y-171677981D01*
X168453375Y-171638114D01*
X168453476Y-171637736D01*
X168467712Y-171599911D01*
X168467886Y-171599559D01*
X168489226Y-171565243D01*
X168489464Y-171564932D01*
X168517090Y-171535435D01*
X168517385Y-171535176D01*
X168555252Y-171508041D01*
X168555417Y-171507935D01*
X168767424Y-171385533D01*
X168769424Y-171385533D01*
X168770424Y-171387265D01*
G37*
G36*
X169242888Y-171152364D02*
G01*
X169282755Y-171158946D01*
X169283133Y-171159047D01*
X169320958Y-171173283D01*
X169321310Y-171173457D01*
X169355626Y-171194797D01*
X169355937Y-171195035D01*
X169385435Y-171222663D01*
X169385694Y-171222958D01*
X169412824Y-171260816D01*
X169412930Y-171260981D01*
X169892810Y-172092159D01*
X169951042Y-172193019D01*
X169951132Y-172193194D01*
X169970353Y-172235616D01*
X169970479Y-172235987D01*
X169979658Y-172275351D01*
X169979709Y-172275740D01*
X169981031Y-172316128D01*
X169981005Y-172316519D01*
X169974423Y-172356386D01*
X169974322Y-172356764D01*
X169960086Y-172394589D01*
X169959912Y-172394941D01*
X169938572Y-172429257D01*
X169938334Y-172429568D01*
X169910708Y-172459065D01*
X169910413Y-172459324D01*
X169872546Y-172486459D01*
X169872381Y-172486565D01*
X169714579Y-172577672D01*
X169712579Y-172577672D01*
X169711579Y-172575940D01*
X169712579Y-172574208D01*
X169821488Y-172511329D01*
X169864156Y-172480754D01*
X169899968Y-172442517D01*
X169927630Y-172398034D01*
X169946087Y-172348997D01*
X169954620Y-172297313D01*
X169952905Y-172244952D01*
X169941009Y-172193930D01*
X169919346Y-172146122D01*
X169889346Y-172094159D01*
X169437697Y-171311880D01*
X169407122Y-171269212D01*
X169368885Y-171233400D01*
X169324402Y-171205738D01*
X169275365Y-171187281D01*
X169223681Y-171178748D01*
X169171320Y-171180463D01*
X169120298Y-171192359D01*
X169072405Y-171214060D01*
X169070415Y-171213864D01*
X169069590Y-171212042D01*
X169070580Y-171210506D01*
X169119381Y-171182331D01*
X169119556Y-171182241D01*
X169161988Y-171163015D01*
X169162359Y-171162889D01*
X169201720Y-171153711D01*
X169202109Y-171153660D01*
X169242497Y-171152338D01*
X169242888Y-171152364D01*
G37*
G36*
X237147992Y-171153660D02*
G01*
X237148381Y-171153711D01*
X237187742Y-171162889D01*
X237188113Y-171163015D01*
X237230545Y-171182241D01*
X237230720Y-171182331D01*
X237279521Y-171210506D01*
X237280521Y-171212238D01*
X237279521Y-171213970D01*
X237277696Y-171214060D01*
X237229803Y-171192359D01*
X237178781Y-171180463D01*
X237126420Y-171178748D01*
X237074736Y-171187281D01*
X237025699Y-171205738D01*
X236981216Y-171233400D01*
X236942979Y-171269212D01*
X236912404Y-171311880D01*
X236460755Y-172094159D01*
X236430755Y-172146122D01*
X236409092Y-172193930D01*
X236397196Y-172244952D01*
X236395481Y-172297313D01*
X236404014Y-172348997D01*
X236422471Y-172398034D01*
X236450133Y-172442517D01*
X236485945Y-172480754D01*
X236528613Y-172511329D01*
X236637522Y-172574208D01*
X236638522Y-172575940D01*
X236637522Y-172577672D01*
X236635522Y-172577672D01*
X236477720Y-172486565D01*
X236477555Y-172486459D01*
X236439688Y-172459324D01*
X236439393Y-172459065D01*
X236411767Y-172429568D01*
X236411529Y-172429257D01*
X236390189Y-172394941D01*
X236390015Y-172394589D01*
X236375779Y-172356764D01*
X236375678Y-172356386D01*
X236369096Y-172316519D01*
X236369070Y-172316128D01*
X236370392Y-172275740D01*
X236370443Y-172275351D01*
X236379622Y-172235987D01*
X236379748Y-172235616D01*
X236398969Y-172193194D01*
X236399059Y-172193019D01*
X236457291Y-172092159D01*
X236937171Y-171260981D01*
X236937277Y-171260816D01*
X236964407Y-171222958D01*
X236964666Y-171222663D01*
X236994164Y-171195035D01*
X236994475Y-171194797D01*
X237028791Y-171173457D01*
X237029143Y-171173283D01*
X237066968Y-171159047D01*
X237067346Y-171158946D01*
X237107213Y-171152364D01*
X237107604Y-171152338D01*
X237147992Y-171153660D01*
G37*
G36*
X170380381Y-132567435D02*
G01*
X170380546Y-132567541D01*
X170418413Y-132594676D01*
X170418708Y-132594935D01*
X170446334Y-132624432D01*
X170446572Y-132624743D01*
X170467912Y-132659059D01*
X170468086Y-132659411D01*
X170482322Y-132697236D01*
X170482423Y-132697614D01*
X170489005Y-132737481D01*
X170489031Y-132737872D01*
X170487709Y-132778260D01*
X170487658Y-132778649D01*
X170478479Y-132818013D01*
X170478353Y-132818384D01*
X170459132Y-132860806D01*
X170459042Y-132860981D01*
X170400810Y-132961841D01*
X169920930Y-133793019D01*
X169920824Y-133793184D01*
X169893694Y-133831042D01*
X169893435Y-133831337D01*
X169863937Y-133858965D01*
X169863626Y-133859203D01*
X169829310Y-133880543D01*
X169828958Y-133880717D01*
X169791133Y-133894953D01*
X169790755Y-133895054D01*
X169750888Y-133901636D01*
X169750497Y-133901662D01*
X169710109Y-133900340D01*
X169709720Y-133900289D01*
X169670359Y-133891111D01*
X169669988Y-133890985D01*
X169627556Y-133871759D01*
X169627381Y-133871669D01*
X169578580Y-133843494D01*
X169577580Y-133841762D01*
X169578580Y-133840030D01*
X169580405Y-133839940D01*
X169628298Y-133861641D01*
X169679320Y-133873537D01*
X169731681Y-133875252D01*
X169783365Y-133866719D01*
X169832402Y-133848262D01*
X169876885Y-133820600D01*
X169915122Y-133784788D01*
X169945697Y-133742120D01*
X170397346Y-132959841D01*
X170427346Y-132907878D01*
X170449009Y-132860070D01*
X170460905Y-132809048D01*
X170462620Y-132756687D01*
X170454087Y-132705003D01*
X170435630Y-132655966D01*
X170407968Y-132611483D01*
X170372156Y-132573246D01*
X170329488Y-132542671D01*
X170209251Y-132473252D01*
X170208251Y-132471520D01*
X170209251Y-132469788D01*
X170211251Y-132469788D01*
X170380381Y-132567435D01*
G37*
G36*
X169733689Y-132213160D02*
G01*
X169734078Y-132213211D01*
X169773439Y-132222389D01*
X169773810Y-132222515D01*
X169816242Y-132241741D01*
X169816417Y-132241831D01*
X169865218Y-132270006D01*
X169866218Y-132271738D01*
X169865218Y-132273470D01*
X169863393Y-132273560D01*
X169815500Y-132251859D01*
X169764478Y-132239963D01*
X169712117Y-132238248D01*
X169660433Y-132246781D01*
X169611396Y-132265238D01*
X169566913Y-132292900D01*
X169528676Y-132328712D01*
X169498101Y-132371380D01*
X169071121Y-133110931D01*
X169016452Y-133205622D01*
X168994789Y-133253430D01*
X168982893Y-133304452D01*
X168981178Y-133356813D01*
X168989711Y-133408497D01*
X169008168Y-133457534D01*
X169035830Y-133502017D01*
X169071642Y-133540254D01*
X169114310Y-133570829D01*
X169226897Y-133635831D01*
X169227897Y-133637563D01*
X169226897Y-133639295D01*
X169224897Y-133639295D01*
X169063417Y-133546065D01*
X169063252Y-133545959D01*
X169025385Y-133518824D01*
X169025090Y-133518565D01*
X168997464Y-133489068D01*
X168997226Y-133488757D01*
X168975886Y-133454441D01*
X168975712Y-133454089D01*
X168961476Y-133416264D01*
X168961375Y-133415886D01*
X168954793Y-133376019D01*
X168954767Y-133375628D01*
X168956089Y-133335240D01*
X168956140Y-133334851D01*
X168965319Y-133295487D01*
X168965445Y-133295116D01*
X168984666Y-133252694D01*
X168984756Y-133252519D01*
X169067657Y-133108931D01*
X169522868Y-132320481D01*
X169522974Y-132320316D01*
X169550104Y-132282458D01*
X169550363Y-132282163D01*
X169579861Y-132254535D01*
X169580172Y-132254297D01*
X169614488Y-132232957D01*
X169614840Y-132232783D01*
X169652665Y-132218547D01*
X169653043Y-132218446D01*
X169692910Y-132211864D01*
X169693301Y-132211838D01*
X169733689Y-132213160D01*
G37*
G36*
X237278831Y-131922481D02*
G01*
X237277831Y-131924213D01*
X237086512Y-132034671D01*
X237043844Y-132065246D01*
X237008032Y-132103483D01*
X236980370Y-132147966D01*
X236961913Y-132197003D01*
X236953380Y-132248687D01*
X236955095Y-132301048D01*
X236966991Y-132352070D01*
X236988654Y-132399878D01*
X237018654Y-132451841D01*
X237470303Y-133234120D01*
X237500878Y-133276788D01*
X237539115Y-133312600D01*
X237583598Y-133340262D01*
X237632635Y-133358719D01*
X237684319Y-133367252D01*
X237736680Y-133365537D01*
X237787702Y-133353641D01*
X237835595Y-133331940D01*
X237837585Y-133332136D01*
X237838410Y-133333958D01*
X237837420Y-133335494D01*
X237788619Y-133363669D01*
X237788444Y-133363759D01*
X237746012Y-133382985D01*
X237745641Y-133383111D01*
X237706280Y-133392289D01*
X237705891Y-133392340D01*
X237665503Y-133393662D01*
X237665112Y-133393636D01*
X237625245Y-133387054D01*
X237624867Y-133386953D01*
X237587042Y-133372717D01*
X237586690Y-133372543D01*
X237552374Y-133351203D01*
X237552063Y-133350965D01*
X237522565Y-133323337D01*
X237522306Y-133323042D01*
X237495176Y-133285184D01*
X237495070Y-133285019D01*
X237015190Y-132453841D01*
X236956958Y-132352981D01*
X236956868Y-132352806D01*
X236937647Y-132310384D01*
X236937521Y-132310013D01*
X236928342Y-132270649D01*
X236928291Y-132270260D01*
X236926969Y-132229872D01*
X236926995Y-132229481D01*
X236933577Y-132189614D01*
X236933678Y-132189236D01*
X236947914Y-132151411D01*
X236948088Y-132151059D01*
X236969428Y-132116743D01*
X236969666Y-132116432D01*
X236997292Y-132086935D01*
X236997587Y-132086676D01*
X237035454Y-132059541D01*
X237035619Y-132059435D01*
X237275831Y-131920749D01*
X237277831Y-131920749D01*
X237278831Y-131922481D01*
G37*
G36*
X237723090Y-131703864D02*
G01*
X237762957Y-131710446D01*
X237763335Y-131710547D01*
X237801160Y-131724783D01*
X237801512Y-131724957D01*
X237835828Y-131746297D01*
X237836139Y-131746535D01*
X237865637Y-131774163D01*
X237865896Y-131774458D01*
X237893026Y-131812316D01*
X237893132Y-131812481D01*
X238431244Y-132744519D01*
X238431334Y-132744694D01*
X238450555Y-132787116D01*
X238450681Y-132787487D01*
X238459860Y-132826851D01*
X238459911Y-132827240D01*
X238461233Y-132867628D01*
X238461207Y-132868019D01*
X238454625Y-132907886D01*
X238454524Y-132908264D01*
X238440288Y-132946089D01*
X238440114Y-132946441D01*
X238418774Y-132980757D01*
X238418536Y-132981068D01*
X238390910Y-133010565D01*
X238390615Y-133010824D01*
X238352748Y-133037959D01*
X238352583Y-133038065D01*
X238225107Y-133111663D01*
X238223107Y-133111663D01*
X238222107Y-133109931D01*
X238223107Y-133108199D01*
X238301690Y-133062829D01*
X238344358Y-133032254D01*
X238380170Y-132994017D01*
X238407832Y-132949534D01*
X238426289Y-132900497D01*
X238434822Y-132848813D01*
X238433107Y-132796452D01*
X238421211Y-132745430D01*
X238399548Y-132697622D01*
X237917899Y-131863380D01*
X237887324Y-131820712D01*
X237849087Y-131784900D01*
X237804604Y-131757238D01*
X237755567Y-131738781D01*
X237703883Y-131730248D01*
X237651522Y-131731963D01*
X237600500Y-131743859D01*
X237552607Y-131765560D01*
X237550617Y-131765364D01*
X237549792Y-131763542D01*
X237550782Y-131762006D01*
X237599583Y-131733831D01*
X237599758Y-131733741D01*
X237642190Y-131714515D01*
X237642561Y-131714389D01*
X237681922Y-131705211D01*
X237682311Y-131705160D01*
X237722699Y-131703838D01*
X237723090Y-131703864D01*
G37*
G36*
X168756583Y-131629935D02*
G01*
X168756748Y-131630041D01*
X168794615Y-131657176D01*
X168794910Y-131657435D01*
X168822536Y-131686932D01*
X168822774Y-131687243D01*
X168844114Y-131721559D01*
X168844288Y-131721911D01*
X168858524Y-131759736D01*
X168858625Y-131760114D01*
X168865207Y-131799981D01*
X168865233Y-131800372D01*
X168863911Y-131840760D01*
X168863860Y-131841149D01*
X168854681Y-131880513D01*
X168854555Y-131880884D01*
X168835334Y-131923306D01*
X168835244Y-131923481D01*
X168297132Y-132855519D01*
X168297026Y-132855684D01*
X168269896Y-132893542D01*
X168269637Y-132893837D01*
X168240139Y-132921465D01*
X168239828Y-132921703D01*
X168205512Y-132943043D01*
X168205160Y-132943217D01*
X168167335Y-132957453D01*
X168166957Y-132957554D01*
X168127090Y-132964136D01*
X168126699Y-132964162D01*
X168086311Y-132962840D01*
X168085922Y-132962789D01*
X168046561Y-132953611D01*
X168046190Y-132953485D01*
X168003758Y-132934259D01*
X168003583Y-132934169D01*
X167954782Y-132905994D01*
X167953782Y-132904262D01*
X167954782Y-132902530D01*
X167956607Y-132902440D01*
X168004500Y-132924141D01*
X168055522Y-132936037D01*
X168107883Y-132937752D01*
X168159567Y-132929219D01*
X168208604Y-132910762D01*
X168253087Y-132883100D01*
X168291324Y-132847288D01*
X168321899Y-132804620D01*
X168803548Y-131970378D01*
X168825211Y-131922570D01*
X168837107Y-131871548D01*
X168838822Y-131819187D01*
X168830289Y-131767503D01*
X168811832Y-131718466D01*
X168784170Y-131673983D01*
X168748358Y-131635746D01*
X168705690Y-131605171D01*
X168410121Y-131434524D01*
X168409121Y-131432792D01*
X168410121Y-131431060D01*
X168412121Y-131431060D01*
X168756583Y-131629935D01*
G37*
G36*
X168109891Y-131275660D02*
G01*
X168110280Y-131275711D01*
X168149641Y-131284889D01*
X168150012Y-131285015D01*
X168192444Y-131304241D01*
X168192619Y-131304331D01*
X168241420Y-131332506D01*
X168242420Y-131334238D01*
X168241420Y-131335970D01*
X168239595Y-131336060D01*
X168191702Y-131314359D01*
X168140680Y-131302463D01*
X168088319Y-131300748D01*
X168036635Y-131309281D01*
X167987598Y-131327738D01*
X167943115Y-131355400D01*
X167904878Y-131391212D01*
X167874303Y-131433880D01*
X167422654Y-132216159D01*
X167392654Y-132268122D01*
X167370991Y-132315930D01*
X167359095Y-132366952D01*
X167357380Y-132419313D01*
X167365913Y-132470997D01*
X167384370Y-132520034D01*
X167412032Y-132564517D01*
X167447844Y-132602754D01*
X167490512Y-132633329D01*
X167597288Y-132694976D01*
X167598288Y-132696708D01*
X167597288Y-132698440D01*
X167595288Y-132698440D01*
X167439619Y-132608565D01*
X167439454Y-132608459D01*
X167401587Y-132581324D01*
X167401292Y-132581065D01*
X167373666Y-132551568D01*
X167373428Y-132551257D01*
X167352088Y-132516941D01*
X167351914Y-132516589D01*
X167337678Y-132478764D01*
X167337577Y-132478386D01*
X167330995Y-132438519D01*
X167330969Y-132438128D01*
X167332291Y-132397740D01*
X167332342Y-132397351D01*
X167341521Y-132357987D01*
X167341647Y-132357616D01*
X167360868Y-132315194D01*
X167360958Y-132315019D01*
X167419190Y-132214159D01*
X167899070Y-131382981D01*
X167899176Y-131382816D01*
X167926306Y-131344958D01*
X167926565Y-131344663D01*
X167956063Y-131317035D01*
X167956374Y-131316797D01*
X167990690Y-131295457D01*
X167991042Y-131295283D01*
X168028867Y-131281047D01*
X168029245Y-131280946D01*
X168069112Y-131274364D01*
X168069503Y-131274338D01*
X168109891Y-131275660D01*
G37*
G36*
X239006879Y-130924792D02*
G01*
X239005879Y-130926524D01*
X238710310Y-131097171D01*
X238667642Y-131127746D01*
X238631830Y-131165983D01*
X238604168Y-131210466D01*
X238585711Y-131259503D01*
X238577178Y-131311187D01*
X238578893Y-131363548D01*
X238590789Y-131414570D01*
X238612452Y-131462378D01*
X239094101Y-132296620D01*
X239124676Y-132339288D01*
X239162913Y-132375100D01*
X239207396Y-132402762D01*
X239256433Y-132421219D01*
X239308117Y-132429752D01*
X239360478Y-132428037D01*
X239411500Y-132416141D01*
X239459393Y-132394440D01*
X239461383Y-132394636D01*
X239462208Y-132396458D01*
X239461218Y-132397994D01*
X239412417Y-132426169D01*
X239412242Y-132426259D01*
X239369810Y-132445485D01*
X239369439Y-132445611D01*
X239330078Y-132454789D01*
X239329689Y-132454840D01*
X239289301Y-132456162D01*
X239288910Y-132456136D01*
X239249043Y-132449554D01*
X239248665Y-132449453D01*
X239210840Y-132435217D01*
X239210488Y-132435043D01*
X239176172Y-132413703D01*
X239175861Y-132413465D01*
X239146363Y-132385837D01*
X239146104Y-132385542D01*
X239118974Y-132347684D01*
X239118868Y-132347519D01*
X238580756Y-131415481D01*
X238580666Y-131415306D01*
X238561445Y-131372884D01*
X238561319Y-131372513D01*
X238552140Y-131333149D01*
X238552089Y-131332760D01*
X238550767Y-131292372D01*
X238550793Y-131291981D01*
X238557375Y-131252114D01*
X238557476Y-131251736D01*
X238571712Y-131213911D01*
X238571886Y-131213559D01*
X238593226Y-131179243D01*
X238593464Y-131178932D01*
X238621090Y-131149435D01*
X238621385Y-131149176D01*
X238659252Y-131122041D01*
X238659417Y-131121935D01*
X239003879Y-130923060D01*
X239005879Y-130923060D01*
X239006879Y-130924792D01*
G37*
G36*
X239346888Y-130766364D02*
G01*
X239386755Y-130772946D01*
X239387133Y-130773047D01*
X239424958Y-130787283D01*
X239425310Y-130787457D01*
X239459626Y-130808797D01*
X239459937Y-130809035D01*
X239489435Y-130836663D01*
X239489694Y-130836958D01*
X239516824Y-130874816D01*
X239516930Y-130874981D01*
X239996810Y-131706159D01*
X240055042Y-131807019D01*
X240055132Y-131807194D01*
X240074353Y-131849616D01*
X240074479Y-131849987D01*
X240083658Y-131889351D01*
X240083709Y-131889740D01*
X240085031Y-131930128D01*
X240085005Y-131930519D01*
X240078423Y-131970386D01*
X240078322Y-131970764D01*
X240064086Y-132008589D01*
X240063912Y-132008941D01*
X240042572Y-132043257D01*
X240042334Y-132043568D01*
X240014708Y-132073065D01*
X240014413Y-132073324D01*
X239976546Y-132100459D01*
X239976381Y-132100565D01*
X239807251Y-132198212D01*
X239805251Y-132198212D01*
X239804251Y-132196480D01*
X239805251Y-132194748D01*
X239925488Y-132125329D01*
X239968156Y-132094754D01*
X240003968Y-132056517D01*
X240031630Y-132012034D01*
X240050087Y-131962997D01*
X240058620Y-131911313D01*
X240056905Y-131858952D01*
X240045009Y-131807930D01*
X240023346Y-131760122D01*
X239993346Y-131708159D01*
X239541697Y-130925880D01*
X239511122Y-130883212D01*
X239472885Y-130847400D01*
X239428402Y-130819738D01*
X239379365Y-130801281D01*
X239327681Y-130792748D01*
X239275320Y-130794463D01*
X239224298Y-130806359D01*
X239176405Y-130828060D01*
X239174415Y-130827864D01*
X239173590Y-130826042D01*
X239174580Y-130824506D01*
X239223381Y-130796331D01*
X239223556Y-130796241D01*
X239265988Y-130777015D01*
X239266359Y-130776889D01*
X239305720Y-130767711D01*
X239306109Y-130767660D01*
X239346497Y-130766338D01*
X239346888Y-130766364D01*
G37*
M02*
