G04 #@! TF.GenerationSoftware,KiCad,Pcbnew,(5.1.10)-1*
G04 #@! TF.CreationDate,2021-05-29T20:37:25-07:00*
G04 #@! TF.ProjectId,snowstake,736e6f77-7374-4616-9b65-2e6b69636164,0.1*
G04 #@! TF.SameCoordinates,Original*
G04 #@! TF.FileFunction,Copper,L1,Top*
G04 #@! TF.FilePolarity,Positive*
%FSLAX46Y46*%
G04 Gerber Fmt 4.6, Leading zero omitted, Abs format (unit mm)*
G04 Created by KiCad (PCBNEW (5.1.10)-1) date 2021-05-29 20:37:25*
%MOMM*%
%LPD*%
G01*
G04 APERTURE LIST*
G04 #@! TA.AperFunction,SMDPad,CuDef*
%ADD10C,0.750000*%
G04 #@! TD*
G04 #@! TA.AperFunction,SMDPad,CuDef*
%ADD11R,0.800000X0.900000*%
G04 #@! TD*
G04 #@! TA.AperFunction,ComponentPad*
%ADD12C,1.900000*%
G04 #@! TD*
G04 #@! TA.AperFunction,ComponentPad*
%ADD13R,1.900000X1.900000*%
G04 #@! TD*
G04 #@! TA.AperFunction,ViaPad*
%ADD14C,0.800000*%
G04 #@! TD*
G04 #@! TA.AperFunction,Conductor*
%ADD15C,0.500000*%
G04 #@! TD*
G04 #@! TA.AperFunction,Conductor*
%ADD16C,0.250000*%
G04 #@! TD*
G04 APERTURE END LIST*
D10*
X197358000Y-174498000D03*
X175514000Y-152400000D03*
X228092000Y-152400000D03*
G04 #@! TA.AperFunction,SMDPad,CuDef*
G36*
G01*
X190150000Y-146320500D02*
X190150000Y-146795500D01*
G75*
G02*
X189912500Y-147033000I-237500J0D01*
G01*
X189337500Y-147033000D01*
G75*
G02*
X189100000Y-146795500I0J237500D01*
G01*
X189100000Y-146320500D01*
G75*
G02*
X189337500Y-146083000I237500J0D01*
G01*
X189912500Y-146083000D01*
G75*
G02*
X190150000Y-146320500I0J-237500D01*
G01*
G37*
G04 #@! TD.AperFunction*
G04 #@! TA.AperFunction,SMDPad,CuDef*
G36*
G01*
X191900000Y-146320500D02*
X191900000Y-146795500D01*
G75*
G02*
X191662500Y-147033000I-237500J0D01*
G01*
X191087500Y-147033000D01*
G75*
G02*
X190850000Y-146795500I0J237500D01*
G01*
X190850000Y-146320500D01*
G75*
G02*
X191087500Y-146083000I237500J0D01*
G01*
X191662500Y-146083000D01*
G75*
G02*
X191900000Y-146320500I0J-237500D01*
G01*
G37*
G04 #@! TD.AperFunction*
G04 #@! TA.AperFunction,SMDPad,CuDef*
G36*
G01*
X172552141Y-169895319D02*
X172789641Y-170306681D01*
G75*
G02*
X172702710Y-170631112I-205681J-118750D01*
G01*
X172204746Y-170918612D01*
G75*
G02*
X171880315Y-170831681I-118750J205681D01*
G01*
X171642815Y-170420319D01*
G75*
G02*
X171729746Y-170095888I205681J118750D01*
G01*
X172227710Y-169808388D01*
G75*
G02*
X172552141Y-169895319I118750J-205681D01*
G01*
G37*
G04 #@! TD.AperFunction*
G04 #@! TA.AperFunction,SMDPad,CuDef*
G36*
G01*
X174067685Y-169020319D02*
X174305185Y-169431681D01*
G75*
G02*
X174218254Y-169756112I-205681J-118750D01*
G01*
X173720290Y-170043612D01*
G75*
G02*
X173395859Y-169956681I-118750J205681D01*
G01*
X173158359Y-169545319D01*
G75*
G02*
X173245290Y-169220888I205681J118750D01*
G01*
X173743254Y-168933388D01*
G75*
G02*
X174067685Y-169020319I118750J-205681D01*
G01*
G37*
G04 #@! TD.AperFunction*
G04 #@! TA.AperFunction,SMDPad,CuDef*
G36*
G01*
X202962500Y-184754000D02*
X203437500Y-184754000D01*
G75*
G02*
X203675000Y-184991500I0J-237500D01*
G01*
X203675000Y-185566500D01*
G75*
G02*
X203437500Y-185804000I-237500J0D01*
G01*
X202962500Y-185804000D01*
G75*
G02*
X202725000Y-185566500I0J237500D01*
G01*
X202725000Y-184991500D01*
G75*
G02*
X202962500Y-184754000I237500J0D01*
G01*
G37*
G04 #@! TD.AperFunction*
G04 #@! TA.AperFunction,SMDPad,CuDef*
G36*
G01*
X202962500Y-183004000D02*
X203437500Y-183004000D01*
G75*
G02*
X203675000Y-183241500I0J-237500D01*
G01*
X203675000Y-183816500D01*
G75*
G02*
X203437500Y-184054000I-237500J0D01*
G01*
X202962500Y-184054000D01*
G75*
G02*
X202725000Y-183816500I0J237500D01*
G01*
X202725000Y-183241500D01*
G75*
G02*
X202962500Y-183004000I237500J0D01*
G01*
G37*
G04 #@! TD.AperFunction*
G04 #@! TA.AperFunction,SMDPad,CuDef*
G36*
G01*
X190088000Y-153145500D02*
X190088000Y-152670500D01*
G75*
G02*
X190325500Y-152433000I237500J0D01*
G01*
X190900500Y-152433000D01*
G75*
G02*
X191138000Y-152670500I0J-237500D01*
G01*
X191138000Y-153145500D01*
G75*
G02*
X190900500Y-153383000I-237500J0D01*
G01*
X190325500Y-153383000D01*
G75*
G02*
X190088000Y-153145500I0J237500D01*
G01*
G37*
G04 #@! TD.AperFunction*
G04 #@! TA.AperFunction,SMDPad,CuDef*
G36*
G01*
X188338000Y-153145500D02*
X188338000Y-152670500D01*
G75*
G02*
X188575500Y-152433000I237500J0D01*
G01*
X189150500Y-152433000D01*
G75*
G02*
X189388000Y-152670500I0J-237500D01*
G01*
X189388000Y-153145500D01*
G75*
G02*
X189150500Y-153383000I-237500J0D01*
G01*
X188575500Y-153383000D01*
G75*
G02*
X188338000Y-153145500I0J237500D01*
G01*
G37*
G04 #@! TD.AperFunction*
G04 #@! TA.AperFunction,SMDPad,CuDef*
G36*
G01*
X203437500Y-116998000D02*
X202962500Y-116998000D01*
G75*
G02*
X202725000Y-116760500I0J237500D01*
G01*
X202725000Y-116185500D01*
G75*
G02*
X202962500Y-115948000I237500J0D01*
G01*
X203437500Y-115948000D01*
G75*
G02*
X203675000Y-116185500I0J-237500D01*
G01*
X203675000Y-116760500D01*
G75*
G02*
X203437500Y-116998000I-237500J0D01*
G01*
G37*
G04 #@! TD.AperFunction*
G04 #@! TA.AperFunction,SMDPad,CuDef*
G36*
G01*
X203437500Y-118748000D02*
X202962500Y-118748000D01*
G75*
G02*
X202725000Y-118510500I0J237500D01*
G01*
X202725000Y-117935500D01*
G75*
G02*
X202962500Y-117698000I237500J0D01*
G01*
X203437500Y-117698000D01*
G75*
G02*
X203675000Y-117935500I0J-237500D01*
G01*
X203675000Y-118510500D01*
G75*
G02*
X203437500Y-118748000I-237500J0D01*
G01*
G37*
G04 #@! TD.AperFunction*
G04 #@! TA.AperFunction,SMDPad,CuDef*
G36*
G01*
X234372359Y-170814681D02*
X234609859Y-170403319D01*
G75*
G02*
X234934290Y-170316388I205681J-118750D01*
G01*
X235432254Y-170603888D01*
G75*
G02*
X235519185Y-170928319I-118750J-205681D01*
G01*
X235281685Y-171339681D01*
G75*
G02*
X234957254Y-171426612I-205681J118750D01*
G01*
X234459290Y-171139112D01*
G75*
G02*
X234372359Y-170814681I118750J205681D01*
G01*
G37*
G04 #@! TD.AperFunction*
G04 #@! TA.AperFunction,SMDPad,CuDef*
G36*
G01*
X232856815Y-169939681D02*
X233094315Y-169528319D01*
G75*
G02*
X233418746Y-169441388I205681J-118750D01*
G01*
X233916710Y-169728888D01*
G75*
G02*
X234003641Y-170053319I-118750J-205681D01*
G01*
X233766141Y-170464681D01*
G75*
G02*
X233441710Y-170551612I-205681J118750D01*
G01*
X232943746Y-170264112D01*
G75*
G02*
X232856815Y-169939681I118750J205681D01*
G01*
G37*
G04 #@! TD.AperFunction*
G04 #@! TA.AperFunction,SMDPad,CuDef*
G36*
G01*
X235371859Y-134142681D02*
X235134359Y-133731319D01*
G75*
G02*
X235221290Y-133406888I205681J118750D01*
G01*
X235719254Y-133119388D01*
G75*
G02*
X236043685Y-133206319I118750J-205681D01*
G01*
X236281185Y-133617681D01*
G75*
G02*
X236194254Y-133942112I-205681J-118750D01*
G01*
X235696290Y-134229612D01*
G75*
G02*
X235371859Y-134142681I-118750J205681D01*
G01*
G37*
G04 #@! TD.AperFunction*
G04 #@! TA.AperFunction,SMDPad,CuDef*
G36*
G01*
X233856315Y-135017681D02*
X233618815Y-134606319D01*
G75*
G02*
X233705746Y-134281888I205681J118750D01*
G01*
X234203710Y-133994388D01*
G75*
G02*
X234528141Y-134081319I118750J-205681D01*
G01*
X234765641Y-134492681D01*
G75*
G02*
X234678710Y-134817112I-205681J-118750D01*
G01*
X234180746Y-135104612D01*
G75*
G02*
X233856315Y-135017681I-118750J205681D01*
G01*
G37*
G04 #@! TD.AperFunction*
G04 #@! TA.AperFunction,SMDPad,CuDef*
G36*
G01*
X173297641Y-134747319D02*
X173060141Y-135158681D01*
G75*
G02*
X172735710Y-135245612I-205681J118750D01*
G01*
X172237746Y-134958112D01*
G75*
G02*
X172150815Y-134633681I118750J205681D01*
G01*
X172388315Y-134222319D01*
G75*
G02*
X172712746Y-134135388I205681J-118750D01*
G01*
X173210710Y-134422888D01*
G75*
G02*
X173297641Y-134747319I-118750J-205681D01*
G01*
G37*
G04 #@! TD.AperFunction*
G04 #@! TA.AperFunction,SMDPad,CuDef*
G36*
G01*
X174813185Y-135622319D02*
X174575685Y-136033681D01*
G75*
G02*
X174251254Y-136120612I-205681J118750D01*
G01*
X173753290Y-135833112D01*
G75*
G02*
X173666359Y-135508681I118750J205681D01*
G01*
X173903859Y-135097319D01*
G75*
G02*
X174228290Y-135010388I205681J-118750D01*
G01*
X174726254Y-135297888D01*
G75*
G02*
X174813185Y-135622319I-118750J-205681D01*
G01*
G37*
G04 #@! TD.AperFunction*
G04 #@! TA.AperFunction,SMDPad,CuDef*
G36*
G01*
X204058000Y-154669500D02*
X204058000Y-154194500D01*
G75*
G02*
X204295500Y-153957000I237500J0D01*
G01*
X204870500Y-153957000D01*
G75*
G02*
X205108000Y-154194500I0J-237500D01*
G01*
X205108000Y-154669500D01*
G75*
G02*
X204870500Y-154907000I-237500J0D01*
G01*
X204295500Y-154907000D01*
G75*
G02*
X204058000Y-154669500I0J237500D01*
G01*
G37*
G04 #@! TD.AperFunction*
G04 #@! TA.AperFunction,SMDPad,CuDef*
G36*
G01*
X202308000Y-154669500D02*
X202308000Y-154194500D01*
G75*
G02*
X202545500Y-153957000I237500J0D01*
G01*
X203120500Y-153957000D01*
G75*
G02*
X203358000Y-154194500I0J-237500D01*
G01*
X203358000Y-154669500D01*
G75*
G02*
X203120500Y-154907000I-237500J0D01*
G01*
X202545500Y-154907000D01*
G75*
G02*
X202308000Y-154669500I0J237500D01*
G01*
G37*
G04 #@! TD.AperFunction*
D11*
X189738000Y-148860000D03*
X190688000Y-150860000D03*
X188788000Y-150860000D03*
X203708000Y-150384000D03*
X204658000Y-152384000D03*
X202758000Y-152384000D03*
G04 #@! TA.AperFunction,SMDPad,CuDef*
G36*
G01*
X169019836Y-172636124D02*
X168563586Y-171845876D01*
G75*
G02*
X168652805Y-171512907I211094J121875D01*
G01*
X169074993Y-171269157D01*
G75*
G02*
X169407962Y-171358376I121875J-211094D01*
G01*
X169864212Y-172148624D01*
G75*
G02*
X169774993Y-172481593I-211094J-121875D01*
G01*
X169352805Y-172725343D01*
G75*
G02*
X169019836Y-172636124I-121875J211094D01*
G01*
G37*
G04 #@! TD.AperFunction*
G04 #@! TA.AperFunction,SMDPad,CuDef*
G36*
G01*
X167396038Y-173573624D02*
X166939788Y-172783376D01*
G75*
G02*
X167029007Y-172450407I211094J121875D01*
G01*
X167451195Y-172206657D01*
G75*
G02*
X167784164Y-172295876I121875J-211094D01*
G01*
X168240414Y-173086124D01*
G75*
G02*
X168151195Y-173419093I-211094J-121875D01*
G01*
X167729007Y-173662843D01*
G75*
G02*
X167396038Y-173573624I-121875J211094D01*
G01*
G37*
G04 #@! TD.AperFunction*
G04 #@! TA.AperFunction,SMDPad,CuDef*
G36*
G01*
X203656250Y-189542000D02*
X202743750Y-189542000D01*
G75*
G02*
X202500000Y-189298250I0J243750D01*
G01*
X202500000Y-188810750D01*
G75*
G02*
X202743750Y-188567000I243750J0D01*
G01*
X203656250Y-188567000D01*
G75*
G02*
X203900000Y-188810750I0J-243750D01*
G01*
X203900000Y-189298250D01*
G75*
G02*
X203656250Y-189542000I-243750J0D01*
G01*
G37*
G04 #@! TD.AperFunction*
G04 #@! TA.AperFunction,SMDPad,CuDef*
G36*
G01*
X203656250Y-191417000D02*
X202743750Y-191417000D01*
G75*
G02*
X202500000Y-191173250I0J243750D01*
G01*
X202500000Y-190685750D01*
G75*
G02*
X202743750Y-190442000I243750J0D01*
G01*
X203656250Y-190442000D01*
G75*
G02*
X203900000Y-190685750I0J-243750D01*
G01*
X203900000Y-191173250D01*
G75*
G02*
X203656250Y-191417000I-243750J0D01*
G01*
G37*
G04 #@! TD.AperFunction*
G04 #@! TA.AperFunction,SMDPad,CuDef*
G36*
G01*
X202743750Y-113734000D02*
X203656250Y-113734000D01*
G75*
G02*
X203900000Y-113977750I0J-243750D01*
G01*
X203900000Y-114465250D01*
G75*
G02*
X203656250Y-114709000I-243750J0D01*
G01*
X202743750Y-114709000D01*
G75*
G02*
X202500000Y-114465250I0J243750D01*
G01*
X202500000Y-113977750D01*
G75*
G02*
X202743750Y-113734000I243750J0D01*
G01*
G37*
G04 #@! TD.AperFunction*
G04 #@! TA.AperFunction,SMDPad,CuDef*
G36*
G01*
X202743750Y-111859000D02*
X203656250Y-111859000D01*
G75*
G02*
X203900000Y-112102750I0J-243750D01*
G01*
X203900000Y-112590250D01*
G75*
G02*
X203656250Y-112834000I-243750J0D01*
G01*
X202743750Y-112834000D01*
G75*
G02*
X202500000Y-112590250I0J243750D01*
G01*
X202500000Y-112102750D01*
G75*
G02*
X202743750Y-111859000I243750J0D01*
G01*
G37*
G04 #@! TD.AperFunction*
G04 #@! TA.AperFunction,SMDPad,CuDef*
G36*
G01*
X237786515Y-171845876D02*
X237330265Y-172636124D01*
G75*
G02*
X236997296Y-172725343I-211094J121875D01*
G01*
X236575108Y-172481593D01*
G75*
G02*
X236485889Y-172148624I121875J211094D01*
G01*
X236942139Y-171358376D01*
G75*
G02*
X237275108Y-171269157I211094J-121875D01*
G01*
X237697296Y-171512907D01*
G75*
G02*
X237786515Y-171845876I-121875J-211094D01*
G01*
G37*
G04 #@! TD.AperFunction*
G04 #@! TA.AperFunction,SMDPad,CuDef*
G36*
G01*
X239410313Y-172783376D02*
X238954063Y-173573624D01*
G75*
G02*
X238621094Y-173662843I-211094J121875D01*
G01*
X238198906Y-173419093D01*
G75*
G02*
X238109687Y-173086124I121875J211094D01*
G01*
X238565937Y-172295876D01*
G75*
G02*
X238898906Y-172206657I211094J-121875D01*
G01*
X239321094Y-172450407D01*
G75*
G02*
X239410313Y-172783376I-121875J-211094D01*
G01*
G37*
G04 #@! TD.AperFunction*
G04 #@! TA.AperFunction,SMDPad,CuDef*
G36*
G01*
X237888164Y-131909876D02*
X238344414Y-132700124D01*
G75*
G02*
X238255195Y-133033093I-211094J-121875D01*
G01*
X237833007Y-133276843D01*
G75*
G02*
X237500038Y-133187624I-121875J211094D01*
G01*
X237043788Y-132397376D01*
G75*
G02*
X237133007Y-132064407I211094J121875D01*
G01*
X237555195Y-131820657D01*
G75*
G02*
X237888164Y-131909876I121875J-211094D01*
G01*
G37*
G04 #@! TD.AperFunction*
G04 #@! TA.AperFunction,SMDPad,CuDef*
G36*
G01*
X239511962Y-130972376D02*
X239968212Y-131762624D01*
G75*
G02*
X239878993Y-132095593I-211094J-121875D01*
G01*
X239456805Y-132339343D01*
G75*
G02*
X239123836Y-132250124I-121875J211094D01*
G01*
X238667586Y-131459876D01*
G75*
G02*
X238756805Y-131126907I211094J121875D01*
G01*
X239178993Y-130883157D01*
G75*
G02*
X239511962Y-130972376I121875J-211094D01*
G01*
G37*
G04 #@! TD.AperFunction*
G04 #@! TA.AperFunction,SMDPad,CuDef*
G36*
G01*
X169071586Y-133208124D02*
X169527836Y-132417876D01*
G75*
G02*
X169860805Y-132328657I211094J-121875D01*
G01*
X170282993Y-132572407D01*
G75*
G02*
X170372212Y-132905376I-121875J-211094D01*
G01*
X169915962Y-133695624D01*
G75*
G02*
X169582993Y-133784843I-211094J121875D01*
G01*
X169160805Y-133541093D01*
G75*
G02*
X169071586Y-133208124I121875J211094D01*
G01*
G37*
G04 #@! TD.AperFunction*
G04 #@! TA.AperFunction,SMDPad,CuDef*
G36*
G01*
X167447788Y-132270624D02*
X167904038Y-131480376D01*
G75*
G02*
X168237007Y-131391157I211094J-121875D01*
G01*
X168659195Y-131634907D01*
G75*
G02*
X168748414Y-131967876I-121875J-211094D01*
G01*
X168292164Y-132758124D01*
G75*
G02*
X167959195Y-132847343I-211094J121875D01*
G01*
X167537007Y-132603593D01*
G75*
G02*
X167447788Y-132270624I121875J211094D01*
G01*
G37*
G04 #@! TD.AperFunction*
G04 #@! TA.AperFunction,SMDPad,CuDef*
G36*
G01*
X190262500Y-164942000D02*
X190737500Y-164942000D01*
G75*
G02*
X190975000Y-165179500I0J-237500D01*
G01*
X190975000Y-165754500D01*
G75*
G02*
X190737500Y-165992000I-237500J0D01*
G01*
X190262500Y-165992000D01*
G75*
G02*
X190025000Y-165754500I0J237500D01*
G01*
X190025000Y-165179500D01*
G75*
G02*
X190262500Y-164942000I237500J0D01*
G01*
G37*
G04 #@! TD.AperFunction*
G04 #@! TA.AperFunction,SMDPad,CuDef*
G36*
G01*
X190262500Y-163192000D02*
X190737500Y-163192000D01*
G75*
G02*
X190975000Y-163429500I0J-237500D01*
G01*
X190975000Y-164004500D01*
G75*
G02*
X190737500Y-164242000I-237500J0D01*
G01*
X190262500Y-164242000D01*
G75*
G02*
X190025000Y-164004500I0J237500D01*
G01*
X190025000Y-163429500D01*
G75*
G02*
X190262500Y-163192000I237500J0D01*
G01*
G37*
G04 #@! TD.AperFunction*
G04 #@! TA.AperFunction,SMDPad,CuDef*
G36*
G01*
X215629500Y-164242000D02*
X215154500Y-164242000D01*
G75*
G02*
X214917000Y-164004500I0J237500D01*
G01*
X214917000Y-163429500D01*
G75*
G02*
X215154500Y-163192000I237500J0D01*
G01*
X215629500Y-163192000D01*
G75*
G02*
X215867000Y-163429500I0J-237500D01*
G01*
X215867000Y-164004500D01*
G75*
G02*
X215629500Y-164242000I-237500J0D01*
G01*
G37*
G04 #@! TD.AperFunction*
G04 #@! TA.AperFunction,SMDPad,CuDef*
G36*
G01*
X215629500Y-165992000D02*
X215154500Y-165992000D01*
G75*
G02*
X214917000Y-165754500I0J237500D01*
G01*
X214917000Y-165179500D01*
G75*
G02*
X215154500Y-164942000I237500J0D01*
G01*
X215629500Y-164942000D01*
G75*
G02*
X215867000Y-165179500I0J-237500D01*
G01*
X215867000Y-165754500D01*
G75*
G02*
X215629500Y-165992000I-237500J0D01*
G01*
G37*
G04 #@! TD.AperFunction*
D12*
X194307460Y-137910280D03*
X194307460Y-140450280D03*
X194307460Y-142990280D03*
X194307460Y-145530280D03*
X194307460Y-148070280D03*
X194307460Y-150610280D03*
X194307460Y-153150280D03*
X194307460Y-155690280D03*
X194307460Y-158230280D03*
X194307460Y-160770280D03*
X194307460Y-163310280D03*
X194307460Y-165850280D03*
X212087460Y-137910280D03*
X212087460Y-140450280D03*
X212087460Y-142990280D03*
X212087460Y-145530280D03*
X212087460Y-148070280D03*
X212087460Y-150610280D03*
X212087460Y-153150280D03*
X212087460Y-155690280D03*
X212087460Y-158230280D03*
X212087460Y-160770280D03*
X212087460Y-163310280D03*
D13*
X212087460Y-165850280D03*
D14*
X199644000Y-156464000D03*
X205486000Y-166116000D03*
X203200000Y-119888000D03*
X176022000Y-136652000D03*
X231902000Y-135890000D03*
X190754000Y-143002000D03*
X176022000Y-168148000D03*
X203708000Y-147320000D03*
X203708000Y-162560000D03*
X200914000Y-154432000D03*
X189625000Y-143877000D03*
D15*
X194307460Y-158230280D02*
X194067720Y-158230280D01*
X194067720Y-158230280D02*
X192278000Y-160020000D01*
X192278000Y-160020000D02*
X192278000Y-163322000D01*
X191883000Y-163717000D02*
X190500000Y-163717000D01*
X192278000Y-163322000D02*
X191883000Y-163717000D01*
X204658000Y-154357000D02*
X204583000Y-154432000D01*
X204658000Y-152384000D02*
X204658000Y-154357000D01*
X214985280Y-163310280D02*
X215392000Y-163717000D01*
X212087460Y-163310280D02*
X214985280Y-163310280D01*
X204583000Y-154432000D02*
X204583000Y-156097000D01*
X204583000Y-156097000D02*
X204216000Y-156464000D01*
X204216000Y-156464000D02*
X199644000Y-156464000D01*
X199644000Y-156464000D02*
X199644000Y-156464000D01*
D16*
X215008720Y-165850280D02*
X215392000Y-165467000D01*
X212087460Y-165850280D02*
X215008720Y-165850280D01*
X215533000Y-165608000D02*
X215392000Y-165467000D01*
X203200000Y-183529000D02*
X203200000Y-181864000D01*
X203200000Y-181864000D02*
X204724000Y-180340000D01*
X204724000Y-180340000D02*
X204724000Y-166878000D01*
X204724000Y-166878000D02*
X205486000Y-166116000D01*
X205486000Y-166116000D02*
X205486000Y-166116000D01*
X203200000Y-118223000D02*
X203200000Y-119888000D01*
X203200000Y-119888000D02*
X203200000Y-119888000D01*
D15*
X176022000Y-136652000D02*
X176022000Y-136652000D01*
X234192228Y-134549500D02*
X231902000Y-135890000D01*
X231902000Y-135890000D02*
X231902000Y-135890000D01*
X173731772Y-169488500D02*
X176022000Y-168148000D01*
X176022000Y-168148000D02*
X176022000Y-168148000D01*
D16*
X233430228Y-169996500D02*
X228346000Y-166878000D01*
X228346000Y-166878000D02*
X216662000Y-166878000D01*
X216662000Y-166878000D02*
X215392000Y-165467000D01*
D15*
X176022000Y-136652000D02*
X174239772Y-135565500D01*
X191375000Y-143623000D02*
X190754000Y-143002000D01*
X191375000Y-146558000D02*
X191375000Y-143623000D01*
D16*
X188788000Y-152833000D02*
X188863000Y-152908000D01*
D15*
X188788000Y-150860000D02*
X188788000Y-152833000D01*
X190883280Y-165850280D02*
X190500000Y-165467000D01*
X194307460Y-165850280D02*
X190883280Y-165850280D01*
X190500000Y-165467000D02*
X189343000Y-165467000D01*
X188863000Y-164987000D02*
X188863000Y-152908000D01*
X189343000Y-165467000D02*
X188863000Y-164987000D01*
D16*
X169721899Y-133056750D02*
X172724228Y-134690500D01*
X203708000Y-150384000D02*
X203708000Y-147320000D01*
X203708000Y-162560000D02*
X203708000Y-179324000D01*
X203708000Y-179324000D02*
X201168000Y-181864000D01*
X201168000Y-181864000D02*
X201168000Y-189992000D01*
X202105500Y-190929500D02*
X201168000Y-189992000D01*
X203200000Y-190929500D02*
X202105500Y-190929500D01*
X196088000Y-142714000D02*
X203708000Y-150334000D01*
X168098101Y-132119250D02*
X168656000Y-131318000D01*
X203708000Y-150334000D02*
X203708000Y-150384000D01*
X183642000Y-136144000D02*
X195072000Y-136144000D01*
X195072000Y-136144000D02*
X196088000Y-137160000D01*
X196088000Y-137160000D02*
X196088000Y-142714000D01*
X183642000Y-136144000D02*
X178562000Y-136144000D01*
X178562000Y-136144000D02*
X169418000Y-131318000D01*
X169418000Y-131318000D02*
X168656000Y-131318000D01*
X237998000Y-173736000D02*
X238760000Y-172934750D01*
X236982000Y-173736000D02*
X237998000Y-173736000D01*
X228092000Y-168402000D02*
X236982000Y-173736000D01*
X222250000Y-168148000D02*
X228092000Y-168402000D01*
X210820000Y-168148000D02*
X222250000Y-168148000D01*
X209804000Y-167132000D02*
X210820000Y-168148000D01*
X209804000Y-155830000D02*
X209804000Y-167132000D01*
X204358000Y-150384000D02*
X209804000Y-155830000D01*
X168402000Y-173736000D02*
X167590101Y-172934750D01*
X178816000Y-168148000D02*
X169164000Y-173736000D01*
X195072000Y-168148000D02*
X178816000Y-168148000D01*
X196596000Y-166624000D02*
X195072000Y-168148000D01*
X196596000Y-156846000D02*
X196596000Y-166624000D01*
X203058000Y-150384000D02*
X196596000Y-156846000D01*
X169164000Y-173736000D02*
X168402000Y-173736000D01*
X203708000Y-150384000D02*
X203058000Y-150384000D01*
X238760000Y-130810000D02*
X239317899Y-131611250D01*
X238252000Y-130556000D02*
X238760000Y-130810000D01*
X228600000Y-135636000D02*
X238252000Y-130556000D01*
X211582000Y-135636000D02*
X228600000Y-135636000D01*
X210470000Y-136748000D02*
X211582000Y-135636000D01*
X203708000Y-150384000D02*
X204358000Y-150384000D01*
X209804000Y-143256000D02*
X205740000Y-147320000D01*
X209804000Y-130556000D02*
X209804000Y-143256000D01*
X204724000Y-125476000D02*
X209804000Y-130556000D01*
X205740000Y-147320000D02*
X203708000Y-147320000D01*
X204724000Y-112776000D02*
X204724000Y-125476000D01*
X204294500Y-112346500D02*
X204724000Y-112776000D01*
X203200000Y-112346500D02*
X204294500Y-112346500D01*
X210470000Y-143622000D02*
X203708000Y-150384000D01*
X210470000Y-136748000D02*
X210470000Y-143622000D01*
X235707772Y-133674500D02*
X237694101Y-132548750D01*
X234945772Y-170871500D02*
X237136202Y-171997250D01*
X203200000Y-114221500D02*
X203200000Y-116473000D01*
X203200000Y-185279000D02*
X203200000Y-189054500D01*
X169213899Y-171997250D02*
X172216228Y-170363500D01*
X202758000Y-154357000D02*
X202833000Y-154432000D01*
D15*
X202758000Y-152384000D02*
X202758000Y-154357000D01*
X202833000Y-154432000D02*
X200914000Y-154432000D01*
X200914000Y-154432000D02*
X200914000Y-154432000D01*
D16*
X189738000Y-146671000D02*
X189625000Y-146558000D01*
D15*
X189738000Y-148860000D02*
X189738000Y-146671000D01*
X189625000Y-146558000D02*
X189625000Y-143877000D01*
D16*
X189625000Y-143877000D02*
X189625000Y-143877000D01*
D15*
X194307460Y-153150280D02*
X192266280Y-153150280D01*
X192024000Y-152908000D02*
X190613000Y-152908000D01*
X192266280Y-153150280D02*
X192024000Y-152908000D01*
D16*
X190688000Y-152833000D02*
X190613000Y-152908000D01*
D15*
X190688000Y-150860000D02*
X190688000Y-152833000D01*
M02*
