M48
; DRILL file {KiCad (5.1.10)-1} date 05/30/21 11:34:17
; FORMAT={-:-/ absolute / inch / decimal}
; #@! TF.CreationDate,2021-05-30T11:34:17-07:00
; #@! TF.GenerationSoftware,Kicad,Pcbnew,(5.1.10)-1
; #@! TF.FileFunction,Plated,1,2,PTH
FMAT,2
INCH
T1C0.0157
T2C0.0236
T3C0.0402
%
G90
G05
T1
X8.375Y-5.29
X8.575Y-5.45
X8.58Y-5.335
T2
X6.525Y-5.15
X6.525Y-6.85
X8.0Y-4.35
X8.0Y-7.6
X8.4714Y-5.0414
X8.72Y-5.245
X9.475Y-5.15
X9.475Y-6.85
T3
X7.6499Y-5.4295
X7.6499Y-5.5295
X7.6499Y-5.6295
X7.6499Y-5.7295
X7.6499Y-5.8295
X7.6499Y-5.9295
X7.6499Y-6.0295
X7.6499Y-6.1295
X7.6499Y-6.2295
X7.6499Y-6.3295
X7.6499Y-6.4295
X7.6499Y-6.5295
X8.3499Y-5.4295
X8.3499Y-5.5295
X8.3499Y-5.6295
X8.3499Y-5.7295
X8.3499Y-5.8295
X8.3499Y-5.9295
X8.3499Y-6.0295
X8.3499Y-6.1295
X8.3499Y-6.2295
X8.3499Y-6.3295
X8.3499Y-6.4295
X8.3499Y-6.5295
T0
M30
