G04 #@! TF.GenerationSoftware,KiCad,Pcbnew,(5.1.10)-1*
G04 #@! TF.CreationDate,2021-05-29T20:37:25-07:00*
G04 #@! TF.ProjectId,snowstake,736e6f77-7374-4616-9b65-2e6b69636164,0.1*
G04 #@! TF.SameCoordinates,Original*
G04 #@! TF.FileFunction,Profile,NP*
%FSLAX46Y46*%
G04 Gerber Fmt 4.6, Leading zero omitted, Abs format (unit mm)*
G04 Created by KiCad (PCBNEW (5.1.10)-1) date 2021-05-29 20:37:25*
%MOMM*%
%LPD*%
G01*
G04 APERTURE LIST*
G04 #@! TA.AperFunction,Profile*
%ADD10C,0.050000*%
G04 #@! TD*
G04 APERTURE END LIST*
D10*
X163576000Y-157683200D02*
X163576000Y-175234600D01*
X187985400Y-189331600D02*
X203200000Y-198120000D01*
X227584000Y-184048400D02*
X242824000Y-175234600D01*
X242824000Y-157683200D02*
X242824000Y-175234600D01*
X178816000Y-120751600D02*
X163576000Y-129540000D01*
X227558600Y-120726200D02*
X242824000Y-129590800D01*
X218465400Y-178790600D02*
X227584000Y-184048400D01*
X218465400Y-189306200D02*
X218465400Y-178790600D01*
X187985400Y-178790600D02*
X187985400Y-189331600D01*
X178866800Y-184073800D02*
X187985400Y-178790600D01*
X242824000Y-157683200D02*
X233680000Y-152400000D01*
X242824000Y-147116800D02*
X233680000Y-152400000D01*
X172720000Y-152400000D02*
X163576000Y-157683200D01*
X163576000Y-147116800D02*
X172720000Y-152400000D01*
X218440000Y-126009400D02*
X227558600Y-120726200D01*
X218440000Y-115493800D02*
X218440000Y-126009400D01*
X187960000Y-126034800D02*
X178816000Y-120751600D01*
X187960000Y-115493800D02*
X187960000Y-126034800D01*
X203200000Y-198120000D02*
X218465400Y-189306200D01*
X163576000Y-175234600D02*
X178866800Y-184073800D01*
X163576000Y-129540000D02*
X163576000Y-147116800D01*
X203200000Y-106680000D02*
X187960000Y-115493800D01*
X218440000Y-115493800D02*
X203200000Y-106680000D01*
X242824000Y-129590800D02*
X242824000Y-147116800D01*
M02*
