G04 #@! TF.GenerationSoftware,KiCad,Pcbnew,(5.1.10)-1*
G04 #@! TF.CreationDate,2021-05-29T20:37:25-07:00*
G04 #@! TF.ProjectId,snowstake,736e6f77-7374-4616-9b65-2e6b69636164,0.1*
G04 #@! TF.SameCoordinates,Original*
G04 #@! TF.FileFunction,Copper,L2,Bot*
G04 #@! TF.FilePolarity,Positive*
%FSLAX46Y46*%
G04 Gerber Fmt 4.6, Leading zero omitted, Abs format (unit mm)*
G04 Created by KiCad (PCBNEW (5.1.10)-1) date 2021-05-29 20:37:25*
%MOMM*%
%LPD*%
G01*
G04 APERTURE LIST*
G04 #@! TA.AperFunction,SMDPad,CuDef*
%ADD10R,4.000000X4.000000*%
G04 #@! TD*
G04 #@! TA.AperFunction,SMDPad,CuDef*
%ADD11C,0.100000*%
G04 #@! TD*
G04 #@! TA.AperFunction,ComponentPad*
%ADD12C,1.900000*%
G04 #@! TD*
G04 #@! TA.AperFunction,ComponentPad*
%ADD13R,1.900000X1.900000*%
G04 #@! TD*
G04 #@! TA.AperFunction,ViaPad*
%ADD14C,0.800000*%
G04 #@! TD*
G04 #@! TA.AperFunction,Conductor*
%ADD15C,0.500000*%
G04 #@! TD*
G04 #@! TA.AperFunction,Conductor*
%ADD16C,1.000000*%
G04 #@! TD*
G04 #@! TA.AperFunction,Conductor*
%ADD17C,0.250000*%
G04 #@! TD*
G04 #@! TA.AperFunction,Conductor*
%ADD18C,0.254000*%
G04 #@! TD*
G04 #@! TA.AperFunction,Conductor*
%ADD19C,0.100000*%
G04 #@! TD*
G04 APERTURE END LIST*
D10*
X192278000Y-125476000D03*
G04 #@! TA.AperFunction,SMDPad,CuDef*
D11*
G36*
X185390051Y-132018051D02*
G01*
X181925949Y-130018051D01*
X183925949Y-126553949D01*
X187390051Y-128553949D01*
X185390051Y-132018051D01*
G37*
G04 #@! TD.AperFunction*
D10*
X192278000Y-119126000D03*
G04 #@! TA.AperFunction,SMDPad,CuDef*
G36*
G01*
X196225000Y-122949000D02*
X197475000Y-122949000D01*
G75*
G02*
X197725000Y-123199000I0J-250000D01*
G01*
X197725000Y-124124000D01*
G75*
G02*
X197475000Y-124374000I-250000J0D01*
G01*
X196225000Y-124374000D01*
G75*
G02*
X195975000Y-124124000I0J250000D01*
G01*
X195975000Y-123199000D01*
G75*
G02*
X196225000Y-122949000I250000J0D01*
G01*
G37*
G04 #@! TD.AperFunction*
G04 #@! TA.AperFunction,SMDPad,CuDef*
G36*
G01*
X196225000Y-119974000D02*
X197475000Y-119974000D01*
G75*
G02*
X197725000Y-120224000I0J-250000D01*
G01*
X197725000Y-121149000D01*
G75*
G02*
X197475000Y-121399000I-250000J0D01*
G01*
X196225000Y-121399000D01*
G75*
G02*
X195975000Y-121149000I0J250000D01*
G01*
X195975000Y-120224000D01*
G75*
G02*
X196225000Y-119974000I250000J0D01*
G01*
G37*
G04 #@! TD.AperFunction*
D12*
X194307460Y-137910280D03*
X194307460Y-140450280D03*
X194307460Y-142990280D03*
X194307460Y-145530280D03*
X194307460Y-148070280D03*
X194307460Y-150610280D03*
X194307460Y-153150280D03*
X194307460Y-155690280D03*
X194307460Y-158230280D03*
X194307460Y-160770280D03*
X194307460Y-163310280D03*
X194307460Y-165850280D03*
X212087460Y-137910280D03*
X212087460Y-140450280D03*
X212087460Y-142990280D03*
X212087460Y-145530280D03*
X212087460Y-148070280D03*
X212087460Y-150610280D03*
X212087460Y-153150280D03*
X212087460Y-155690280D03*
X212087460Y-158230280D03*
X212087460Y-160770280D03*
X212087460Y-163310280D03*
D13*
X212087460Y-165850280D03*
D14*
X199644000Y-156464000D03*
X205486000Y-166116000D03*
X203200000Y-119888000D03*
X176022000Y-136652000D03*
X231902000Y-135890000D03*
X190754000Y-143002000D03*
X176022000Y-168148000D03*
X203708000Y-147320000D03*
X203708000Y-162560000D03*
X200914000Y-154432000D03*
X189625000Y-143877000D03*
D15*
X194092500Y-123661500D02*
X192278000Y-125476000D01*
X196850000Y-123661500D02*
X194092500Y-123661500D01*
D16*
X192278000Y-125476000D02*
X192278000Y-129540000D01*
D15*
X192278000Y-129540000D02*
X192786000Y-130048000D01*
D17*
X211821740Y-166116000D02*
X212087460Y-165850280D01*
X205486000Y-166116000D02*
X211821740Y-166116000D01*
D15*
X187198000Y-166116000D02*
X188722000Y-167640000D01*
X210297740Y-167640000D02*
X212087460Y-165850280D01*
X188722000Y-167640000D02*
X210297740Y-167640000D01*
X219202000Y-158735740D02*
X212087460Y-165850280D01*
X193838500Y-120686500D02*
X192278000Y-119126000D01*
X196850000Y-120686500D02*
X193838500Y-120686500D01*
X210321180Y-164084000D02*
X212087460Y-165850280D01*
X210312000Y-131064000D02*
X204851000Y-125603000D01*
D17*
X204851000Y-125603000D02*
X204978000Y-125730000D01*
D15*
X231902000Y-135890000D02*
X219202000Y-143256000D01*
X219202000Y-143256000D02*
X219202000Y-158735740D01*
X187198000Y-166116000D02*
X187198000Y-142240000D01*
X187198000Y-142240000D02*
X176022000Y-136652000D01*
X212087460Y-165850280D02*
X212087460Y-167642540D01*
X212087460Y-167642540D02*
X211328000Y-168402000D01*
X211328000Y-168402000D02*
X177546000Y-168402000D01*
X177546000Y-168402000D02*
X177292000Y-168148000D01*
X177292000Y-168148000D02*
X176022000Y-168148000D01*
X210321180Y-158251180D02*
X210312000Y-158242000D01*
X210312000Y-158242000D02*
X210312000Y-131064000D01*
X210321180Y-164084000D02*
X210321180Y-158251180D01*
X198410500Y-120686500D02*
X196850000Y-120686500D01*
X198882000Y-121158000D02*
X198410500Y-120686500D01*
X202692000Y-164084000D02*
X201930000Y-163322000D01*
X201930000Y-163322000D02*
X201930000Y-153670000D01*
X201930000Y-153670000D02*
X201168000Y-152908000D01*
X201168000Y-152908000D02*
X198882000Y-152908000D01*
X198882000Y-152908000D02*
X198120000Y-152146000D01*
X198120000Y-125730000D02*
X198882000Y-124968000D01*
X198120000Y-152146000D02*
X198120000Y-145034000D01*
X198120000Y-145034000D02*
X196342000Y-143256000D01*
X198882000Y-124968000D02*
X198882000Y-121158000D01*
X196342000Y-143256000D02*
X196342000Y-126492000D01*
X196342000Y-126492000D02*
X197104000Y-125730000D01*
X210321180Y-164084000D02*
X202692000Y-164084000D01*
X197104000Y-125730000D02*
X198120000Y-125730000D01*
X189230000Y-122174000D02*
X192278000Y-119126000D01*
X189230000Y-132842000D02*
X189230000Y-122174000D01*
X190754000Y-134366000D02*
X189230000Y-132842000D01*
X190754000Y-143002000D02*
X190754000Y-134366000D01*
X204724000Y-125476000D02*
X204851000Y-125603000D01*
X204724000Y-121412000D02*
X204724000Y-125476000D01*
X203200000Y-119888000D02*
X204724000Y-121412000D01*
D17*
X203708000Y-147320000D02*
X203708000Y-162560000D01*
X203708000Y-162560000D02*
X203708000Y-162560000D01*
D15*
X200914000Y-154432000D02*
X198120000Y-154432000D01*
X198120000Y-154432000D02*
X196596000Y-152908000D01*
X196596000Y-145278820D02*
X194307460Y-142990280D01*
X196596000Y-152908000D02*
X196596000Y-145278820D01*
X189625000Y-135015000D02*
X184912000Y-130302000D01*
X189625000Y-143877000D02*
X189625000Y-135015000D01*
D18*
X179006471Y-121623892D02*
X187583056Y-126579253D01*
X187591551Y-126586225D01*
X187639239Y-126611714D01*
X187657887Y-126622489D01*
X187667846Y-126627005D01*
X187706208Y-126647510D01*
X187726911Y-126653790D01*
X187746622Y-126662729D01*
X187788989Y-126672622D01*
X187830618Y-126685250D01*
X187852156Y-126687371D01*
X187873225Y-126692291D01*
X187893783Y-126692971D01*
X188345001Y-126951809D01*
X188345000Y-132483421D01*
X186768401Y-130906823D01*
X187942638Y-128872985D01*
X187994261Y-128759050D01*
X188022664Y-128637234D01*
X188026757Y-128512217D01*
X188006381Y-128388804D01*
X187962320Y-128271737D01*
X187896268Y-128165515D01*
X187810761Y-128074221D01*
X187709087Y-128001362D01*
X184244985Y-126001362D01*
X184131050Y-125949739D01*
X184009234Y-125921336D01*
X183884217Y-125917243D01*
X183760804Y-125937619D01*
X183643737Y-125981680D01*
X183537515Y-126047732D01*
X183446221Y-126133239D01*
X183373362Y-126234913D01*
X181373362Y-129699015D01*
X181321739Y-129812950D01*
X181293336Y-129934766D01*
X181289243Y-130059783D01*
X181309619Y-130183196D01*
X181353680Y-130300263D01*
X181419732Y-130406485D01*
X181505239Y-130497779D01*
X181606913Y-130570638D01*
X185071015Y-132570638D01*
X185184950Y-132622261D01*
X185306766Y-132650664D01*
X185431783Y-132654757D01*
X185555196Y-132634381D01*
X185672263Y-132590320D01*
X185778485Y-132524268D01*
X185832293Y-132473871D01*
X188740001Y-135381580D01*
X188740000Y-143338546D01*
X188707795Y-143386744D01*
X188629774Y-143575102D01*
X188590000Y-143775061D01*
X188590000Y-143978939D01*
X188629774Y-144178898D01*
X188707795Y-144367256D01*
X188821063Y-144536774D01*
X188965226Y-144680937D01*
X189134744Y-144794205D01*
X189323102Y-144872226D01*
X189523061Y-144912000D01*
X189726939Y-144912000D01*
X189926898Y-144872226D01*
X190115256Y-144794205D01*
X190284774Y-144680937D01*
X190428937Y-144536774D01*
X190542205Y-144367256D01*
X190620226Y-144178898D01*
X190648588Y-144036309D01*
X190652061Y-144037000D01*
X190855939Y-144037000D01*
X191055898Y-143997226D01*
X191244256Y-143919205D01*
X191413774Y-143805937D01*
X191557937Y-143661774D01*
X191671205Y-143492256D01*
X191749226Y-143303898D01*
X191789000Y-143103939D01*
X191789000Y-142900061D01*
X191749226Y-142700102D01*
X191671205Y-142511744D01*
X191639000Y-142463546D01*
X191639000Y-134409465D01*
X191643281Y-134365999D01*
X191639000Y-134322533D01*
X191639000Y-134322523D01*
X191626195Y-134192510D01*
X191575589Y-134025687D01*
X191493411Y-133871941D01*
X191382817Y-133737183D01*
X191349049Y-133709470D01*
X190115000Y-132475422D01*
X190115000Y-128090128D01*
X190153518Y-128101812D01*
X190278000Y-128114072D01*
X190370819Y-128113906D01*
X195004360Y-130771906D01*
X195088422Y-130836084D01*
X195147813Y-130913205D01*
X195185159Y-131003100D01*
X195199000Y-131107952D01*
X195199000Y-136599724D01*
X195058239Y-136505671D01*
X194769787Y-136386191D01*
X194463569Y-136325280D01*
X194151351Y-136325280D01*
X193845133Y-136386191D01*
X193556681Y-136505671D01*
X193297081Y-136679130D01*
X193076310Y-136899901D01*
X192902851Y-137159501D01*
X192783371Y-137447953D01*
X192722460Y-137754171D01*
X192722460Y-138066389D01*
X192783371Y-138372607D01*
X192902851Y-138661059D01*
X193076310Y-138920659D01*
X193297081Y-139141430D01*
X193355224Y-139180280D01*
X193297081Y-139219130D01*
X193076310Y-139439901D01*
X192902851Y-139699501D01*
X192783371Y-139987953D01*
X192722460Y-140294171D01*
X192722460Y-140606389D01*
X192783371Y-140912607D01*
X192902851Y-141201059D01*
X193076310Y-141460659D01*
X193297081Y-141681430D01*
X193355224Y-141720280D01*
X193297081Y-141759130D01*
X193076310Y-141979901D01*
X192902851Y-142239501D01*
X192783371Y-142527953D01*
X192722460Y-142834171D01*
X192722460Y-143146389D01*
X192783371Y-143452607D01*
X192902851Y-143741059D01*
X193076310Y-144000659D01*
X193297081Y-144221430D01*
X193355224Y-144260280D01*
X193297081Y-144299130D01*
X193076310Y-144519901D01*
X192902851Y-144779501D01*
X192783371Y-145067953D01*
X192722460Y-145374171D01*
X192722460Y-145686389D01*
X192783371Y-145992607D01*
X192902851Y-146281059D01*
X193076310Y-146540659D01*
X193297081Y-146761430D01*
X193355224Y-146800280D01*
X193297081Y-146839130D01*
X193076310Y-147059901D01*
X192902851Y-147319501D01*
X192783371Y-147607953D01*
X192722460Y-147914171D01*
X192722460Y-148226389D01*
X192783371Y-148532607D01*
X192902851Y-148821059D01*
X193076310Y-149080659D01*
X193297081Y-149301430D01*
X193355224Y-149340280D01*
X193297081Y-149379130D01*
X193076310Y-149599901D01*
X192902851Y-149859501D01*
X192783371Y-150147953D01*
X192722460Y-150454171D01*
X192722460Y-150766389D01*
X192783371Y-151072607D01*
X192902851Y-151361059D01*
X193076310Y-151620659D01*
X193297081Y-151841430D01*
X193355224Y-151880280D01*
X193297081Y-151919130D01*
X193076310Y-152139901D01*
X192902851Y-152399501D01*
X192783371Y-152687953D01*
X192722460Y-152994171D01*
X192722460Y-153306389D01*
X192783371Y-153612607D01*
X192902851Y-153901059D01*
X193076310Y-154160659D01*
X193297081Y-154381430D01*
X193355224Y-154420280D01*
X193297081Y-154459130D01*
X193076310Y-154679901D01*
X192902851Y-154939501D01*
X192783371Y-155227953D01*
X192722460Y-155534171D01*
X192722460Y-155846389D01*
X192783371Y-156152607D01*
X192902851Y-156441059D01*
X193076310Y-156700659D01*
X193297081Y-156921430D01*
X193429136Y-157009667D01*
X193387313Y-157130528D01*
X194307460Y-158050675D01*
X195227607Y-157130528D01*
X195185784Y-157009667D01*
X195317839Y-156921430D01*
X195538610Y-156700659D01*
X195712069Y-156441059D01*
X195831549Y-156152607D01*
X195892460Y-155846389D01*
X195892460Y-155534171D01*
X195831549Y-155227953D01*
X195712069Y-154939501D01*
X195538610Y-154679901D01*
X195317839Y-154459130D01*
X195259696Y-154420280D01*
X195317839Y-154381430D01*
X195538610Y-154160659D01*
X195712069Y-153901059D01*
X195831549Y-153612607D01*
X195870145Y-153418575D01*
X195967183Y-153536817D01*
X196000954Y-153564532D01*
X197463470Y-155027049D01*
X197491183Y-155060817D01*
X197524951Y-155088530D01*
X197524953Y-155088532D01*
X197596452Y-155147210D01*
X197625941Y-155171411D01*
X197779687Y-155253589D01*
X197946510Y-155304195D01*
X198076523Y-155317000D01*
X198076533Y-155317000D01*
X198119999Y-155321281D01*
X198163465Y-155317000D01*
X200375546Y-155317000D01*
X200423744Y-155349205D01*
X200612102Y-155427226D01*
X200812061Y-155467000D01*
X201015939Y-155467000D01*
X201045001Y-155461219D01*
X201045000Y-163278531D01*
X201040719Y-163322000D01*
X201045000Y-163365469D01*
X201045000Y-163365476D01*
X201057805Y-163495489D01*
X201108411Y-163662312D01*
X201190589Y-163816058D01*
X201301183Y-163950817D01*
X201334956Y-163978534D01*
X202035470Y-164679049D01*
X202063183Y-164712817D01*
X202096951Y-164740530D01*
X202096953Y-164740532D01*
X202115549Y-164755793D01*
X202197941Y-164823411D01*
X202351687Y-164905589D01*
X202518510Y-164956195D01*
X202648523Y-164969000D01*
X202648531Y-164969000D01*
X202692000Y-164973281D01*
X202735469Y-164969000D01*
X209954602Y-164969000D01*
X210341602Y-165356000D01*
X206189711Y-165356000D01*
X206145774Y-165312063D01*
X205976256Y-165198795D01*
X205787898Y-165120774D01*
X205587939Y-165081000D01*
X205384061Y-165081000D01*
X205184102Y-165120774D01*
X204995744Y-165198795D01*
X204826226Y-165312063D01*
X204682063Y-165456226D01*
X204568795Y-165625744D01*
X204490774Y-165814102D01*
X204451000Y-166014061D01*
X204451000Y-166217939D01*
X204490774Y-166417898D01*
X204568795Y-166606256D01*
X204668182Y-166755000D01*
X195609209Y-166755000D01*
X195712069Y-166601059D01*
X195831549Y-166312607D01*
X195892460Y-166006389D01*
X195892460Y-165694171D01*
X195831549Y-165387953D01*
X195712069Y-165099501D01*
X195538610Y-164839901D01*
X195317839Y-164619130D01*
X195259696Y-164580280D01*
X195317839Y-164541430D01*
X195538610Y-164320659D01*
X195712069Y-164061059D01*
X195831549Y-163772607D01*
X195892460Y-163466389D01*
X195892460Y-163154171D01*
X195831549Y-162847953D01*
X195712069Y-162559501D01*
X195538610Y-162299901D01*
X195317839Y-162079130D01*
X195259696Y-162040280D01*
X195317839Y-162001430D01*
X195538610Y-161780659D01*
X195712069Y-161521059D01*
X195831549Y-161232607D01*
X195892460Y-160926389D01*
X195892460Y-160614171D01*
X195831549Y-160307953D01*
X195712069Y-160019501D01*
X195538610Y-159759901D01*
X195317839Y-159539130D01*
X195185784Y-159450893D01*
X195227607Y-159330032D01*
X194307460Y-158409885D01*
X193387313Y-159330032D01*
X193429136Y-159450893D01*
X193297081Y-159539130D01*
X193076310Y-159759901D01*
X192902851Y-160019501D01*
X192783371Y-160307953D01*
X192722460Y-160614171D01*
X192722460Y-160926389D01*
X192783371Y-161232607D01*
X192902851Y-161521059D01*
X193076310Y-161780659D01*
X193297081Y-162001430D01*
X193355224Y-162040280D01*
X193297081Y-162079130D01*
X193076310Y-162299901D01*
X192902851Y-162559501D01*
X192783371Y-162847953D01*
X192722460Y-163154171D01*
X192722460Y-163466389D01*
X192783371Y-163772607D01*
X192902851Y-164061059D01*
X193076310Y-164320659D01*
X193297081Y-164541430D01*
X193355224Y-164580280D01*
X193297081Y-164619130D01*
X193076310Y-164839901D01*
X192902851Y-165099501D01*
X192783371Y-165387953D01*
X192722460Y-165694171D01*
X192722460Y-166006389D01*
X192783371Y-166312607D01*
X192902851Y-166601059D01*
X193005711Y-166755000D01*
X189088579Y-166755000D01*
X188083000Y-165749422D01*
X188083000Y-158294853D01*
X192716101Y-158294853D01*
X192759276Y-158604071D01*
X192861947Y-158898924D01*
X192948418Y-159060701D01*
X193207708Y-159150427D01*
X194127855Y-158230280D01*
X194487065Y-158230280D01*
X195407212Y-159150427D01*
X195666502Y-159060701D01*
X195802395Y-158779609D01*
X195880839Y-158477407D01*
X195898819Y-158165707D01*
X195855644Y-157856489D01*
X195752973Y-157561636D01*
X195666502Y-157399859D01*
X195407212Y-157310133D01*
X194487065Y-158230280D01*
X194127855Y-158230280D01*
X193207708Y-157310133D01*
X192948418Y-157399859D01*
X192812525Y-157680951D01*
X192734081Y-157983153D01*
X192716101Y-158294853D01*
X188083000Y-158294853D01*
X188083000Y-142315011D01*
X188085044Y-142303040D01*
X188083000Y-142227972D01*
X188083000Y-142196523D01*
X188081817Y-142184507D01*
X188080299Y-142128774D01*
X188073293Y-142097961D01*
X188070195Y-142066510D01*
X188054007Y-142013147D01*
X188041646Y-141958784D01*
X188028763Y-141929929D01*
X188019589Y-141899687D01*
X187993307Y-141850516D01*
X187970574Y-141799600D01*
X187952308Y-141773812D01*
X187937411Y-141745941D01*
X187902036Y-141702837D01*
X187869811Y-141657341D01*
X187846866Y-141635612D01*
X187826817Y-141611183D01*
X187783716Y-141575811D01*
X187743231Y-141537472D01*
X187716487Y-141520637D01*
X187692059Y-141500589D01*
X187642891Y-141474309D01*
X187632671Y-141467875D01*
X187604535Y-141453807D01*
X187538313Y-141418411D01*
X187526693Y-141414886D01*
X176898466Y-136100773D01*
X176825937Y-135992226D01*
X176681774Y-135848063D01*
X176512256Y-135734795D01*
X176323898Y-135656774D01*
X176123939Y-135617000D01*
X175920061Y-135617000D01*
X175720102Y-135656774D01*
X175531744Y-135734795D01*
X175362226Y-135848063D01*
X175218063Y-135992226D01*
X175104795Y-136161744D01*
X175026774Y-136350102D01*
X174987000Y-136550061D01*
X174987000Y-136753939D01*
X175026774Y-136953898D01*
X175104795Y-137142256D01*
X175218063Y-137311774D01*
X175362226Y-137455937D01*
X175531744Y-137569205D01*
X175720102Y-137647226D01*
X175920061Y-137687000D01*
X176113081Y-137687000D01*
X186313001Y-142786960D01*
X186313000Y-166072531D01*
X186308719Y-166116000D01*
X186313000Y-166159469D01*
X186313000Y-166159476D01*
X186325805Y-166289489D01*
X186376411Y-166456312D01*
X186458589Y-166610058D01*
X186569183Y-166744817D01*
X186602956Y-166772534D01*
X187347421Y-167517000D01*
X177918157Y-167517000D01*
X177786059Y-167408589D01*
X177632313Y-167326411D01*
X177465490Y-167275805D01*
X177335477Y-167263000D01*
X177335469Y-167263000D01*
X177292000Y-167258719D01*
X177248531Y-167263000D01*
X176560454Y-167263000D01*
X176512256Y-167230795D01*
X176323898Y-167152774D01*
X176123939Y-167113000D01*
X175920061Y-167113000D01*
X175720102Y-167152774D01*
X175531744Y-167230795D01*
X175362226Y-167344063D01*
X175218063Y-167488226D01*
X175104795Y-167657744D01*
X175026774Y-167846102D01*
X174987000Y-168046061D01*
X174987000Y-168249939D01*
X175026774Y-168449898D01*
X175104795Y-168638256D01*
X175218063Y-168807774D01*
X175362226Y-168951937D01*
X175531744Y-169065205D01*
X175720102Y-169143226D01*
X175920061Y-169183000D01*
X176123939Y-169183000D01*
X176323898Y-169143226D01*
X176512256Y-169065205D01*
X176560454Y-169033000D01*
X176919843Y-169033000D01*
X177051941Y-169141411D01*
X177205687Y-169223589D01*
X177372510Y-169274195D01*
X177502523Y-169287000D01*
X177502533Y-169287000D01*
X177545999Y-169291281D01*
X177589465Y-169287000D01*
X211284531Y-169287000D01*
X211328000Y-169291281D01*
X211371469Y-169287000D01*
X211371477Y-169287000D01*
X211501490Y-169274195D01*
X211668313Y-169223589D01*
X211822059Y-169141411D01*
X211956817Y-169030817D01*
X211984534Y-168997044D01*
X212682509Y-168299070D01*
X212716277Y-168271357D01*
X212826871Y-168136599D01*
X212875264Y-168046061D01*
X212909049Y-167982854D01*
X212959655Y-167816030D01*
X212963875Y-167773183D01*
X212972460Y-167686017D01*
X212972460Y-167686009D01*
X212976741Y-167642540D01*
X212972460Y-167599071D01*
X212972460Y-167438352D01*
X213037460Y-167438352D01*
X213161942Y-167426092D01*
X213281640Y-167389782D01*
X213391954Y-167330817D01*
X213488645Y-167251465D01*
X213567997Y-167154774D01*
X213626962Y-167044460D01*
X213663272Y-166924762D01*
X213675532Y-166800280D01*
X213675532Y-165513786D01*
X219797049Y-159392270D01*
X219830817Y-159364557D01*
X219859152Y-159330032D01*
X219941410Y-159229800D01*
X219941411Y-159229799D01*
X220023589Y-159076053D01*
X220074195Y-158909230D01*
X220087000Y-158779217D01*
X220087000Y-158779209D01*
X220091281Y-158735740D01*
X220087000Y-158692271D01*
X220087000Y-143765783D01*
X231881456Y-136925000D01*
X232003939Y-136925000D01*
X232203898Y-136885226D01*
X232392256Y-136807205D01*
X232561774Y-136693937D01*
X232705937Y-136549774D01*
X232819205Y-136380256D01*
X232897226Y-136191898D01*
X232937000Y-135991939D01*
X232937000Y-135788061D01*
X232897226Y-135588102D01*
X232819205Y-135399744D01*
X232705937Y-135230226D01*
X232561774Y-135086063D01*
X232392256Y-134972795D01*
X232203898Y-134894774D01*
X232003939Y-134855000D01*
X231800061Y-134855000D01*
X231600102Y-134894774D01*
X231411744Y-134972795D01*
X231242226Y-135086063D01*
X231098063Y-135230226D01*
X230985722Y-135398356D01*
X218771275Y-142482737D01*
X218707941Y-142516589D01*
X218662271Y-142554070D01*
X218614330Y-142588568D01*
X218595043Y-142609243D01*
X218573183Y-142627183D01*
X218535700Y-142672856D01*
X218495413Y-142716042D01*
X218480532Y-142740078D01*
X218462589Y-142761942D01*
X218434742Y-142814040D01*
X218403648Y-142864265D01*
X218393738Y-142890754D01*
X218380411Y-142915688D01*
X218363263Y-142972215D01*
X218342565Y-143027543D01*
X218338015Y-143055447D01*
X218329805Y-143082511D01*
X218324014Y-143141310D01*
X218314509Y-143199600D01*
X218317000Y-143271334D01*
X218317001Y-158369160D01*
X213649615Y-163036547D01*
X213635644Y-162936489D01*
X213532973Y-162641636D01*
X213446502Y-162479859D01*
X213187212Y-162390133D01*
X212267065Y-163310280D01*
X212281208Y-163324423D01*
X212101603Y-163504028D01*
X212087460Y-163489885D01*
X212073318Y-163504028D01*
X211893713Y-163324423D01*
X211907855Y-163310280D01*
X211893713Y-163296138D01*
X212073318Y-163116533D01*
X212087460Y-163130675D01*
X213007607Y-162210528D01*
X212965784Y-162089667D01*
X213097839Y-162001430D01*
X213318610Y-161780659D01*
X213492069Y-161521059D01*
X213611549Y-161232607D01*
X213672460Y-160926389D01*
X213672460Y-160614171D01*
X213611549Y-160307953D01*
X213492069Y-160019501D01*
X213318610Y-159759901D01*
X213097839Y-159539130D01*
X213039696Y-159500280D01*
X213097839Y-159461430D01*
X213318610Y-159240659D01*
X213492069Y-158981059D01*
X213611549Y-158692607D01*
X213672460Y-158386389D01*
X213672460Y-158074171D01*
X213611549Y-157767953D01*
X213492069Y-157479501D01*
X213318610Y-157219901D01*
X213097839Y-156999130D01*
X213039696Y-156960280D01*
X213097839Y-156921430D01*
X213318610Y-156700659D01*
X213492069Y-156441059D01*
X213611549Y-156152607D01*
X213672460Y-155846389D01*
X213672460Y-155534171D01*
X213611549Y-155227953D01*
X213492069Y-154939501D01*
X213318610Y-154679901D01*
X213097839Y-154459130D01*
X213039696Y-154420280D01*
X213097839Y-154381430D01*
X213318610Y-154160659D01*
X213492069Y-153901059D01*
X213611549Y-153612607D01*
X213672460Y-153306389D01*
X213672460Y-152994171D01*
X213611549Y-152687953D01*
X213492069Y-152399501D01*
X213318610Y-152139901D01*
X213097839Y-151919130D01*
X213039696Y-151880280D01*
X213097839Y-151841430D01*
X213318610Y-151620659D01*
X213492069Y-151361059D01*
X213611549Y-151072607D01*
X213672460Y-150766389D01*
X213672460Y-150454171D01*
X213611549Y-150147953D01*
X213492069Y-149859501D01*
X213318610Y-149599901D01*
X213097839Y-149379130D01*
X213039696Y-149340280D01*
X213097839Y-149301430D01*
X213318610Y-149080659D01*
X213492069Y-148821059D01*
X213611549Y-148532607D01*
X213672460Y-148226389D01*
X213672460Y-147914171D01*
X213611549Y-147607953D01*
X213492069Y-147319501D01*
X213318610Y-147059901D01*
X213097839Y-146839130D01*
X213039696Y-146800280D01*
X213097839Y-146761430D01*
X213318610Y-146540659D01*
X213492069Y-146281059D01*
X213611549Y-145992607D01*
X213672460Y-145686389D01*
X213672460Y-145374171D01*
X213611549Y-145067953D01*
X213492069Y-144779501D01*
X213318610Y-144519901D01*
X213097839Y-144299130D01*
X213039696Y-144260280D01*
X213097839Y-144221430D01*
X213318610Y-144000659D01*
X213492069Y-143741059D01*
X213611549Y-143452607D01*
X213672460Y-143146389D01*
X213672460Y-142834171D01*
X213611549Y-142527953D01*
X213492069Y-142239501D01*
X213318610Y-141979901D01*
X213097839Y-141759130D01*
X213039696Y-141720280D01*
X213097839Y-141681430D01*
X213318610Y-141460659D01*
X213492069Y-141201059D01*
X213611549Y-140912607D01*
X213672460Y-140606389D01*
X213672460Y-140294171D01*
X213611549Y-139987953D01*
X213492069Y-139699501D01*
X213318610Y-139439901D01*
X213097839Y-139219130D01*
X213039696Y-139180280D01*
X213097839Y-139141430D01*
X213318610Y-138920659D01*
X213492069Y-138661059D01*
X213611549Y-138372607D01*
X213672460Y-138066389D01*
X213672460Y-137754171D01*
X213611549Y-137447953D01*
X213492069Y-137159501D01*
X213318610Y-136899901D01*
X213097839Y-136679130D01*
X212838239Y-136505671D01*
X212549787Y-136386191D01*
X212243569Y-136325280D01*
X211931351Y-136325280D01*
X211625133Y-136386191D01*
X211336681Y-136505671D01*
X211243505Y-136567929D01*
X211275402Y-131358166D01*
X211289529Y-131254699D01*
X211326500Y-131165982D01*
X211384973Y-131089699D01*
X211467618Y-131025868D01*
X222137033Y-124802042D01*
X225899000Y-124802042D01*
X225899000Y-125133958D01*
X225963754Y-125459496D01*
X226090772Y-125766147D01*
X226275175Y-126042125D01*
X226509875Y-126276825D01*
X226785853Y-126461228D01*
X227092504Y-126588246D01*
X227418042Y-126653000D01*
X227749958Y-126653000D01*
X228075496Y-126588246D01*
X228382147Y-126461228D01*
X228658125Y-126276825D01*
X228892825Y-126042125D01*
X229077228Y-125766147D01*
X229204246Y-125459496D01*
X229269000Y-125133958D01*
X229269000Y-124802042D01*
X229204246Y-124476504D01*
X229077228Y-124169853D01*
X228892825Y-123893875D01*
X228658125Y-123659175D01*
X228382147Y-123474772D01*
X228075496Y-123347754D01*
X227749958Y-123283000D01*
X227418042Y-123283000D01*
X227092504Y-123347754D01*
X226785853Y-123474772D01*
X226509875Y-123659175D01*
X226275175Y-123893875D01*
X226090772Y-124169853D01*
X225963754Y-124476504D01*
X225899000Y-124802042D01*
X222137033Y-124802042D01*
X227417995Y-121721481D01*
X227514885Y-121680784D01*
X227610713Y-121667589D01*
X227706701Y-121679554D01*
X227804113Y-121719008D01*
X233833652Y-125133325D01*
X242164000Y-129970749D01*
X242164001Y-146629870D01*
X242163146Y-146631914D01*
X242103393Y-146709031D01*
X242018916Y-146773051D01*
X233031167Y-151882837D01*
X233015354Y-151893472D01*
X232897807Y-151986055D01*
X232879853Y-152003303D01*
X232871805Y-152013774D01*
X232786916Y-152136992D01*
X232774869Y-152158780D01*
X232770280Y-152171163D01*
X232725651Y-152313981D01*
X232720590Y-152338358D01*
X232719870Y-152351545D01*
X232719498Y-152501174D01*
X232721877Y-152525957D01*
X232725092Y-152538766D01*
X232769010Y-152681805D01*
X232778615Y-152704774D01*
X232785476Y-152716059D01*
X232869751Y-152839698D01*
X232885722Y-152858796D01*
X232895615Y-152867546D01*
X233012700Y-152960712D01*
X233028459Y-152971425D01*
X241819157Y-158027215D01*
X241902532Y-158090874D01*
X241961601Y-158167242D01*
X241999024Y-158256246D01*
X242013422Y-158360155D01*
X242135934Y-174654232D01*
X242122585Y-174760311D01*
X242085118Y-174851309D01*
X242025100Y-174929287D01*
X241997929Y-174949918D01*
X240902181Y-175583625D01*
X227751232Y-183056272D01*
X227654442Y-183095722D01*
X227559019Y-183107968D01*
X227463649Y-183095329D01*
X227367026Y-183055482D01*
X218712726Y-178090646D01*
X218695682Y-178082489D01*
X218557462Y-178028572D01*
X218533493Y-178021842D01*
X218520712Y-178020238D01*
X218372755Y-178009253D01*
X218347866Y-178009852D01*
X218335175Y-178012069D01*
X218190508Y-178044986D01*
X218166891Y-178052863D01*
X218155411Y-178058706D01*
X218026773Y-178132624D01*
X218006506Y-178147084D01*
X217997245Y-178156039D01*
X217895960Y-178264452D01*
X217880829Y-178284223D01*
X217874604Y-178295502D01*
X217809592Y-178428864D01*
X217800929Y-178452204D01*
X217798288Y-178464812D01*
X217775272Y-178611379D01*
X217773737Y-178630211D01*
X217705387Y-188609272D01*
X217691476Y-188711657D01*
X217655192Y-188799566D01*
X217597798Y-188875405D01*
X217516596Y-188939285D01*
X209828471Y-193530804D01*
X203200075Y-197357849D01*
X195182039Y-192726396D01*
X188936959Y-189016340D01*
X188854963Y-188951989D01*
X188797146Y-188875415D01*
X188760846Y-188786607D01*
X188747400Y-188683237D01*
X188747400Y-178565007D01*
X188745981Y-178546073D01*
X188723755Y-178398655D01*
X188717648Y-178374520D01*
X188712590Y-178362472D01*
X188647889Y-178228161D01*
X188634938Y-178206898D01*
X188626553Y-178196877D01*
X188525128Y-178087612D01*
X188506483Y-178071113D01*
X188495516Y-178064009D01*
X188366384Y-177989505D01*
X188343704Y-177979237D01*
X188331130Y-177975683D01*
X188185772Y-177942563D01*
X188161073Y-177939438D01*
X188148009Y-177939748D01*
X187999348Y-177950957D01*
X187974825Y-177955254D01*
X187962435Y-177959402D01*
X187823687Y-178013943D01*
X187806585Y-178022191D01*
X179057039Y-183080522D01*
X178960701Y-183120652D01*
X178865533Y-183133647D01*
X178770211Y-183121837D01*
X178673388Y-183082912D01*
X171567696Y-179092043D01*
X164236000Y-174853788D01*
X164236000Y-158064109D01*
X173003148Y-152998647D01*
X173013132Y-152994893D01*
X173059314Y-152966195D01*
X173078253Y-152955253D01*
X173086888Y-152949061D01*
X173123557Y-152926275D01*
X173139583Y-152911275D01*
X173157433Y-152898475D01*
X173186952Y-152866937D01*
X173218474Y-152837433D01*
X173231268Y-152819592D01*
X173246275Y-152803558D01*
X173269073Y-152766870D01*
X173294235Y-152731780D01*
X173303302Y-152711786D01*
X173314893Y-152693133D01*
X173330094Y-152652705D01*
X173347929Y-152613377D01*
X173352921Y-152591996D01*
X173360650Y-152571442D01*
X173367672Y-152528823D01*
X173377491Y-152486774D01*
X173378216Y-152464833D01*
X173381787Y-152443163D01*
X173380360Y-152400000D01*
X173381787Y-152356837D01*
X173378216Y-152335167D01*
X173377491Y-152313226D01*
X173367672Y-152271177D01*
X173360650Y-152228558D01*
X173352921Y-152208004D01*
X173347929Y-152186623D01*
X173330094Y-152147295D01*
X173314893Y-152106867D01*
X173303302Y-152088214D01*
X173294235Y-152068220D01*
X173269073Y-152033130D01*
X173246275Y-151996442D01*
X173231268Y-151980408D01*
X173218474Y-151962567D01*
X173186952Y-151933063D01*
X173157433Y-151901525D01*
X173139583Y-151888725D01*
X173123557Y-151873725D01*
X173086888Y-151850939D01*
X173078253Y-151844747D01*
X173059314Y-151833805D01*
X173013132Y-151805107D01*
X173003148Y-151801353D01*
X164306635Y-146776702D01*
X164259622Y-146713452D01*
X164236000Y-146654908D01*
X164236000Y-129962664D01*
X164258839Y-129908106D01*
X169585210Y-126836566D01*
X173191866Y-124802042D01*
X177131000Y-124802042D01*
X177131000Y-125133958D01*
X177195754Y-125459496D01*
X177322772Y-125766147D01*
X177507175Y-126042125D01*
X177741875Y-126276825D01*
X178017853Y-126461228D01*
X178324504Y-126588246D01*
X178650042Y-126653000D01*
X178981958Y-126653000D01*
X179307496Y-126588246D01*
X179614147Y-126461228D01*
X179890125Y-126276825D01*
X180124825Y-126042125D01*
X180309228Y-125766147D01*
X180436246Y-125459496D01*
X180501000Y-125133958D01*
X180501000Y-124802042D01*
X180436246Y-124476504D01*
X180309228Y-124169853D01*
X180124825Y-123893875D01*
X179890125Y-123659175D01*
X179614147Y-123474772D01*
X179307496Y-123347754D01*
X178981958Y-123283000D01*
X178650042Y-123283000D01*
X178324504Y-123347754D01*
X178017853Y-123474772D01*
X177741875Y-123659175D01*
X177507175Y-123893875D01*
X177322772Y-124169853D01*
X177195754Y-124476504D01*
X177131000Y-124802042D01*
X173191866Y-124802042D01*
X178750499Y-121666403D01*
X178847110Y-121627333D01*
X178942267Y-121615308D01*
X179006471Y-121623892D01*
G04 #@! TA.AperFunction,Conductor*
D19*
G36*
X179006471Y-121623892D02*
G01*
X187583056Y-126579253D01*
X187591551Y-126586225D01*
X187639239Y-126611714D01*
X187657887Y-126622489D01*
X187667846Y-126627005D01*
X187706208Y-126647510D01*
X187726911Y-126653790D01*
X187746622Y-126662729D01*
X187788989Y-126672622D01*
X187830618Y-126685250D01*
X187852156Y-126687371D01*
X187873225Y-126692291D01*
X187893783Y-126692971D01*
X188345001Y-126951809D01*
X188345000Y-132483421D01*
X186768401Y-130906823D01*
X187942638Y-128872985D01*
X187994261Y-128759050D01*
X188022664Y-128637234D01*
X188026757Y-128512217D01*
X188006381Y-128388804D01*
X187962320Y-128271737D01*
X187896268Y-128165515D01*
X187810761Y-128074221D01*
X187709087Y-128001362D01*
X184244985Y-126001362D01*
X184131050Y-125949739D01*
X184009234Y-125921336D01*
X183884217Y-125917243D01*
X183760804Y-125937619D01*
X183643737Y-125981680D01*
X183537515Y-126047732D01*
X183446221Y-126133239D01*
X183373362Y-126234913D01*
X181373362Y-129699015D01*
X181321739Y-129812950D01*
X181293336Y-129934766D01*
X181289243Y-130059783D01*
X181309619Y-130183196D01*
X181353680Y-130300263D01*
X181419732Y-130406485D01*
X181505239Y-130497779D01*
X181606913Y-130570638D01*
X185071015Y-132570638D01*
X185184950Y-132622261D01*
X185306766Y-132650664D01*
X185431783Y-132654757D01*
X185555196Y-132634381D01*
X185672263Y-132590320D01*
X185778485Y-132524268D01*
X185832293Y-132473871D01*
X188740001Y-135381580D01*
X188740000Y-143338546D01*
X188707795Y-143386744D01*
X188629774Y-143575102D01*
X188590000Y-143775061D01*
X188590000Y-143978939D01*
X188629774Y-144178898D01*
X188707795Y-144367256D01*
X188821063Y-144536774D01*
X188965226Y-144680937D01*
X189134744Y-144794205D01*
X189323102Y-144872226D01*
X189523061Y-144912000D01*
X189726939Y-144912000D01*
X189926898Y-144872226D01*
X190115256Y-144794205D01*
X190284774Y-144680937D01*
X190428937Y-144536774D01*
X190542205Y-144367256D01*
X190620226Y-144178898D01*
X190648588Y-144036309D01*
X190652061Y-144037000D01*
X190855939Y-144037000D01*
X191055898Y-143997226D01*
X191244256Y-143919205D01*
X191413774Y-143805937D01*
X191557937Y-143661774D01*
X191671205Y-143492256D01*
X191749226Y-143303898D01*
X191789000Y-143103939D01*
X191789000Y-142900061D01*
X191749226Y-142700102D01*
X191671205Y-142511744D01*
X191639000Y-142463546D01*
X191639000Y-134409465D01*
X191643281Y-134365999D01*
X191639000Y-134322533D01*
X191639000Y-134322523D01*
X191626195Y-134192510D01*
X191575589Y-134025687D01*
X191493411Y-133871941D01*
X191382817Y-133737183D01*
X191349049Y-133709470D01*
X190115000Y-132475422D01*
X190115000Y-128090128D01*
X190153518Y-128101812D01*
X190278000Y-128114072D01*
X190370819Y-128113906D01*
X195004360Y-130771906D01*
X195088422Y-130836084D01*
X195147813Y-130913205D01*
X195185159Y-131003100D01*
X195199000Y-131107952D01*
X195199000Y-136599724D01*
X195058239Y-136505671D01*
X194769787Y-136386191D01*
X194463569Y-136325280D01*
X194151351Y-136325280D01*
X193845133Y-136386191D01*
X193556681Y-136505671D01*
X193297081Y-136679130D01*
X193076310Y-136899901D01*
X192902851Y-137159501D01*
X192783371Y-137447953D01*
X192722460Y-137754171D01*
X192722460Y-138066389D01*
X192783371Y-138372607D01*
X192902851Y-138661059D01*
X193076310Y-138920659D01*
X193297081Y-139141430D01*
X193355224Y-139180280D01*
X193297081Y-139219130D01*
X193076310Y-139439901D01*
X192902851Y-139699501D01*
X192783371Y-139987953D01*
X192722460Y-140294171D01*
X192722460Y-140606389D01*
X192783371Y-140912607D01*
X192902851Y-141201059D01*
X193076310Y-141460659D01*
X193297081Y-141681430D01*
X193355224Y-141720280D01*
X193297081Y-141759130D01*
X193076310Y-141979901D01*
X192902851Y-142239501D01*
X192783371Y-142527953D01*
X192722460Y-142834171D01*
X192722460Y-143146389D01*
X192783371Y-143452607D01*
X192902851Y-143741059D01*
X193076310Y-144000659D01*
X193297081Y-144221430D01*
X193355224Y-144260280D01*
X193297081Y-144299130D01*
X193076310Y-144519901D01*
X192902851Y-144779501D01*
X192783371Y-145067953D01*
X192722460Y-145374171D01*
X192722460Y-145686389D01*
X192783371Y-145992607D01*
X192902851Y-146281059D01*
X193076310Y-146540659D01*
X193297081Y-146761430D01*
X193355224Y-146800280D01*
X193297081Y-146839130D01*
X193076310Y-147059901D01*
X192902851Y-147319501D01*
X192783371Y-147607953D01*
X192722460Y-147914171D01*
X192722460Y-148226389D01*
X192783371Y-148532607D01*
X192902851Y-148821059D01*
X193076310Y-149080659D01*
X193297081Y-149301430D01*
X193355224Y-149340280D01*
X193297081Y-149379130D01*
X193076310Y-149599901D01*
X192902851Y-149859501D01*
X192783371Y-150147953D01*
X192722460Y-150454171D01*
X192722460Y-150766389D01*
X192783371Y-151072607D01*
X192902851Y-151361059D01*
X193076310Y-151620659D01*
X193297081Y-151841430D01*
X193355224Y-151880280D01*
X193297081Y-151919130D01*
X193076310Y-152139901D01*
X192902851Y-152399501D01*
X192783371Y-152687953D01*
X192722460Y-152994171D01*
X192722460Y-153306389D01*
X192783371Y-153612607D01*
X192902851Y-153901059D01*
X193076310Y-154160659D01*
X193297081Y-154381430D01*
X193355224Y-154420280D01*
X193297081Y-154459130D01*
X193076310Y-154679901D01*
X192902851Y-154939501D01*
X192783371Y-155227953D01*
X192722460Y-155534171D01*
X192722460Y-155846389D01*
X192783371Y-156152607D01*
X192902851Y-156441059D01*
X193076310Y-156700659D01*
X193297081Y-156921430D01*
X193429136Y-157009667D01*
X193387313Y-157130528D01*
X194307460Y-158050675D01*
X195227607Y-157130528D01*
X195185784Y-157009667D01*
X195317839Y-156921430D01*
X195538610Y-156700659D01*
X195712069Y-156441059D01*
X195831549Y-156152607D01*
X195892460Y-155846389D01*
X195892460Y-155534171D01*
X195831549Y-155227953D01*
X195712069Y-154939501D01*
X195538610Y-154679901D01*
X195317839Y-154459130D01*
X195259696Y-154420280D01*
X195317839Y-154381430D01*
X195538610Y-154160659D01*
X195712069Y-153901059D01*
X195831549Y-153612607D01*
X195870145Y-153418575D01*
X195967183Y-153536817D01*
X196000954Y-153564532D01*
X197463470Y-155027049D01*
X197491183Y-155060817D01*
X197524951Y-155088530D01*
X197524953Y-155088532D01*
X197596452Y-155147210D01*
X197625941Y-155171411D01*
X197779687Y-155253589D01*
X197946510Y-155304195D01*
X198076523Y-155317000D01*
X198076533Y-155317000D01*
X198119999Y-155321281D01*
X198163465Y-155317000D01*
X200375546Y-155317000D01*
X200423744Y-155349205D01*
X200612102Y-155427226D01*
X200812061Y-155467000D01*
X201015939Y-155467000D01*
X201045001Y-155461219D01*
X201045000Y-163278531D01*
X201040719Y-163322000D01*
X201045000Y-163365469D01*
X201045000Y-163365476D01*
X201057805Y-163495489D01*
X201108411Y-163662312D01*
X201190589Y-163816058D01*
X201301183Y-163950817D01*
X201334956Y-163978534D01*
X202035470Y-164679049D01*
X202063183Y-164712817D01*
X202096951Y-164740530D01*
X202096953Y-164740532D01*
X202115549Y-164755793D01*
X202197941Y-164823411D01*
X202351687Y-164905589D01*
X202518510Y-164956195D01*
X202648523Y-164969000D01*
X202648531Y-164969000D01*
X202692000Y-164973281D01*
X202735469Y-164969000D01*
X209954602Y-164969000D01*
X210341602Y-165356000D01*
X206189711Y-165356000D01*
X206145774Y-165312063D01*
X205976256Y-165198795D01*
X205787898Y-165120774D01*
X205587939Y-165081000D01*
X205384061Y-165081000D01*
X205184102Y-165120774D01*
X204995744Y-165198795D01*
X204826226Y-165312063D01*
X204682063Y-165456226D01*
X204568795Y-165625744D01*
X204490774Y-165814102D01*
X204451000Y-166014061D01*
X204451000Y-166217939D01*
X204490774Y-166417898D01*
X204568795Y-166606256D01*
X204668182Y-166755000D01*
X195609209Y-166755000D01*
X195712069Y-166601059D01*
X195831549Y-166312607D01*
X195892460Y-166006389D01*
X195892460Y-165694171D01*
X195831549Y-165387953D01*
X195712069Y-165099501D01*
X195538610Y-164839901D01*
X195317839Y-164619130D01*
X195259696Y-164580280D01*
X195317839Y-164541430D01*
X195538610Y-164320659D01*
X195712069Y-164061059D01*
X195831549Y-163772607D01*
X195892460Y-163466389D01*
X195892460Y-163154171D01*
X195831549Y-162847953D01*
X195712069Y-162559501D01*
X195538610Y-162299901D01*
X195317839Y-162079130D01*
X195259696Y-162040280D01*
X195317839Y-162001430D01*
X195538610Y-161780659D01*
X195712069Y-161521059D01*
X195831549Y-161232607D01*
X195892460Y-160926389D01*
X195892460Y-160614171D01*
X195831549Y-160307953D01*
X195712069Y-160019501D01*
X195538610Y-159759901D01*
X195317839Y-159539130D01*
X195185784Y-159450893D01*
X195227607Y-159330032D01*
X194307460Y-158409885D01*
X193387313Y-159330032D01*
X193429136Y-159450893D01*
X193297081Y-159539130D01*
X193076310Y-159759901D01*
X192902851Y-160019501D01*
X192783371Y-160307953D01*
X192722460Y-160614171D01*
X192722460Y-160926389D01*
X192783371Y-161232607D01*
X192902851Y-161521059D01*
X193076310Y-161780659D01*
X193297081Y-162001430D01*
X193355224Y-162040280D01*
X193297081Y-162079130D01*
X193076310Y-162299901D01*
X192902851Y-162559501D01*
X192783371Y-162847953D01*
X192722460Y-163154171D01*
X192722460Y-163466389D01*
X192783371Y-163772607D01*
X192902851Y-164061059D01*
X193076310Y-164320659D01*
X193297081Y-164541430D01*
X193355224Y-164580280D01*
X193297081Y-164619130D01*
X193076310Y-164839901D01*
X192902851Y-165099501D01*
X192783371Y-165387953D01*
X192722460Y-165694171D01*
X192722460Y-166006389D01*
X192783371Y-166312607D01*
X192902851Y-166601059D01*
X193005711Y-166755000D01*
X189088579Y-166755000D01*
X188083000Y-165749422D01*
X188083000Y-158294853D01*
X192716101Y-158294853D01*
X192759276Y-158604071D01*
X192861947Y-158898924D01*
X192948418Y-159060701D01*
X193207708Y-159150427D01*
X194127855Y-158230280D01*
X194487065Y-158230280D01*
X195407212Y-159150427D01*
X195666502Y-159060701D01*
X195802395Y-158779609D01*
X195880839Y-158477407D01*
X195898819Y-158165707D01*
X195855644Y-157856489D01*
X195752973Y-157561636D01*
X195666502Y-157399859D01*
X195407212Y-157310133D01*
X194487065Y-158230280D01*
X194127855Y-158230280D01*
X193207708Y-157310133D01*
X192948418Y-157399859D01*
X192812525Y-157680951D01*
X192734081Y-157983153D01*
X192716101Y-158294853D01*
X188083000Y-158294853D01*
X188083000Y-142315011D01*
X188085044Y-142303040D01*
X188083000Y-142227972D01*
X188083000Y-142196523D01*
X188081817Y-142184507D01*
X188080299Y-142128774D01*
X188073293Y-142097961D01*
X188070195Y-142066510D01*
X188054007Y-142013147D01*
X188041646Y-141958784D01*
X188028763Y-141929929D01*
X188019589Y-141899687D01*
X187993307Y-141850516D01*
X187970574Y-141799600D01*
X187952308Y-141773812D01*
X187937411Y-141745941D01*
X187902036Y-141702837D01*
X187869811Y-141657341D01*
X187846866Y-141635612D01*
X187826817Y-141611183D01*
X187783716Y-141575811D01*
X187743231Y-141537472D01*
X187716487Y-141520637D01*
X187692059Y-141500589D01*
X187642891Y-141474309D01*
X187632671Y-141467875D01*
X187604535Y-141453807D01*
X187538313Y-141418411D01*
X187526693Y-141414886D01*
X176898466Y-136100773D01*
X176825937Y-135992226D01*
X176681774Y-135848063D01*
X176512256Y-135734795D01*
X176323898Y-135656774D01*
X176123939Y-135617000D01*
X175920061Y-135617000D01*
X175720102Y-135656774D01*
X175531744Y-135734795D01*
X175362226Y-135848063D01*
X175218063Y-135992226D01*
X175104795Y-136161744D01*
X175026774Y-136350102D01*
X174987000Y-136550061D01*
X174987000Y-136753939D01*
X175026774Y-136953898D01*
X175104795Y-137142256D01*
X175218063Y-137311774D01*
X175362226Y-137455937D01*
X175531744Y-137569205D01*
X175720102Y-137647226D01*
X175920061Y-137687000D01*
X176113081Y-137687000D01*
X186313001Y-142786960D01*
X186313000Y-166072531D01*
X186308719Y-166116000D01*
X186313000Y-166159469D01*
X186313000Y-166159476D01*
X186325805Y-166289489D01*
X186376411Y-166456312D01*
X186458589Y-166610058D01*
X186569183Y-166744817D01*
X186602956Y-166772534D01*
X187347421Y-167517000D01*
X177918157Y-167517000D01*
X177786059Y-167408589D01*
X177632313Y-167326411D01*
X177465490Y-167275805D01*
X177335477Y-167263000D01*
X177335469Y-167263000D01*
X177292000Y-167258719D01*
X177248531Y-167263000D01*
X176560454Y-167263000D01*
X176512256Y-167230795D01*
X176323898Y-167152774D01*
X176123939Y-167113000D01*
X175920061Y-167113000D01*
X175720102Y-167152774D01*
X175531744Y-167230795D01*
X175362226Y-167344063D01*
X175218063Y-167488226D01*
X175104795Y-167657744D01*
X175026774Y-167846102D01*
X174987000Y-168046061D01*
X174987000Y-168249939D01*
X175026774Y-168449898D01*
X175104795Y-168638256D01*
X175218063Y-168807774D01*
X175362226Y-168951937D01*
X175531744Y-169065205D01*
X175720102Y-169143226D01*
X175920061Y-169183000D01*
X176123939Y-169183000D01*
X176323898Y-169143226D01*
X176512256Y-169065205D01*
X176560454Y-169033000D01*
X176919843Y-169033000D01*
X177051941Y-169141411D01*
X177205687Y-169223589D01*
X177372510Y-169274195D01*
X177502523Y-169287000D01*
X177502533Y-169287000D01*
X177545999Y-169291281D01*
X177589465Y-169287000D01*
X211284531Y-169287000D01*
X211328000Y-169291281D01*
X211371469Y-169287000D01*
X211371477Y-169287000D01*
X211501490Y-169274195D01*
X211668313Y-169223589D01*
X211822059Y-169141411D01*
X211956817Y-169030817D01*
X211984534Y-168997044D01*
X212682509Y-168299070D01*
X212716277Y-168271357D01*
X212826871Y-168136599D01*
X212875264Y-168046061D01*
X212909049Y-167982854D01*
X212959655Y-167816030D01*
X212963875Y-167773183D01*
X212972460Y-167686017D01*
X212972460Y-167686009D01*
X212976741Y-167642540D01*
X212972460Y-167599071D01*
X212972460Y-167438352D01*
X213037460Y-167438352D01*
X213161942Y-167426092D01*
X213281640Y-167389782D01*
X213391954Y-167330817D01*
X213488645Y-167251465D01*
X213567997Y-167154774D01*
X213626962Y-167044460D01*
X213663272Y-166924762D01*
X213675532Y-166800280D01*
X213675532Y-165513786D01*
X219797049Y-159392270D01*
X219830817Y-159364557D01*
X219859152Y-159330032D01*
X219941410Y-159229800D01*
X219941411Y-159229799D01*
X220023589Y-159076053D01*
X220074195Y-158909230D01*
X220087000Y-158779217D01*
X220087000Y-158779209D01*
X220091281Y-158735740D01*
X220087000Y-158692271D01*
X220087000Y-143765783D01*
X231881456Y-136925000D01*
X232003939Y-136925000D01*
X232203898Y-136885226D01*
X232392256Y-136807205D01*
X232561774Y-136693937D01*
X232705937Y-136549774D01*
X232819205Y-136380256D01*
X232897226Y-136191898D01*
X232937000Y-135991939D01*
X232937000Y-135788061D01*
X232897226Y-135588102D01*
X232819205Y-135399744D01*
X232705937Y-135230226D01*
X232561774Y-135086063D01*
X232392256Y-134972795D01*
X232203898Y-134894774D01*
X232003939Y-134855000D01*
X231800061Y-134855000D01*
X231600102Y-134894774D01*
X231411744Y-134972795D01*
X231242226Y-135086063D01*
X231098063Y-135230226D01*
X230985722Y-135398356D01*
X218771275Y-142482737D01*
X218707941Y-142516589D01*
X218662271Y-142554070D01*
X218614330Y-142588568D01*
X218595043Y-142609243D01*
X218573183Y-142627183D01*
X218535700Y-142672856D01*
X218495413Y-142716042D01*
X218480532Y-142740078D01*
X218462589Y-142761942D01*
X218434742Y-142814040D01*
X218403648Y-142864265D01*
X218393738Y-142890754D01*
X218380411Y-142915688D01*
X218363263Y-142972215D01*
X218342565Y-143027543D01*
X218338015Y-143055447D01*
X218329805Y-143082511D01*
X218324014Y-143141310D01*
X218314509Y-143199600D01*
X218317000Y-143271334D01*
X218317001Y-158369160D01*
X213649615Y-163036547D01*
X213635644Y-162936489D01*
X213532973Y-162641636D01*
X213446502Y-162479859D01*
X213187212Y-162390133D01*
X212267065Y-163310280D01*
X212281208Y-163324423D01*
X212101603Y-163504028D01*
X212087460Y-163489885D01*
X212073318Y-163504028D01*
X211893713Y-163324423D01*
X211907855Y-163310280D01*
X211893713Y-163296138D01*
X212073318Y-163116533D01*
X212087460Y-163130675D01*
X213007607Y-162210528D01*
X212965784Y-162089667D01*
X213097839Y-162001430D01*
X213318610Y-161780659D01*
X213492069Y-161521059D01*
X213611549Y-161232607D01*
X213672460Y-160926389D01*
X213672460Y-160614171D01*
X213611549Y-160307953D01*
X213492069Y-160019501D01*
X213318610Y-159759901D01*
X213097839Y-159539130D01*
X213039696Y-159500280D01*
X213097839Y-159461430D01*
X213318610Y-159240659D01*
X213492069Y-158981059D01*
X213611549Y-158692607D01*
X213672460Y-158386389D01*
X213672460Y-158074171D01*
X213611549Y-157767953D01*
X213492069Y-157479501D01*
X213318610Y-157219901D01*
X213097839Y-156999130D01*
X213039696Y-156960280D01*
X213097839Y-156921430D01*
X213318610Y-156700659D01*
X213492069Y-156441059D01*
X213611549Y-156152607D01*
X213672460Y-155846389D01*
X213672460Y-155534171D01*
X213611549Y-155227953D01*
X213492069Y-154939501D01*
X213318610Y-154679901D01*
X213097839Y-154459130D01*
X213039696Y-154420280D01*
X213097839Y-154381430D01*
X213318610Y-154160659D01*
X213492069Y-153901059D01*
X213611549Y-153612607D01*
X213672460Y-153306389D01*
X213672460Y-152994171D01*
X213611549Y-152687953D01*
X213492069Y-152399501D01*
X213318610Y-152139901D01*
X213097839Y-151919130D01*
X213039696Y-151880280D01*
X213097839Y-151841430D01*
X213318610Y-151620659D01*
X213492069Y-151361059D01*
X213611549Y-151072607D01*
X213672460Y-150766389D01*
X213672460Y-150454171D01*
X213611549Y-150147953D01*
X213492069Y-149859501D01*
X213318610Y-149599901D01*
X213097839Y-149379130D01*
X213039696Y-149340280D01*
X213097839Y-149301430D01*
X213318610Y-149080659D01*
X213492069Y-148821059D01*
X213611549Y-148532607D01*
X213672460Y-148226389D01*
X213672460Y-147914171D01*
X213611549Y-147607953D01*
X213492069Y-147319501D01*
X213318610Y-147059901D01*
X213097839Y-146839130D01*
X213039696Y-146800280D01*
X213097839Y-146761430D01*
X213318610Y-146540659D01*
X213492069Y-146281059D01*
X213611549Y-145992607D01*
X213672460Y-145686389D01*
X213672460Y-145374171D01*
X213611549Y-145067953D01*
X213492069Y-144779501D01*
X213318610Y-144519901D01*
X213097839Y-144299130D01*
X213039696Y-144260280D01*
X213097839Y-144221430D01*
X213318610Y-144000659D01*
X213492069Y-143741059D01*
X213611549Y-143452607D01*
X213672460Y-143146389D01*
X213672460Y-142834171D01*
X213611549Y-142527953D01*
X213492069Y-142239501D01*
X213318610Y-141979901D01*
X213097839Y-141759130D01*
X213039696Y-141720280D01*
X213097839Y-141681430D01*
X213318610Y-141460659D01*
X213492069Y-141201059D01*
X213611549Y-140912607D01*
X213672460Y-140606389D01*
X213672460Y-140294171D01*
X213611549Y-139987953D01*
X213492069Y-139699501D01*
X213318610Y-139439901D01*
X213097839Y-139219130D01*
X213039696Y-139180280D01*
X213097839Y-139141430D01*
X213318610Y-138920659D01*
X213492069Y-138661059D01*
X213611549Y-138372607D01*
X213672460Y-138066389D01*
X213672460Y-137754171D01*
X213611549Y-137447953D01*
X213492069Y-137159501D01*
X213318610Y-136899901D01*
X213097839Y-136679130D01*
X212838239Y-136505671D01*
X212549787Y-136386191D01*
X212243569Y-136325280D01*
X211931351Y-136325280D01*
X211625133Y-136386191D01*
X211336681Y-136505671D01*
X211243505Y-136567929D01*
X211275402Y-131358166D01*
X211289529Y-131254699D01*
X211326500Y-131165982D01*
X211384973Y-131089699D01*
X211467618Y-131025868D01*
X222137033Y-124802042D01*
X225899000Y-124802042D01*
X225899000Y-125133958D01*
X225963754Y-125459496D01*
X226090772Y-125766147D01*
X226275175Y-126042125D01*
X226509875Y-126276825D01*
X226785853Y-126461228D01*
X227092504Y-126588246D01*
X227418042Y-126653000D01*
X227749958Y-126653000D01*
X228075496Y-126588246D01*
X228382147Y-126461228D01*
X228658125Y-126276825D01*
X228892825Y-126042125D01*
X229077228Y-125766147D01*
X229204246Y-125459496D01*
X229269000Y-125133958D01*
X229269000Y-124802042D01*
X229204246Y-124476504D01*
X229077228Y-124169853D01*
X228892825Y-123893875D01*
X228658125Y-123659175D01*
X228382147Y-123474772D01*
X228075496Y-123347754D01*
X227749958Y-123283000D01*
X227418042Y-123283000D01*
X227092504Y-123347754D01*
X226785853Y-123474772D01*
X226509875Y-123659175D01*
X226275175Y-123893875D01*
X226090772Y-124169853D01*
X225963754Y-124476504D01*
X225899000Y-124802042D01*
X222137033Y-124802042D01*
X227417995Y-121721481D01*
X227514885Y-121680784D01*
X227610713Y-121667589D01*
X227706701Y-121679554D01*
X227804113Y-121719008D01*
X233833652Y-125133325D01*
X242164000Y-129970749D01*
X242164001Y-146629870D01*
X242163146Y-146631914D01*
X242103393Y-146709031D01*
X242018916Y-146773051D01*
X233031167Y-151882837D01*
X233015354Y-151893472D01*
X232897807Y-151986055D01*
X232879853Y-152003303D01*
X232871805Y-152013774D01*
X232786916Y-152136992D01*
X232774869Y-152158780D01*
X232770280Y-152171163D01*
X232725651Y-152313981D01*
X232720590Y-152338358D01*
X232719870Y-152351545D01*
X232719498Y-152501174D01*
X232721877Y-152525957D01*
X232725092Y-152538766D01*
X232769010Y-152681805D01*
X232778615Y-152704774D01*
X232785476Y-152716059D01*
X232869751Y-152839698D01*
X232885722Y-152858796D01*
X232895615Y-152867546D01*
X233012700Y-152960712D01*
X233028459Y-152971425D01*
X241819157Y-158027215D01*
X241902532Y-158090874D01*
X241961601Y-158167242D01*
X241999024Y-158256246D01*
X242013422Y-158360155D01*
X242135934Y-174654232D01*
X242122585Y-174760311D01*
X242085118Y-174851309D01*
X242025100Y-174929287D01*
X241997929Y-174949918D01*
X240902181Y-175583625D01*
X227751232Y-183056272D01*
X227654442Y-183095722D01*
X227559019Y-183107968D01*
X227463649Y-183095329D01*
X227367026Y-183055482D01*
X218712726Y-178090646D01*
X218695682Y-178082489D01*
X218557462Y-178028572D01*
X218533493Y-178021842D01*
X218520712Y-178020238D01*
X218372755Y-178009253D01*
X218347866Y-178009852D01*
X218335175Y-178012069D01*
X218190508Y-178044986D01*
X218166891Y-178052863D01*
X218155411Y-178058706D01*
X218026773Y-178132624D01*
X218006506Y-178147084D01*
X217997245Y-178156039D01*
X217895960Y-178264452D01*
X217880829Y-178284223D01*
X217874604Y-178295502D01*
X217809592Y-178428864D01*
X217800929Y-178452204D01*
X217798288Y-178464812D01*
X217775272Y-178611379D01*
X217773737Y-178630211D01*
X217705387Y-188609272D01*
X217691476Y-188711657D01*
X217655192Y-188799566D01*
X217597798Y-188875405D01*
X217516596Y-188939285D01*
X209828471Y-193530804D01*
X203200075Y-197357849D01*
X195182039Y-192726396D01*
X188936959Y-189016340D01*
X188854963Y-188951989D01*
X188797146Y-188875415D01*
X188760846Y-188786607D01*
X188747400Y-188683237D01*
X188747400Y-178565007D01*
X188745981Y-178546073D01*
X188723755Y-178398655D01*
X188717648Y-178374520D01*
X188712590Y-178362472D01*
X188647889Y-178228161D01*
X188634938Y-178206898D01*
X188626553Y-178196877D01*
X188525128Y-178087612D01*
X188506483Y-178071113D01*
X188495516Y-178064009D01*
X188366384Y-177989505D01*
X188343704Y-177979237D01*
X188331130Y-177975683D01*
X188185772Y-177942563D01*
X188161073Y-177939438D01*
X188148009Y-177939748D01*
X187999348Y-177950957D01*
X187974825Y-177955254D01*
X187962435Y-177959402D01*
X187823687Y-178013943D01*
X187806585Y-178022191D01*
X179057039Y-183080522D01*
X178960701Y-183120652D01*
X178865533Y-183133647D01*
X178770211Y-183121837D01*
X178673388Y-183082912D01*
X171567696Y-179092043D01*
X164236000Y-174853788D01*
X164236000Y-158064109D01*
X173003148Y-152998647D01*
X173013132Y-152994893D01*
X173059314Y-152966195D01*
X173078253Y-152955253D01*
X173086888Y-152949061D01*
X173123557Y-152926275D01*
X173139583Y-152911275D01*
X173157433Y-152898475D01*
X173186952Y-152866937D01*
X173218474Y-152837433D01*
X173231268Y-152819592D01*
X173246275Y-152803558D01*
X173269073Y-152766870D01*
X173294235Y-152731780D01*
X173303302Y-152711786D01*
X173314893Y-152693133D01*
X173330094Y-152652705D01*
X173347929Y-152613377D01*
X173352921Y-152591996D01*
X173360650Y-152571442D01*
X173367672Y-152528823D01*
X173377491Y-152486774D01*
X173378216Y-152464833D01*
X173381787Y-152443163D01*
X173380360Y-152400000D01*
X173381787Y-152356837D01*
X173378216Y-152335167D01*
X173377491Y-152313226D01*
X173367672Y-152271177D01*
X173360650Y-152228558D01*
X173352921Y-152208004D01*
X173347929Y-152186623D01*
X173330094Y-152147295D01*
X173314893Y-152106867D01*
X173303302Y-152088214D01*
X173294235Y-152068220D01*
X173269073Y-152033130D01*
X173246275Y-151996442D01*
X173231268Y-151980408D01*
X173218474Y-151962567D01*
X173186952Y-151933063D01*
X173157433Y-151901525D01*
X173139583Y-151888725D01*
X173123557Y-151873725D01*
X173086888Y-151850939D01*
X173078253Y-151844747D01*
X173059314Y-151833805D01*
X173013132Y-151805107D01*
X173003148Y-151801353D01*
X164306635Y-146776702D01*
X164259622Y-146713452D01*
X164236000Y-146654908D01*
X164236000Y-129962664D01*
X164258839Y-129908106D01*
X169585210Y-126836566D01*
X173191866Y-124802042D01*
X177131000Y-124802042D01*
X177131000Y-125133958D01*
X177195754Y-125459496D01*
X177322772Y-125766147D01*
X177507175Y-126042125D01*
X177741875Y-126276825D01*
X178017853Y-126461228D01*
X178324504Y-126588246D01*
X178650042Y-126653000D01*
X178981958Y-126653000D01*
X179307496Y-126588246D01*
X179614147Y-126461228D01*
X179890125Y-126276825D01*
X180124825Y-126042125D01*
X180309228Y-125766147D01*
X180436246Y-125459496D01*
X180501000Y-125133958D01*
X180501000Y-124802042D01*
X180436246Y-124476504D01*
X180309228Y-124169853D01*
X180124825Y-123893875D01*
X179890125Y-123659175D01*
X179614147Y-123474772D01*
X179307496Y-123347754D01*
X178981958Y-123283000D01*
X178650042Y-123283000D01*
X178324504Y-123347754D01*
X178017853Y-123474772D01*
X177741875Y-123659175D01*
X177507175Y-123893875D01*
X177322772Y-124169853D01*
X177195754Y-124476504D01*
X177131000Y-124802042D01*
X173191866Y-124802042D01*
X178750499Y-121666403D01*
X178847110Y-121627333D01*
X178942267Y-121615308D01*
X179006471Y-121623892D01*
G37*
G04 #@! TD.AperFunction*
M02*
