G04 #@! TF.GenerationSoftware,KiCad,Pcbnew,(5.1.10)-1*
G04 #@! TF.CreationDate,2021-05-30T11:34:14-07:00*
G04 #@! TF.ProjectId,snowstake,736e6f77-7374-4616-9b65-2e6b69636164,0.1*
G04 #@! TF.SameCoordinates,Original*
G04 #@! TF.FileFunction,Legend,Bot*
G04 #@! TF.FilePolarity,Positive*
%FSLAX46Y46*%
G04 Gerber Fmt 4.6, Leading zero omitted, Abs format (unit mm)*
G04 Created by KiCad (PCBNEW (5.1.10)-1) date 2021-05-30 11:34:14*
%MOMM*%
%LPD*%
G01*
G04 APERTURE LIST*
%ADD10C,0.120000*%
%ADD11C,0.150000*%
%ADD12C,2.202000*%
%ADD13C,2.002000*%
G04 APERTURE END LIST*
D10*
X220682744Y-131275256D02*
X224493256Y-129075256D01*
X224493256Y-129075256D02*
X222293256Y-125264744D01*
X222293256Y-125264744D02*
X218482744Y-127464744D01*
X218482744Y-127464744D02*
X220682744Y-131275256D01*
X212557000Y-125771000D02*
X216957000Y-125771000D01*
X216957000Y-125771000D02*
X216957000Y-121371000D01*
X216957000Y-121371000D02*
X212557000Y-121371000D01*
X212557000Y-121371000D02*
X212557000Y-125771000D01*
X212557000Y-120056000D02*
X216957000Y-120056000D01*
X216957000Y-120056000D02*
X216957000Y-115656000D01*
X216957000Y-115656000D02*
X212557000Y-115656000D01*
X212557000Y-115656000D02*
X212557000Y-120056000D01*
D11*
X224212032Y-130464352D02*
X223717160Y-130750066D01*
X224464596Y-131473235D02*
X223964596Y-130607209D01*
X223928485Y-131782758D02*
X223428485Y-130916733D01*
X223098570Y-131107209D01*
X223039901Y-131196068D01*
X223022471Y-131261116D01*
X223028851Y-131367405D01*
X223100280Y-131491122D01*
X223189138Y-131549792D01*
X223254187Y-131567221D01*
X223360475Y-131560842D01*
X223690390Y-131370365D01*
X222644938Y-131369114D02*
X222108827Y-131678638D01*
X222587978Y-131841886D01*
X222464260Y-131913314D01*
X222405591Y-132002173D01*
X222388162Y-132067221D01*
X222394541Y-132173509D01*
X222513589Y-132379706D01*
X222602447Y-132438375D01*
X222667496Y-132455805D01*
X222773784Y-132449425D01*
X223021220Y-132306568D01*
X223079889Y-132217710D01*
X223097319Y-132152661D01*
X216018904Y-126833380D02*
X215447476Y-126833380D01*
X215733190Y-127833380D02*
X215733190Y-126833380D01*
X215114142Y-127833380D02*
X215114142Y-126833380D01*
X214733190Y-126833380D01*
X214637952Y-126881000D01*
X214590333Y-126928619D01*
X214542714Y-127023857D01*
X214542714Y-127166714D01*
X214590333Y-127261952D01*
X214637952Y-127309571D01*
X214733190Y-127357190D01*
X215114142Y-127357190D01*
X214161761Y-126928619D02*
X214114142Y-126881000D01*
X214018904Y-126833380D01*
X213780809Y-126833380D01*
X213685571Y-126881000D01*
X213637952Y-126928619D01*
X213590333Y-127023857D01*
X213590333Y-127119095D01*
X213637952Y-127261952D01*
X214209380Y-127833380D01*
X213590333Y-127833380D01*
X211827904Y-115276380D02*
X211256476Y-115276380D01*
X211542190Y-116276380D02*
X211542190Y-115276380D01*
X210923142Y-116276380D02*
X210923142Y-115276380D01*
X210542190Y-115276380D01*
X210446952Y-115324000D01*
X210399333Y-115371619D01*
X210351714Y-115466857D01*
X210351714Y-115609714D01*
X210399333Y-115704952D01*
X210446952Y-115752571D01*
X210542190Y-115800190D01*
X210923142Y-115800190D01*
X209399333Y-116276380D02*
X209970761Y-116276380D01*
X209685047Y-116276380D02*
X209685047Y-115276380D01*
X209780285Y-115419238D01*
X209875523Y-115514476D01*
X209970761Y-115562095D01*
%LPC*%
D12*
X227584000Y-124968000D03*
X178816000Y-124968000D03*
G36*
G01*
X220711782Y-131027551D02*
X218711782Y-127563449D01*
G75*
G02*
X218730449Y-127493782I44167J25500D01*
G01*
X222194551Y-125493782D01*
G75*
G02*
X222264218Y-125512449I25500J-44167D01*
G01*
X224264218Y-128976551D01*
G75*
G02*
X224245551Y-129046218I-44167J-25500D01*
G01*
X220781449Y-131046218D01*
G75*
G02*
X220711782Y-131027551I-25500J44167D01*
G01*
G37*
G36*
G01*
X212706000Y-125571000D02*
X212706000Y-121571000D01*
G75*
G02*
X212757000Y-121520000I51000J0D01*
G01*
X216757000Y-121520000D01*
G75*
G02*
X216808000Y-121571000I0J-51000D01*
G01*
X216808000Y-125571000D01*
G75*
G02*
X216757000Y-125622000I-51000J0D01*
G01*
X212757000Y-125622000D01*
G75*
G02*
X212706000Y-125571000I0J51000D01*
G01*
G37*
G36*
G01*
X212706000Y-119856000D02*
X212706000Y-115856000D01*
G75*
G02*
X212757000Y-115805000I51000J0D01*
G01*
X216757000Y-115805000D01*
G75*
G02*
X216808000Y-115856000I0J-51000D01*
G01*
X216808000Y-119856000D01*
G75*
G02*
X216757000Y-119907000I-51000J0D01*
G01*
X212757000Y-119907000D01*
G75*
G02*
X212706000Y-119856000I0J51000D01*
G01*
G37*
D13*
X194307460Y-137910280D03*
X194307460Y-140450280D03*
X194307460Y-142990280D03*
X194307460Y-145530280D03*
X194307460Y-148070280D03*
X194307460Y-150610280D03*
X194307460Y-153150280D03*
X194307460Y-155690280D03*
X194307460Y-158230280D03*
X194307460Y-160770280D03*
X194307460Y-163310280D03*
X194307460Y-165850280D03*
X212087460Y-137910280D03*
X212087460Y-140450280D03*
X212087460Y-142990280D03*
X212087460Y-145530280D03*
X212087460Y-148070280D03*
X212087460Y-150610280D03*
X212087460Y-153150280D03*
X212087460Y-155690280D03*
X212087460Y-158230280D03*
X212087460Y-160770280D03*
X212087460Y-163310280D03*
G36*
G01*
X213088460Y-164900280D02*
X213088460Y-166800280D01*
G75*
G02*
X213037460Y-166851280I-51000J0D01*
G01*
X211137460Y-166851280D01*
G75*
G02*
X211086460Y-166800280I0J51000D01*
G01*
X211086460Y-164900280D01*
G75*
G02*
X211137460Y-164849280I51000J0D01*
G01*
X213037460Y-164849280D01*
G75*
G02*
X213088460Y-164900280I0J-51000D01*
G01*
G37*
M02*
