M48
; DRILL file {KiCad (5.1.10)-1} date 05/29/21 20:37:39
; FORMAT={-:-/ absolute / inch / decimal}
; #@! TF.CreationDate,2021-05-29T20:37:39-07:00
; #@! TF.GenerationSoftware,Kicad,Pcbnew,(5.1.10)-1
; #@! TF.FileFunction,Plated,1,2,PTH
FMAT,2
INCH
T1C0.0157
T2C0.0402
%
G90
G05
T1
X6.93Y-5.38
X6.93Y-6.62
X7.4656Y-5.6644
X7.51Y-5.63
X7.86Y-6.16
X7.91Y-6.08
X8.0Y-4.72
X8.02Y-5.8
X8.02Y-6.4
X8.09Y-6.54
X9.13Y-5.35
T2
X7.6499Y-5.4295
X7.6499Y-5.5295
X7.6499Y-5.6295
X7.6499Y-5.7295
X7.6499Y-5.8295
X7.6499Y-5.9295
X7.6499Y-6.0295
X7.6499Y-6.1295
X7.6499Y-6.2295
X7.6499Y-6.3295
X7.6499Y-6.4295
X7.6499Y-6.5295
X8.3499Y-5.4295
X8.3499Y-5.5295
X8.3499Y-5.6295
X8.3499Y-5.7295
X8.3499Y-5.8295
X8.3499Y-5.9295
X8.3499Y-6.0295
X8.3499Y-6.1295
X8.3499Y-6.2295
X8.3499Y-6.3295
X8.3499Y-6.4295
X8.3499Y-6.5295
T0
M30
