G04 #@! TF.GenerationSoftware,KiCad,Pcbnew,(5.1.10)-1*
G04 #@! TF.CreationDate,2021-05-30T11:34:14-07:00*
G04 #@! TF.ProjectId,snowstake,736e6f77-7374-4616-9b65-2e6b69636164,0.1*
G04 #@! TF.SameCoordinates,Original*
G04 #@! TF.FileFunction,Legend,Top*
G04 #@! TF.FilePolarity,Positive*
%FSLAX46Y46*%
G04 Gerber Fmt 4.6, Leading zero omitted, Abs format (unit mm)*
G04 Created by KiCad (PCBNEW (5.1.10)-1) date 2021-05-30 11:34:14*
%MOMM*%
%LPD*%
G01*
G04 APERTURE LIST*
%ADD10C,0.100000*%
%ADD11C,0.150000*%
%ADD12C,0.200000*%
%ADD13C,0.120000*%
%ADD14C,0.050000*%
%ADD15C,2.202000*%
%ADD16C,1.500000*%
%ADD17C,2.002000*%
G04 APERTURE END LIST*
D10*
G36*
X209042000Y-149047200D02*
G01*
X209042000Y-155752800D01*
X203200000Y-159131000D01*
X197383400Y-155778200D01*
X197358000Y-149047200D01*
X203200000Y-145669000D01*
X209042000Y-149047200D01*
G37*
X209042000Y-149047200D02*
X209042000Y-155752800D01*
X203200000Y-159131000D01*
X197383400Y-155778200D01*
X197358000Y-149047200D01*
X203200000Y-145669000D01*
X209042000Y-149047200D01*
D11*
X179625523Y-159892095D02*
X179720761Y-159701619D01*
X179720761Y-159320666D01*
X179625523Y-159130190D01*
X179435047Y-159034952D01*
X179339809Y-159034952D01*
X179149333Y-159130190D01*
X179054095Y-159320666D01*
X179054095Y-159606380D01*
X178958857Y-159796857D01*
X178768380Y-159892095D01*
X178673142Y-159892095D01*
X178482666Y-159796857D01*
X178387428Y-159606380D01*
X178387428Y-159320666D01*
X178482666Y-159130190D01*
X178387428Y-158177809D02*
X179720761Y-158177809D01*
X178577904Y-158177809D02*
X178482666Y-158082571D01*
X178387428Y-157892095D01*
X178387428Y-157606380D01*
X178482666Y-157415904D01*
X178673142Y-157320666D01*
X179720761Y-157320666D01*
X179720761Y-156082571D02*
X179625523Y-156273047D01*
X179530285Y-156368285D01*
X179339809Y-156463523D01*
X178768380Y-156463523D01*
X178577904Y-156368285D01*
X178482666Y-156273047D01*
X178387428Y-156082571D01*
X178387428Y-155796857D01*
X178482666Y-155606380D01*
X178577904Y-155511142D01*
X178768380Y-155415904D01*
X179339809Y-155415904D01*
X179530285Y-155511142D01*
X179625523Y-155606380D01*
X179720761Y-155796857D01*
X179720761Y-156082571D01*
X178387428Y-154749238D02*
X179720761Y-154368285D01*
X178768380Y-153987333D01*
X179720761Y-153606380D01*
X178387428Y-153225428D01*
X179625523Y-152558761D02*
X179720761Y-152368285D01*
X179720761Y-151987333D01*
X179625523Y-151796857D01*
X179435047Y-151701619D01*
X179339809Y-151701619D01*
X179149333Y-151796857D01*
X179054095Y-151987333D01*
X179054095Y-152273047D01*
X178958857Y-152463523D01*
X178768380Y-152558761D01*
X178673142Y-152558761D01*
X178482666Y-152463523D01*
X178387428Y-152273047D01*
X178387428Y-151987333D01*
X178482666Y-151796857D01*
X178387428Y-151130190D02*
X178387428Y-150368285D01*
X177720761Y-150844476D02*
X179435047Y-150844476D01*
X179625523Y-150749238D01*
X179720761Y-150558761D01*
X179720761Y-150368285D01*
X179720761Y-148844476D02*
X178673142Y-148844476D01*
X178482666Y-148939714D01*
X178387428Y-149130190D01*
X178387428Y-149511142D01*
X178482666Y-149701619D01*
X179625523Y-148844476D02*
X179720761Y-149034952D01*
X179720761Y-149511142D01*
X179625523Y-149701619D01*
X179435047Y-149796857D01*
X179244571Y-149796857D01*
X179054095Y-149701619D01*
X178958857Y-149511142D01*
X178958857Y-149034952D01*
X178863619Y-148844476D01*
X179720761Y-147892095D02*
X177720761Y-147892095D01*
X178958857Y-147701619D02*
X179720761Y-147130190D01*
X178387428Y-147130190D02*
X179149333Y-147892095D01*
X179625523Y-145511142D02*
X179720761Y-145701619D01*
X179720761Y-146082571D01*
X179625523Y-146273047D01*
X179435047Y-146368285D01*
X178673142Y-146368285D01*
X178482666Y-146273047D01*
X178387428Y-146082571D01*
X178387428Y-145701619D01*
X178482666Y-145511142D01*
X178673142Y-145415904D01*
X178863619Y-145415904D01*
X179054095Y-146368285D01*
D12*
X227655380Y-160472047D02*
X226655380Y-160472047D01*
X227655380Y-160043476D02*
X227131571Y-160043476D01*
X227036333Y-160091095D01*
X226988714Y-160186333D01*
X226988714Y-160329190D01*
X227036333Y-160424428D01*
X227083952Y-160472047D01*
X227655380Y-159424428D02*
X227607761Y-159519666D01*
X227560142Y-159567285D01*
X227464904Y-159614904D01*
X227179190Y-159614904D01*
X227083952Y-159567285D01*
X227036333Y-159519666D01*
X226988714Y-159424428D01*
X226988714Y-159281571D01*
X227036333Y-159186333D01*
X227083952Y-159138714D01*
X227179190Y-159091095D01*
X227464904Y-159091095D01*
X227560142Y-159138714D01*
X227607761Y-159186333D01*
X227655380Y-159281571D01*
X227655380Y-159424428D01*
X227655380Y-158233952D02*
X227131571Y-158233952D01*
X227036333Y-158281571D01*
X226988714Y-158376809D01*
X226988714Y-158567285D01*
X227036333Y-158662523D01*
X227607761Y-158233952D02*
X227655380Y-158329190D01*
X227655380Y-158567285D01*
X227607761Y-158662523D01*
X227512523Y-158710142D01*
X227417285Y-158710142D01*
X227322047Y-158662523D01*
X227274428Y-158567285D01*
X227274428Y-158329190D01*
X227226809Y-158233952D01*
X226988714Y-157757761D02*
X227655380Y-157757761D01*
X227083952Y-157757761D02*
X227036333Y-157710142D01*
X226988714Y-157614904D01*
X226988714Y-157472047D01*
X227036333Y-157376809D01*
X227131571Y-157329190D01*
X227655380Y-157329190D01*
X226988714Y-156424428D02*
X227798238Y-156424428D01*
X227893476Y-156472047D01*
X227941095Y-156519666D01*
X227988714Y-156614904D01*
X227988714Y-156757761D01*
X227941095Y-156853000D01*
X227607761Y-156424428D02*
X227655380Y-156519666D01*
X227655380Y-156710142D01*
X227607761Y-156805380D01*
X227560142Y-156853000D01*
X227464904Y-156900619D01*
X227179190Y-156900619D01*
X227083952Y-156853000D01*
X227036333Y-156805380D01*
X226988714Y-156710142D01*
X226988714Y-156519666D01*
X227036333Y-156424428D01*
X226988714Y-155948238D02*
X227988714Y-155948238D01*
X227036333Y-155948238D02*
X226988714Y-155853000D01*
X226988714Y-155662523D01*
X227036333Y-155567285D01*
X227083952Y-155519666D01*
X227179190Y-155472047D01*
X227464904Y-155472047D01*
X227560142Y-155519666D01*
X227607761Y-155567285D01*
X227655380Y-155662523D01*
X227655380Y-155853000D01*
X227607761Y-155948238D01*
X227179190Y-154424428D02*
X227131571Y-154472047D01*
X227083952Y-154567285D01*
X227083952Y-154662523D01*
X227131571Y-154757761D01*
X227179190Y-154805380D01*
X227274428Y-154853000D01*
X227369666Y-154853000D01*
X227464904Y-154805380D01*
X227512523Y-154757761D01*
X227560142Y-154662523D01*
X227560142Y-154567285D01*
X227512523Y-154472047D01*
X227464904Y-154424428D01*
X227083952Y-154424428D02*
X227464904Y-154424428D01*
X227512523Y-154376809D01*
X227512523Y-154329190D01*
X227464904Y-154233952D01*
X227369666Y-154186333D01*
X227131571Y-154186333D01*
X226988714Y-154281571D01*
X226893476Y-154424428D01*
X226845857Y-154614904D01*
X226893476Y-154805380D01*
X226988714Y-154948238D01*
X227131571Y-155043476D01*
X227322047Y-155091095D01*
X227512523Y-155043476D01*
X227655380Y-154948238D01*
X227750619Y-154805380D01*
X227798238Y-154614904D01*
X227750619Y-154424428D01*
X227655380Y-154281571D01*
D10*
G36*
X221437200Y-167360600D02*
G01*
X206248000Y-177469800D01*
X198399400Y-164820600D01*
X214274400Y-156083000D01*
X221437200Y-167360600D01*
G37*
X221437200Y-167360600D02*
X206248000Y-177469800D01*
X198399400Y-164820600D01*
X214274400Y-156083000D01*
X221437200Y-167360600D01*
G36*
X207060800Y-164185600D02*
G01*
X200050400Y-177800000D01*
X183845200Y-167106600D01*
X191643000Y-155752800D01*
X207060800Y-164185600D01*
G37*
X207060800Y-164185600D02*
X200050400Y-177800000D01*
X183845200Y-167106600D01*
X191643000Y-155752800D01*
X207060800Y-164185600D01*
G36*
X222986600Y-136753600D02*
G01*
X213537800Y-148615400D01*
X198882000Y-139522200D01*
X206756000Y-127000000D01*
X222986600Y-136753600D01*
G37*
X222986600Y-136753600D02*
X213537800Y-148615400D01*
X198882000Y-139522200D01*
X206756000Y-127000000D01*
X222986600Y-136753600D01*
G36*
X208788000Y-138582400D02*
G01*
X199491600Y-144627600D01*
X191820800Y-149606000D01*
X183057800Y-136880600D01*
X199644000Y-126492000D01*
X208788000Y-138582400D01*
G37*
X208788000Y-138582400D02*
X199491600Y-144627600D01*
X191820800Y-149606000D01*
X183057800Y-136880600D01*
X199644000Y-126492000D01*
X208788000Y-138582400D01*
G36*
X226060000Y-142748000D02*
G01*
X226060000Y-163068000D01*
X210820000Y-169672000D01*
X210820000Y-134620000D01*
X226060000Y-142748000D01*
G37*
X226060000Y-142748000D02*
X226060000Y-163068000D01*
X210820000Y-169672000D01*
X210820000Y-134620000D01*
X226060000Y-142748000D01*
G36*
X195580000Y-168656000D02*
G01*
X181356000Y-163677600D01*
X180873400Y-142240000D01*
X195580000Y-136144000D01*
X195580000Y-168656000D01*
G37*
X195580000Y-168656000D02*
X181356000Y-163677600D01*
X180873400Y-142240000D01*
X195580000Y-136144000D01*
X195580000Y-168656000D01*
D13*
X211328000Y-169164000D02*
X195072000Y-169164000D01*
D10*
G36*
X200736200Y-185623200D02*
G01*
X191770000Y-191008000D01*
X188468000Y-188976000D01*
X188468000Y-185293000D01*
X200660000Y-178308000D01*
X200736200Y-185623200D01*
G37*
X200736200Y-185623200D02*
X191770000Y-191008000D01*
X188468000Y-188976000D01*
X188468000Y-185293000D01*
X200660000Y-178308000D01*
X200736200Y-185623200D01*
G36*
X217932000Y-185166000D02*
G01*
X217932000Y-188976000D01*
X214884000Y-190754000D01*
X205994000Y-185699400D01*
X205740000Y-177800000D01*
X217932000Y-185166000D01*
G37*
X217932000Y-185166000D02*
X217932000Y-188976000D01*
X214884000Y-190754000D01*
X205994000Y-185699400D01*
X205740000Y-177800000D01*
X217932000Y-185166000D01*
G36*
X217678000Y-115824000D02*
G01*
X217678000Y-119126000D01*
X206248000Y-125730000D01*
X206248000Y-118364000D01*
X214376000Y-114046000D01*
X217678000Y-115824000D01*
G37*
X217678000Y-115824000D02*
X217678000Y-119126000D01*
X206248000Y-125730000D01*
X206248000Y-118364000D01*
X214376000Y-114046000D01*
X217678000Y-115824000D01*
G36*
X200152000Y-118338600D02*
G01*
X199898000Y-125984000D01*
X188468000Y-119888000D01*
X188468000Y-115824000D01*
X192024000Y-113792000D01*
X200152000Y-118338600D01*
G37*
X200152000Y-118338600D02*
X199898000Y-125984000D01*
X188468000Y-119888000D01*
X188468000Y-115824000D01*
X192024000Y-113792000D01*
X200152000Y-118338600D01*
G36*
X181864000Y-164084000D02*
G01*
X175260000Y-169621200D01*
X164084000Y-162534600D01*
X164084000Y-157988000D01*
X167894000Y-155702000D01*
X181864000Y-164084000D01*
G37*
X181864000Y-164084000D02*
X175260000Y-169621200D01*
X164084000Y-162534600D01*
X164084000Y-157988000D01*
X167894000Y-155702000D01*
X181864000Y-164084000D01*
G36*
X242316000Y-142240000D02*
G01*
X242316000Y-146812000D01*
X239014000Y-148590000D01*
X224536000Y-141097000D01*
X232308400Y-136652000D01*
X242316000Y-142240000D01*
G37*
X242316000Y-142240000D02*
X242316000Y-146812000D01*
X239014000Y-148590000D01*
X224536000Y-141097000D01*
X232308400Y-136652000D01*
X242316000Y-142240000D01*
G36*
X242316000Y-157988000D02*
G01*
X242316000Y-161798000D01*
X233172000Y-167386000D01*
X226314000Y-163068000D01*
X238506000Y-155956000D01*
X242316000Y-157988000D01*
G37*
X242316000Y-157988000D02*
X242316000Y-161798000D01*
X233172000Y-167386000D01*
X226314000Y-163068000D01*
X238506000Y-155956000D01*
X242316000Y-157988000D01*
G36*
X181864000Y-140716000D02*
G01*
X167132000Y-148590000D01*
X164084000Y-146812000D01*
X164084000Y-143002000D01*
X176530000Y-136398000D01*
X181864000Y-140716000D01*
G37*
X181864000Y-140716000D02*
X167132000Y-148590000D01*
X164084000Y-146812000D01*
X164084000Y-143002000D01*
X176530000Y-136398000D01*
X181864000Y-140716000D01*
G36*
X207314800Y-195072000D02*
G01*
X203200000Y-197612000D01*
X199161400Y-195072000D01*
X199136000Y-170180000D01*
X207264000Y-170180000D01*
X207314800Y-195072000D01*
G37*
X207314800Y-195072000D02*
X203200000Y-197612000D01*
X199161400Y-195072000D01*
X199136000Y-170180000D01*
X207264000Y-170180000D01*
X207314800Y-195072000D01*
G36*
X207010000Y-109474000D02*
G01*
X207010000Y-132080000D01*
X199136000Y-132080000D01*
X199136000Y-109728000D01*
X203200000Y-107188000D01*
X207010000Y-109474000D01*
G37*
X207010000Y-109474000D02*
X207010000Y-132080000D01*
X199136000Y-132080000D01*
X199136000Y-109728000D01*
X203200000Y-107188000D01*
X207010000Y-109474000D01*
G36*
X231241600Y-172135800D02*
G01*
X231267000Y-181356000D01*
X227584000Y-183388000D01*
X224155000Y-181356000D01*
X224129600Y-168706800D01*
X231241600Y-172135800D01*
G37*
X231241600Y-172135800D02*
X231267000Y-181356000D01*
X227584000Y-183388000D01*
X224155000Y-181356000D01*
X224129600Y-168706800D01*
X231241600Y-172135800D01*
G36*
X182270400Y-181610000D02*
G01*
X178866800Y-183642000D01*
X174752000Y-181102000D01*
X174726600Y-170611800D01*
X182016400Y-169062400D01*
X182270400Y-181610000D01*
G37*
X182270400Y-181610000D02*
X178866800Y-183642000D01*
X174752000Y-181102000D01*
X174726600Y-170611800D01*
X182016400Y-169062400D01*
X182270400Y-181610000D01*
G36*
X231140000Y-123444000D02*
G01*
X231140000Y-135712200D01*
X223240600Y-136728200D01*
X223266000Y-123952000D01*
X227584000Y-121412000D01*
X231140000Y-123444000D01*
G37*
X231140000Y-123444000D02*
X231140000Y-135712200D01*
X223240600Y-136728200D01*
X223266000Y-123952000D01*
X227584000Y-121412000D01*
X231140000Y-123444000D01*
G36*
X242316000Y-129794000D02*
G01*
X242316000Y-134620000D01*
X220014800Y-147497800D01*
X214884000Y-139700000D01*
X237744000Y-127254000D01*
X242316000Y-129794000D01*
G37*
X242316000Y-129794000D02*
X242316000Y-134620000D01*
X220014800Y-147497800D01*
X214884000Y-139700000D01*
X237744000Y-127254000D01*
X242316000Y-129794000D01*
G36*
X191008000Y-165100000D02*
G01*
X167386000Y-177038000D01*
X164084000Y-175006000D01*
X164084000Y-171196000D01*
X186436000Y-159004000D01*
X191008000Y-165100000D01*
G37*
X191008000Y-165100000D02*
X167386000Y-177038000D01*
X164084000Y-175006000D01*
X164084000Y-171196000D01*
X186436000Y-159004000D01*
X191008000Y-165100000D01*
G36*
X242316000Y-169672000D02*
G01*
X242316000Y-175006000D01*
X238760000Y-177038000D01*
X215392000Y-165100000D01*
X219456000Y-158496000D01*
X242316000Y-169672000D01*
G37*
X242316000Y-169672000D02*
X242316000Y-175006000D01*
X238760000Y-177038000D01*
X215392000Y-165100000D01*
X219456000Y-158496000D01*
X242316000Y-169672000D01*
G36*
X182118000Y-123444000D02*
G01*
X182118000Y-137160000D01*
X175310800Y-133400800D01*
X175310800Y-123698000D01*
X178816000Y-121412000D01*
X182118000Y-123444000D01*
G37*
X182118000Y-123444000D02*
X182118000Y-137160000D01*
X175310800Y-133400800D01*
X175310800Y-123698000D01*
X178816000Y-121412000D01*
X182118000Y-123444000D01*
G36*
X191516000Y-139700000D02*
G01*
X186867800Y-147294600D01*
X164084000Y-134620000D01*
X164084000Y-129794000D01*
X168656000Y-127254000D01*
X191516000Y-139700000D01*
G37*
X191516000Y-139700000D02*
X186867800Y-147294600D01*
X164084000Y-134620000D01*
X164084000Y-129794000D01*
X168656000Y-127254000D01*
X191516000Y-139700000D01*
D14*
X214376000Y-170688000D02*
X192024000Y-170688000D01*
D13*
X218522733Y-147318000D02*
X218865267Y-147318000D01*
X218522733Y-148338000D02*
X218865267Y-148338000D01*
X234294678Y-169906694D02*
X234591322Y-170077961D01*
X233784678Y-170790039D02*
X234081322Y-170961306D01*
X203710000Y-184232733D02*
X203710000Y-184575267D01*
X202690000Y-184232733D02*
X202690000Y-184575267D01*
X219411733Y-153795000D02*
X219754267Y-153795000D01*
X219411733Y-154815000D02*
X219754267Y-154815000D01*
X172615322Y-170536039D02*
X172318678Y-170707306D01*
X172105322Y-169652694D02*
X171808678Y-169823961D01*
X172613322Y-135401306D02*
X172316678Y-135230039D01*
X173123322Y-134517961D02*
X172826678Y-134346694D01*
X202690000Y-117138267D02*
X202690000Y-116795733D01*
X203710000Y-117138267D02*
X203710000Y-116795733D01*
X234419678Y-133755961D02*
X234716322Y-133584694D01*
X234929678Y-134639306D02*
X235226322Y-134468039D01*
X221163000Y-150497000D02*
X220233000Y-150497000D01*
X218003000Y-150497000D02*
X218933000Y-150497000D01*
X218003000Y-150497000D02*
X218003000Y-152657000D01*
X221163000Y-150497000D02*
X221163000Y-151957000D01*
X236602076Y-172797384D02*
X238927354Y-174139884D01*
X238927354Y-174139884D02*
X239887354Y-172477116D01*
X239887354Y-172477116D02*
X237562076Y-171134616D01*
X202240000Y-188992000D02*
X202240000Y-191677000D01*
X202240000Y-191677000D02*
X204160000Y-191677000D01*
X204160000Y-191677000D02*
X204160000Y-188992000D01*
X168788025Y-171134616D02*
X166462747Y-172477116D01*
X166462747Y-172477116D02*
X167422747Y-174139884D01*
X167422747Y-174139884D02*
X169748025Y-172797384D01*
X170129025Y-132256616D02*
X167803747Y-130914116D01*
X167803747Y-130914116D02*
X166843747Y-132576884D01*
X166843747Y-132576884D02*
X169169025Y-133919384D01*
X204160000Y-114284000D02*
X204160000Y-111599000D01*
X204160000Y-111599000D02*
X202240000Y-111599000D01*
X202240000Y-111599000D02*
X202240000Y-114284000D01*
X237992975Y-133411384D02*
X240318253Y-132068884D01*
X240318253Y-132068884D02*
X239358253Y-130406116D01*
X239358253Y-130406116D02*
X237032975Y-131748616D01*
X216059936Y-129265000D02*
X217264064Y-129265000D01*
X216059936Y-131085000D02*
X217264064Y-131085000D01*
X191645000Y-162388733D02*
X191645000Y-162731267D01*
X190625000Y-162388733D02*
X190625000Y-162731267D01*
X214882000Y-164763267D02*
X214882000Y-164420733D01*
X215902000Y-164763267D02*
X215902000Y-164420733D01*
D11*
X193037460Y-136640280D02*
X194561460Y-133610280D01*
X213357460Y-136640280D02*
X211833460Y-133610280D01*
X211833460Y-133610280D02*
X194561460Y-133610280D01*
X193037460Y-169750740D02*
X193037460Y-136640280D01*
X213357460Y-169750280D02*
X213357460Y-136640280D01*
X199184260Y-169750740D02*
X193037460Y-169750740D01*
X207210660Y-169750280D02*
X213357460Y-169750280D01*
X207210660Y-171655740D02*
X207210660Y-169750740D01*
X199184260Y-171655740D02*
X199184260Y-169750740D01*
X207210660Y-171655740D02*
X199184260Y-171655740D01*
X226822095Y-123388380D02*
X226822095Y-122388380D01*
X226822095Y-122864571D02*
X227393523Y-122864571D01*
X227393523Y-123388380D02*
X227393523Y-122388380D01*
X227822095Y-122483619D02*
X227869714Y-122436000D01*
X227964952Y-122388380D01*
X228203047Y-122388380D01*
X228298285Y-122436000D01*
X228345904Y-122483619D01*
X228393523Y-122578857D01*
X228393523Y-122674095D01*
X228345904Y-122816952D01*
X227774476Y-123388380D01*
X228393523Y-123388380D01*
X178054095Y-123388380D02*
X178054095Y-122388380D01*
X178054095Y-122864571D02*
X178625523Y-122864571D01*
X178625523Y-123388380D02*
X178625523Y-122388380D01*
X179625523Y-123388380D02*
X179054095Y-123388380D01*
X179339809Y-123388380D02*
X179339809Y-122388380D01*
X179244571Y-122531238D01*
X179149333Y-122626476D01*
X179054095Y-122674095D01*
X189936571Y-174712571D02*
X189603238Y-174712571D01*
X189603238Y-175236380D02*
X189603238Y-174236380D01*
X190079428Y-174236380D01*
X190460380Y-175236380D02*
X190460380Y-174236380D01*
X190936571Y-175236380D02*
X190936571Y-174236380D01*
X191174666Y-174236380D01*
X191317523Y-174284000D01*
X191412761Y-174379238D01*
X191460380Y-174474476D01*
X191508000Y-174664952D01*
X191508000Y-174807809D01*
X191460380Y-174998285D01*
X191412761Y-175093523D01*
X191317523Y-175188761D01*
X191174666Y-175236380D01*
X190936571Y-175236380D01*
X191841333Y-174236380D02*
X192460380Y-174236380D01*
X192127047Y-174617333D01*
X192269904Y-174617333D01*
X192365142Y-174664952D01*
X192412761Y-174712571D01*
X192460380Y-174807809D01*
X192460380Y-175045904D01*
X192412761Y-175141142D01*
X192365142Y-175188761D01*
X192269904Y-175236380D01*
X191984190Y-175236380D01*
X191888952Y-175188761D01*
X191841333Y-175141142D01*
X174442571Y-150328571D02*
X174109238Y-150328571D01*
X174109238Y-150852380D02*
X174109238Y-149852380D01*
X174585428Y-149852380D01*
X174966380Y-150852380D02*
X174966380Y-149852380D01*
X175442571Y-150852380D02*
X175442571Y-149852380D01*
X175680666Y-149852380D01*
X175823523Y-149900000D01*
X175918761Y-149995238D01*
X175966380Y-150090476D01*
X176014000Y-150280952D01*
X176014000Y-150423809D01*
X175966380Y-150614285D01*
X175918761Y-150709523D01*
X175823523Y-150804761D01*
X175680666Y-150852380D01*
X175442571Y-150852380D01*
X176394952Y-149947619D02*
X176442571Y-149900000D01*
X176537809Y-149852380D01*
X176775904Y-149852380D01*
X176871142Y-149900000D01*
X176918761Y-149947619D01*
X176966380Y-150042857D01*
X176966380Y-150138095D01*
X176918761Y-150280952D01*
X176347333Y-150852380D01*
X176966380Y-150852380D01*
X227020571Y-150328571D02*
X226687238Y-150328571D01*
X226687238Y-150852380D02*
X226687238Y-149852380D01*
X227163428Y-149852380D01*
X227544380Y-150852380D02*
X227544380Y-149852380D01*
X228020571Y-150852380D02*
X228020571Y-149852380D01*
X228258666Y-149852380D01*
X228401523Y-149900000D01*
X228496761Y-149995238D01*
X228544380Y-150090476D01*
X228592000Y-150280952D01*
X228592000Y-150423809D01*
X228544380Y-150614285D01*
X228496761Y-150709523D01*
X228401523Y-150804761D01*
X228258666Y-150852380D01*
X228020571Y-150852380D01*
X229544380Y-150852380D02*
X228972952Y-150852380D01*
X229258666Y-150852380D02*
X229258666Y-149852380D01*
X229163428Y-149995238D01*
X229068190Y-150090476D01*
X228972952Y-150138095D01*
X218527333Y-146850380D02*
X218194000Y-146374190D01*
X217955904Y-146850380D02*
X217955904Y-145850380D01*
X218336857Y-145850380D01*
X218432095Y-145898000D01*
X218479714Y-145945619D01*
X218527333Y-146040857D01*
X218527333Y-146183714D01*
X218479714Y-146278952D01*
X218432095Y-146326571D01*
X218336857Y-146374190D01*
X217955904Y-146374190D01*
X219003523Y-146850380D02*
X219194000Y-146850380D01*
X219289238Y-146802761D01*
X219336857Y-146755142D01*
X219432095Y-146612285D01*
X219479714Y-146421809D01*
X219479714Y-146040857D01*
X219432095Y-145945619D01*
X219384476Y-145898000D01*
X219289238Y-145850380D01*
X219098761Y-145850380D01*
X219003523Y-145898000D01*
X218955904Y-145945619D01*
X218908285Y-146040857D01*
X218908285Y-146278952D01*
X218955904Y-146374190D01*
X219003523Y-146421809D01*
X219098761Y-146469428D01*
X219289238Y-146469428D01*
X219384476Y-146421809D01*
X219432095Y-146374190D01*
X219479714Y-146278952D01*
X234532471Y-169504024D02*
X234481892Y-168924964D01*
X234037600Y-169218309D02*
X234537600Y-168352284D01*
X234867514Y-168542760D01*
X234926183Y-168631618D01*
X234943613Y-168696667D01*
X234937233Y-168802955D01*
X234865805Y-168926673D01*
X234776946Y-168985342D01*
X234711898Y-169002772D01*
X234605609Y-168996392D01*
X234275695Y-168805916D01*
X235313057Y-169294866D02*
X235254388Y-169206008D01*
X235236959Y-169140959D01*
X235243338Y-169034671D01*
X235267148Y-168993432D01*
X235356006Y-168934762D01*
X235421055Y-168917333D01*
X235527343Y-168923712D01*
X235692300Y-169018951D01*
X235750969Y-169107809D01*
X235768399Y-169172858D01*
X235762019Y-169279146D01*
X235738210Y-169320385D01*
X235649352Y-169379054D01*
X235584303Y-169396484D01*
X235478015Y-169390104D01*
X235313057Y-169294866D01*
X235206769Y-169288486D01*
X235141720Y-169305916D01*
X235052862Y-169364585D01*
X234957624Y-169529543D01*
X234951244Y-169635831D01*
X234968674Y-169700879D01*
X235027343Y-169789738D01*
X235192300Y-169884976D01*
X235298588Y-169891356D01*
X235363637Y-169873926D01*
X235452496Y-169815257D01*
X235547734Y-169650300D01*
X235554113Y-169544011D01*
X235536684Y-169478963D01*
X235478015Y-169390104D01*
X205082380Y-184570666D02*
X204606190Y-184904000D01*
X205082380Y-185142095D02*
X204082380Y-185142095D01*
X204082380Y-184761142D01*
X204130000Y-184665904D01*
X204177619Y-184618285D01*
X204272857Y-184570666D01*
X204415714Y-184570666D01*
X204510952Y-184618285D01*
X204558571Y-184665904D01*
X204606190Y-184761142D01*
X204606190Y-185142095D01*
X204082380Y-184237333D02*
X204082380Y-183570666D01*
X205082380Y-183999238D01*
X219416333Y-153327380D02*
X219083000Y-152851190D01*
X218844904Y-153327380D02*
X218844904Y-152327380D01*
X219225857Y-152327380D01*
X219321095Y-152375000D01*
X219368714Y-152422619D01*
X219416333Y-152517857D01*
X219416333Y-152660714D01*
X219368714Y-152755952D01*
X219321095Y-152803571D01*
X219225857Y-152851190D01*
X218844904Y-152851190D01*
X220273476Y-152327380D02*
X220083000Y-152327380D01*
X219987761Y-152375000D01*
X219940142Y-152422619D01*
X219844904Y-152565476D01*
X219797285Y-152755952D01*
X219797285Y-153136904D01*
X219844904Y-153232142D01*
X219892523Y-153279761D01*
X219987761Y-153327380D01*
X220178238Y-153327380D01*
X220273476Y-153279761D01*
X220321095Y-153232142D01*
X220368714Y-153136904D01*
X220368714Y-152898809D01*
X220321095Y-152803571D01*
X220273476Y-152755952D01*
X220178238Y-152708333D01*
X219987761Y-152708333D01*
X219892523Y-152755952D01*
X219844904Y-152803571D01*
X219797285Y-152898809D01*
X173008852Y-171893522D02*
X172482082Y-171647796D01*
X172513981Y-172179237D02*
X172013981Y-171313211D01*
X172343895Y-171122735D01*
X172450183Y-171116355D01*
X172515232Y-171133785D01*
X172604091Y-171192454D01*
X172675519Y-171316172D01*
X172681899Y-171422460D01*
X172664469Y-171487509D01*
X172605800Y-171576367D01*
X172275886Y-171766843D01*
X173292399Y-170575116D02*
X172880006Y-170813211D01*
X173076862Y-171249414D01*
X173094292Y-171184365D01*
X173152961Y-171095507D01*
X173359157Y-170976459D01*
X173465446Y-170970079D01*
X173530494Y-170987509D01*
X173619353Y-171046178D01*
X173738400Y-171252375D01*
X173744780Y-171358663D01*
X173727350Y-171423711D01*
X173668681Y-171512570D01*
X173462485Y-171631617D01*
X173356197Y-171637997D01*
X173291148Y-171620567D01*
X171634471Y-136420856D02*
X171583892Y-135841796D01*
X171139600Y-136135141D02*
X171639600Y-135269116D01*
X171969514Y-135459592D01*
X172028183Y-135548450D01*
X172045613Y-135613499D01*
X172039233Y-135719787D01*
X171967805Y-135843505D01*
X171878946Y-135902174D01*
X171813898Y-135919604D01*
X171707609Y-135913224D01*
X171377695Y-135722748D01*
X172710112Y-136272077D02*
X172376779Y-136849427D01*
X172694392Y-135823115D02*
X172131053Y-136322657D01*
X172667164Y-136632180D01*
X202222380Y-117133666D02*
X201746190Y-117467000D01*
X202222380Y-117705095D02*
X201222380Y-117705095D01*
X201222380Y-117324142D01*
X201270000Y-117228904D01*
X201317619Y-117181285D01*
X201412857Y-117133666D01*
X201555714Y-117133666D01*
X201650952Y-117181285D01*
X201698571Y-117228904D01*
X201746190Y-117324142D01*
X201746190Y-117705095D01*
X201222380Y-116800333D02*
X201222380Y-116181285D01*
X201603333Y-116514619D01*
X201603333Y-116371761D01*
X201650952Y-116276523D01*
X201698571Y-116228904D01*
X201793809Y-116181285D01*
X202031904Y-116181285D01*
X202127142Y-116228904D01*
X202174761Y-116276523D01*
X202222380Y-116371761D01*
X202222380Y-116657476D01*
X202174761Y-116752714D01*
X202127142Y-116800333D01*
X234189852Y-133348690D02*
X233663082Y-133102964D01*
X233694981Y-133634405D02*
X233194981Y-132768379D01*
X233524895Y-132577903D01*
X233631183Y-132571523D01*
X233696232Y-132588953D01*
X233785091Y-132647622D01*
X233856519Y-132771340D01*
X233862899Y-132877628D01*
X233845469Y-132942677D01*
X233786800Y-133031535D01*
X233456886Y-133222011D01*
X234067386Y-132374667D02*
X234084816Y-132309618D01*
X234143485Y-132220760D01*
X234349681Y-132101712D01*
X234455969Y-132095333D01*
X234521018Y-132112762D01*
X234609877Y-132171432D01*
X234657496Y-132253910D01*
X234687685Y-132401438D01*
X234478528Y-133182024D01*
X235014639Y-132872500D01*
X217630619Y-151352238D02*
X217583000Y-151447476D01*
X217487761Y-151542714D01*
X217344904Y-151685571D01*
X217297285Y-151780809D01*
X217297285Y-151876047D01*
X217535380Y-151828428D02*
X217487761Y-151923666D01*
X217392523Y-152018904D01*
X217202047Y-152066523D01*
X216868714Y-152066523D01*
X216678238Y-152018904D01*
X216583000Y-151923666D01*
X216535380Y-151828428D01*
X216535380Y-151637952D01*
X216583000Y-151542714D01*
X216678238Y-151447476D01*
X216868714Y-151399857D01*
X217202047Y-151399857D01*
X217392523Y-151447476D01*
X217487761Y-151542714D01*
X217535380Y-151637952D01*
X217535380Y-151828428D01*
X216630619Y-151018904D02*
X216583000Y-150971285D01*
X216535380Y-150876047D01*
X216535380Y-150637952D01*
X216583000Y-150542714D01*
X216630619Y-150495095D01*
X216725857Y-150447476D01*
X216821095Y-150447476D01*
X216963952Y-150495095D01*
X217535380Y-151066523D01*
X217535380Y-150447476D01*
X236257701Y-173917667D02*
X236757701Y-173051642D01*
X236963897Y-173170689D01*
X237063806Y-173283357D01*
X237098665Y-173413455D01*
X237092286Y-173519743D01*
X237038287Y-173708510D01*
X236966858Y-173832228D01*
X236830381Y-173973376D01*
X236741522Y-174032045D01*
X236611425Y-174066904D01*
X236463897Y-174036715D01*
X236257701Y-173917667D01*
X237994880Y-173765928D02*
X237829923Y-173670689D01*
X237723635Y-173664310D01*
X237658586Y-173681740D01*
X237504679Y-173757838D01*
X237368201Y-173898986D01*
X237177725Y-174228901D01*
X237171345Y-174335189D01*
X237188775Y-174400237D01*
X237247444Y-174489096D01*
X237412401Y-174584334D01*
X237518689Y-174590714D01*
X237583738Y-174573284D01*
X237672597Y-174514615D01*
X237791644Y-174308418D01*
X237798024Y-174202130D01*
X237780594Y-174137081D01*
X237721925Y-174048223D01*
X237556968Y-173952985D01*
X237450680Y-173946605D01*
X237385631Y-173964035D01*
X237296773Y-174022704D01*
X202002380Y-190730095D02*
X201002380Y-190730095D01*
X201002380Y-190492000D01*
X201050000Y-190349142D01*
X201145238Y-190253904D01*
X201240476Y-190206285D01*
X201430952Y-190158666D01*
X201573809Y-190158666D01*
X201764285Y-190206285D01*
X201859523Y-190253904D01*
X201954761Y-190349142D01*
X202002380Y-190492000D01*
X202002380Y-190730095D01*
X201002380Y-189253904D02*
X201002380Y-189730095D01*
X201478571Y-189777714D01*
X201430952Y-189730095D01*
X201383333Y-189634857D01*
X201383333Y-189396761D01*
X201430952Y-189301523D01*
X201478571Y-189253904D01*
X201573809Y-189206285D01*
X201811904Y-189206285D01*
X201907142Y-189253904D01*
X201954761Y-189301523D01*
X202002380Y-189396761D01*
X202002380Y-189634857D01*
X201954761Y-189730095D01*
X201907142Y-189777714D01*
X167163981Y-171797879D02*
X166663981Y-170931853D01*
X166870177Y-170812805D01*
X167017705Y-170782616D01*
X167147802Y-170817476D01*
X167236661Y-170876145D01*
X167373138Y-171017293D01*
X167444567Y-171141010D01*
X167498565Y-171329777D01*
X167504945Y-171436065D01*
X167470086Y-171566163D01*
X167370177Y-171678831D01*
X167163981Y-171797879D01*
X168067827Y-170506243D02*
X168401160Y-171083593D01*
X167671154Y-170295376D02*
X167822100Y-171033013D01*
X168358211Y-170723489D01*
X168742600Y-131181783D02*
X169242600Y-130315758D01*
X169448796Y-130434805D01*
X169548705Y-130547473D01*
X169583564Y-130677571D01*
X169577185Y-130783859D01*
X169523186Y-130972626D01*
X169451757Y-131096344D01*
X169315280Y-131237492D01*
X169226421Y-131296161D01*
X169096324Y-131331020D01*
X168948796Y-131300831D01*
X168742600Y-131181783D01*
X170026147Y-130768139D02*
X170562258Y-131077663D01*
X170083106Y-131240910D01*
X170206824Y-131312339D01*
X170265493Y-131401197D01*
X170282923Y-131466246D01*
X170276543Y-131572534D01*
X170157496Y-131778731D01*
X170068637Y-131837400D01*
X170003588Y-131854830D01*
X169897300Y-131848450D01*
X169649865Y-131705593D01*
X169591195Y-131616734D01*
X169573766Y-131551686D01*
X205302380Y-114022095D02*
X204302380Y-114022095D01*
X204302380Y-113784000D01*
X204350000Y-113641142D01*
X204445238Y-113545904D01*
X204540476Y-113498285D01*
X204730952Y-113450666D01*
X204873809Y-113450666D01*
X205064285Y-113498285D01*
X205159523Y-113545904D01*
X205254761Y-113641142D01*
X205302380Y-113784000D01*
X205302380Y-114022095D01*
X204397619Y-113069714D02*
X204350000Y-113022095D01*
X204302380Y-112926857D01*
X204302380Y-112688761D01*
X204350000Y-112593523D01*
X204397619Y-112545904D01*
X204492857Y-112498285D01*
X204588095Y-112498285D01*
X204730952Y-112545904D01*
X205302380Y-113117333D01*
X205302380Y-112498285D01*
X238790981Y-134269763D02*
X238290981Y-133403737D01*
X238497177Y-133284689D01*
X238644705Y-133254500D01*
X238774802Y-133289360D01*
X238863661Y-133348029D01*
X239000138Y-133489177D01*
X239071567Y-133612894D01*
X239125565Y-133801661D01*
X239131945Y-133907949D01*
X239097086Y-134038047D01*
X238997177Y-134150715D01*
X238790981Y-134269763D01*
X240110639Y-133507858D02*
X239615767Y-133793572D01*
X239863203Y-133650715D02*
X239363203Y-132784689D01*
X239352153Y-132956026D01*
X239317293Y-133086124D01*
X239258624Y-133174982D01*
X220178333Y-130659142D02*
X220130714Y-130706761D01*
X219987857Y-130754380D01*
X219892619Y-130754380D01*
X219749761Y-130706761D01*
X219654523Y-130611523D01*
X219606904Y-130516285D01*
X219559285Y-130325809D01*
X219559285Y-130182952D01*
X219606904Y-129992476D01*
X219654523Y-129897238D01*
X219749761Y-129802000D01*
X219892619Y-129754380D01*
X219987857Y-129754380D01*
X220130714Y-129802000D01*
X220178333Y-129849619D01*
X220511666Y-129754380D02*
X221130714Y-129754380D01*
X220797380Y-130135333D01*
X220940238Y-130135333D01*
X221035476Y-130182952D01*
X221083095Y-130230571D01*
X221130714Y-130325809D01*
X221130714Y-130563904D01*
X221083095Y-130659142D01*
X221035476Y-130706761D01*
X220940238Y-130754380D01*
X220654523Y-130754380D01*
X220559285Y-130706761D01*
X220511666Y-130659142D01*
X192922142Y-162726666D02*
X192969761Y-162774285D01*
X193017380Y-162917142D01*
X193017380Y-163012380D01*
X192969761Y-163155238D01*
X192874523Y-163250476D01*
X192779285Y-163298095D01*
X192588809Y-163345714D01*
X192445952Y-163345714D01*
X192255476Y-163298095D01*
X192160238Y-163250476D01*
X192065000Y-163155238D01*
X192017380Y-163012380D01*
X192017380Y-162917142D01*
X192065000Y-162774285D01*
X192112619Y-162726666D01*
X192112619Y-162345714D02*
X192065000Y-162298095D01*
X192017380Y-162202857D01*
X192017380Y-161964761D01*
X192065000Y-161869523D01*
X192112619Y-161821904D01*
X192207857Y-161774285D01*
X192303095Y-161774285D01*
X192445952Y-161821904D01*
X193017380Y-162393333D01*
X193017380Y-161774285D01*
X214319142Y-164758666D02*
X214366761Y-164806285D01*
X214414380Y-164949142D01*
X214414380Y-165044380D01*
X214366761Y-165187238D01*
X214271523Y-165282476D01*
X214176285Y-165330095D01*
X213985809Y-165377714D01*
X213842952Y-165377714D01*
X213652476Y-165330095D01*
X213557238Y-165282476D01*
X213462000Y-165187238D01*
X213414380Y-165044380D01*
X213414380Y-164949142D01*
X213462000Y-164806285D01*
X213509619Y-164758666D01*
X214414380Y-163806285D02*
X214414380Y-164377714D01*
X214414380Y-164092000D02*
X213414380Y-164092000D01*
X213557238Y-164187238D01*
X213652476Y-164282476D01*
X213700095Y-164377714D01*
X211543174Y-170193597D02*
X211543174Y-171165025D01*
X211600317Y-171279311D01*
X211657460Y-171336454D01*
X211771745Y-171393597D01*
X212000317Y-171393597D01*
X212114602Y-171336454D01*
X212171745Y-171279311D01*
X212228888Y-171165025D01*
X212228888Y-170193597D01*
X213428888Y-171393597D02*
X212743174Y-171393597D01*
X213086031Y-171393597D02*
X213086031Y-170193597D01*
X212971745Y-170365025D01*
X212857460Y-170479311D01*
X212743174Y-170536454D01*
X187544916Y-132287985D02*
X186944916Y-131248754D01*
X187340813Y-131020183D01*
X187468359Y-131012527D01*
X187546418Y-131033443D01*
X187653048Y-131103846D01*
X187738762Y-131252307D01*
X187746418Y-131379853D01*
X187725502Y-131457912D01*
X187655099Y-131564542D01*
X187259202Y-131793113D01*
X188584147Y-131687985D02*
X187984147Y-130648754D01*
X188269861Y-131143626D02*
X188863707Y-130800769D01*
X189177993Y-131345128D02*
X188577993Y-130305897D01*
X189270813Y-129905897D02*
X189468761Y-129791611D01*
X189596307Y-129783956D01*
X189752424Y-129825787D01*
X189916197Y-129995164D01*
X190116197Y-130341575D01*
X190180996Y-130568095D01*
X190139164Y-130724212D01*
X190068761Y-130830842D01*
X189870813Y-130945128D01*
X189743267Y-130952783D01*
X189587150Y-130910952D01*
X189423377Y-130741575D01*
X189223377Y-130395164D01*
X189158578Y-130168644D01*
X189200410Y-130012527D01*
X189270813Y-129905897D01*
X190013120Y-129477326D02*
X190606966Y-129134469D01*
X190910043Y-130345128D02*
X190310043Y-129305897D01*
X191151325Y-128820183D02*
X191349274Y-128705897D01*
X191476820Y-128698241D01*
X191632937Y-128740073D01*
X191796710Y-128909450D01*
X191996710Y-129255860D01*
X192061508Y-129482380D01*
X192019677Y-129638498D01*
X191949274Y-129745128D01*
X191751325Y-129859413D01*
X191623779Y-129867069D01*
X191467662Y-129825238D01*
X191303889Y-129655860D01*
X191103889Y-129309450D01*
X191039091Y-129082930D01*
X191080922Y-128926813D01*
X191151325Y-128820183D01*
X192642094Y-129345128D02*
X192042094Y-128305897D01*
X193235940Y-129002270D01*
X192635940Y-127963040D01*
%LPC*%
D15*
X227584000Y-124968000D03*
X178816000Y-124968000D03*
D16*
X191008000Y-176784000D03*
X175514000Y-152400000D03*
X228092000Y-152400000D03*
G36*
G01*
X218993000Y-148091000D02*
X218993000Y-147565000D01*
G75*
G02*
X219256000Y-147302000I263000J0D01*
G01*
X219882000Y-147302000D01*
G75*
G02*
X220145000Y-147565000I0J-263000D01*
G01*
X220145000Y-148091000D01*
G75*
G02*
X219882000Y-148354000I-263000J0D01*
G01*
X219256000Y-148354000D01*
G75*
G02*
X218993000Y-148091000I0J263000D01*
G01*
G37*
G36*
G01*
X217243000Y-148091000D02*
X217243000Y-147565000D01*
G75*
G02*
X217506000Y-147302000I263000J0D01*
G01*
X218132000Y-147302000D01*
G75*
G02*
X218395000Y-147565000I0J-263000D01*
G01*
X218395000Y-148091000D01*
G75*
G02*
X218132000Y-148354000I-263000J0D01*
G01*
X217506000Y-148354000D01*
G75*
G02*
X217243000Y-148091000I0J263000D01*
G01*
G37*
G36*
G01*
X234315441Y-170811265D02*
X234578441Y-170355735D01*
G75*
G02*
X234937706Y-170259470I227765J-131500D01*
G01*
X235479838Y-170572470D01*
G75*
G02*
X235576103Y-170931735I-131500J-227765D01*
G01*
X235313103Y-171387265D01*
G75*
G02*
X234953838Y-171483530I-227765J131500D01*
G01*
X234411706Y-171170530D01*
G75*
G02*
X234315441Y-170811265I131500J227765D01*
G01*
G37*
G36*
G01*
X232799897Y-169936265D02*
X233062897Y-169480735D01*
G75*
G02*
X233422162Y-169384470I227765J-131500D01*
G01*
X233964294Y-169697470D01*
G75*
G02*
X234060559Y-170056735I-131500J-227765D01*
G01*
X233797559Y-170512265D01*
G75*
G02*
X233438294Y-170608530I-227765J131500D01*
G01*
X232896162Y-170295530D01*
G75*
G02*
X232799897Y-169936265I131500J227765D01*
G01*
G37*
G36*
G01*
X202937000Y-184703000D02*
X203463000Y-184703000D01*
G75*
G02*
X203726000Y-184966000I0J-263000D01*
G01*
X203726000Y-185592000D01*
G75*
G02*
X203463000Y-185855000I-263000J0D01*
G01*
X202937000Y-185855000D01*
G75*
G02*
X202674000Y-185592000I0J263000D01*
G01*
X202674000Y-184966000D01*
G75*
G02*
X202937000Y-184703000I263000J0D01*
G01*
G37*
G36*
G01*
X202937000Y-182953000D02*
X203463000Y-182953000D01*
G75*
G02*
X203726000Y-183216000I0J-263000D01*
G01*
X203726000Y-183842000D01*
G75*
G02*
X203463000Y-184105000I-263000J0D01*
G01*
X202937000Y-184105000D01*
G75*
G02*
X202674000Y-183842000I0J263000D01*
G01*
X202674000Y-183216000D01*
G75*
G02*
X202937000Y-182953000I263000J0D01*
G01*
G37*
G36*
G01*
X219882000Y-154568000D02*
X219882000Y-154042000D01*
G75*
G02*
X220145000Y-153779000I263000J0D01*
G01*
X220771000Y-153779000D01*
G75*
G02*
X221034000Y-154042000I0J-263000D01*
G01*
X221034000Y-154568000D01*
G75*
G02*
X220771000Y-154831000I-263000J0D01*
G01*
X220145000Y-154831000D01*
G75*
G02*
X219882000Y-154568000I0J263000D01*
G01*
G37*
G36*
G01*
X218132000Y-154568000D02*
X218132000Y-154042000D01*
G75*
G02*
X218395000Y-153779000I263000J0D01*
G01*
X219021000Y-153779000D01*
G75*
G02*
X219284000Y-154042000I0J-263000D01*
G01*
X219284000Y-154568000D01*
G75*
G02*
X219021000Y-154831000I-263000J0D01*
G01*
X218395000Y-154831000D01*
G75*
G02*
X218132000Y-154568000I0J263000D01*
G01*
G37*
G36*
G01*
X171821559Y-170101735D02*
X172084559Y-170557265D01*
G75*
G02*
X171988294Y-170916530I-227765J-131500D01*
G01*
X171446162Y-171229530D01*
G75*
G02*
X171086897Y-171133265I-131500J227765D01*
G01*
X170823897Y-170677735D01*
G75*
G02*
X170920162Y-170318470I227765J131500D01*
G01*
X171462294Y-170005470D01*
G75*
G02*
X171821559Y-170101735I131500J-227765D01*
G01*
G37*
G36*
G01*
X173337103Y-169226735D02*
X173600103Y-169682265D01*
G75*
G02*
X173503838Y-170041530I-227765J-131500D01*
G01*
X172961706Y-170354530D01*
G75*
G02*
X172602441Y-170258265I-131500J227765D01*
G01*
X172339441Y-169802735D01*
G75*
G02*
X172435706Y-169443470I227765J131500D01*
G01*
X172977838Y-169130470D01*
G75*
G02*
X173337103Y-169226735I131500J-227765D01*
G01*
G37*
G36*
G01*
X172592559Y-134496735D02*
X172329559Y-134952265D01*
G75*
G02*
X171970294Y-135048530I-227765J131500D01*
G01*
X171428162Y-134735530D01*
G75*
G02*
X171331897Y-134376265I131500J227765D01*
G01*
X171594897Y-133920735D01*
G75*
G02*
X171954162Y-133824470I227765J-131500D01*
G01*
X172496294Y-134137470D01*
G75*
G02*
X172592559Y-134496735I-131500J-227765D01*
G01*
G37*
G36*
G01*
X174108103Y-135371735D02*
X173845103Y-135827265D01*
G75*
G02*
X173485838Y-135923530I-227765J131500D01*
G01*
X172943706Y-135610530D01*
G75*
G02*
X172847441Y-135251265I131500J227765D01*
G01*
X173110441Y-134795735D01*
G75*
G02*
X173469706Y-134699470I227765J-131500D01*
G01*
X174011838Y-135012470D01*
G75*
G02*
X174108103Y-135371735I-131500J-227765D01*
G01*
G37*
G36*
G01*
X203463000Y-116668000D02*
X202937000Y-116668000D01*
G75*
G02*
X202674000Y-116405000I0J263000D01*
G01*
X202674000Y-115779000D01*
G75*
G02*
X202937000Y-115516000I263000J0D01*
G01*
X203463000Y-115516000D01*
G75*
G02*
X203726000Y-115779000I0J-263000D01*
G01*
X203726000Y-116405000D01*
G75*
G02*
X203463000Y-116668000I-263000J0D01*
G01*
G37*
G36*
G01*
X203463000Y-118418000D02*
X202937000Y-118418000D01*
G75*
G02*
X202674000Y-118155000I0J263000D01*
G01*
X202674000Y-117529000D01*
G75*
G02*
X202937000Y-117266000I263000J0D01*
G01*
X203463000Y-117266000D01*
G75*
G02*
X203726000Y-117529000I0J-263000D01*
G01*
X203726000Y-118155000D01*
G75*
G02*
X203463000Y-118418000I-263000J0D01*
G01*
G37*
G36*
G01*
X235213441Y-134190265D02*
X234950441Y-133734735D01*
G75*
G02*
X235046706Y-133375470I227765J131500D01*
G01*
X235588838Y-133062470D01*
G75*
G02*
X235948103Y-133158735I131500J-227765D01*
G01*
X236211103Y-133614265D01*
G75*
G02*
X236114838Y-133973530I-227765J-131500D01*
G01*
X235572706Y-134286530D01*
G75*
G02*
X235213441Y-134190265I-131500J227765D01*
G01*
G37*
G36*
G01*
X233697897Y-135065265D02*
X233434897Y-134609735D01*
G75*
G02*
X233531162Y-134250470I227765J131500D01*
G01*
X234073294Y-133937470D01*
G75*
G02*
X234432559Y-134033735I131500J-227765D01*
G01*
X234695559Y-134489265D01*
G75*
G02*
X234599294Y-134848530I-227765J-131500D01*
G01*
X234057162Y-135161530D01*
G75*
G02*
X233697897Y-135065265I-131500J227765D01*
G01*
G37*
G36*
G01*
X219983000Y-150758000D02*
X219183000Y-150758000D01*
G75*
G02*
X219132000Y-150707000I0J51000D01*
G01*
X219132000Y-149807000D01*
G75*
G02*
X219183000Y-149756000I51000J0D01*
G01*
X219983000Y-149756000D01*
G75*
G02*
X220034000Y-149807000I0J-51000D01*
G01*
X220034000Y-150707000D01*
G75*
G02*
X219983000Y-150758000I-51000J0D01*
G01*
G37*
G36*
G01*
X220933000Y-152758000D02*
X220133000Y-152758000D01*
G75*
G02*
X220082000Y-152707000I0J51000D01*
G01*
X220082000Y-151807000D01*
G75*
G02*
X220133000Y-151756000I51000J0D01*
G01*
X220933000Y-151756000D01*
G75*
G02*
X220984000Y-151807000I0J-51000D01*
G01*
X220984000Y-152707000D01*
G75*
G02*
X220933000Y-152758000I-51000J0D01*
G01*
G37*
G36*
G01*
X219033000Y-152758000D02*
X218233000Y-152758000D01*
G75*
G02*
X218182000Y-152707000I0J51000D01*
G01*
X218182000Y-151807000D01*
G75*
G02*
X218233000Y-151756000I51000J0D01*
G01*
X219033000Y-151756000D01*
G75*
G02*
X219084000Y-151807000I0J-51000D01*
G01*
X219084000Y-152707000D01*
G75*
G02*
X219033000Y-152758000I-51000J0D01*
G01*
G37*
G36*
G01*
X237843431Y-171849292D02*
X237361681Y-172683708D01*
G75*
G02*
X236993879Y-172782260I-233177J134625D01*
G01*
X236527525Y-172513010D01*
G75*
G02*
X236428973Y-172145208I134625J233177D01*
G01*
X236910723Y-171310792D01*
G75*
G02*
X237278525Y-171212240I233177J-134625D01*
G01*
X237744879Y-171481490D01*
G75*
G02*
X237843431Y-171849292I-134625J-233177D01*
G01*
G37*
G36*
G01*
X239467229Y-172786792D02*
X238985479Y-173621208D01*
G75*
G02*
X238617677Y-173719760I-233177J134625D01*
G01*
X238151323Y-173450510D01*
G75*
G02*
X238052771Y-173082708I134625J233177D01*
G01*
X238534521Y-172248292D01*
G75*
G02*
X238902323Y-172149740I233177J-134625D01*
G01*
X239368677Y-172418990D01*
G75*
G02*
X239467229Y-172786792I-134625J-233177D01*
G01*
G37*
G36*
G01*
X203681750Y-189593000D02*
X202718250Y-189593000D01*
G75*
G02*
X202449000Y-189323750I0J269250D01*
G01*
X202449000Y-188785250D01*
G75*
G02*
X202718250Y-188516000I269250J0D01*
G01*
X203681750Y-188516000D01*
G75*
G02*
X203951000Y-188785250I0J-269250D01*
G01*
X203951000Y-189323750D01*
G75*
G02*
X203681750Y-189593000I-269250J0D01*
G01*
G37*
G36*
G01*
X203681750Y-191468000D02*
X202718250Y-191468000D01*
G75*
G02*
X202449000Y-191198750I0J269250D01*
G01*
X202449000Y-190660250D01*
G75*
G02*
X202718250Y-190391000I269250J0D01*
G01*
X203681750Y-190391000D01*
G75*
G02*
X203951000Y-190660250I0J-269250D01*
G01*
X203951000Y-191198750D01*
G75*
G02*
X203681750Y-191468000I-269250J0D01*
G01*
G37*
G36*
G01*
X168988420Y-172683708D02*
X168506670Y-171849292D01*
G75*
G02*
X168605222Y-171481490I233177J134625D01*
G01*
X169071576Y-171212240D01*
G75*
G02*
X169439378Y-171310792I134625J-233177D01*
G01*
X169921128Y-172145208D01*
G75*
G02*
X169822576Y-172513010I-233177J-134625D01*
G01*
X169356222Y-172782260D01*
G75*
G02*
X168988420Y-172683708I-134625J233177D01*
G01*
G37*
G36*
G01*
X167364622Y-173621208D02*
X166882872Y-172786792D01*
G75*
G02*
X166981424Y-172418990I233177J134625D01*
G01*
X167447778Y-172149740D01*
G75*
G02*
X167815580Y-172248292I134625J-233177D01*
G01*
X168297330Y-173082708D01*
G75*
G02*
X168198778Y-173450510I-233177J-134625D01*
G01*
X167732424Y-173719760D01*
G75*
G02*
X167364622Y-173621208I-134625J233177D01*
G01*
G37*
G36*
G01*
X168887670Y-133204708D02*
X169369420Y-132370292D01*
G75*
G02*
X169737222Y-132271740I233177J-134625D01*
G01*
X170203576Y-132540990D01*
G75*
G02*
X170302128Y-132908792I-134625J-233177D01*
G01*
X169820378Y-133743208D01*
G75*
G02*
X169452576Y-133841760I-233177J134625D01*
G01*
X168986222Y-133572510D01*
G75*
G02*
X168887670Y-133204708I134625J233177D01*
G01*
G37*
G36*
G01*
X167263872Y-132267208D02*
X167745622Y-131432792D01*
G75*
G02*
X168113424Y-131334240I233177J-134625D01*
G01*
X168579778Y-131603490D01*
G75*
G02*
X168678330Y-131971292I-134625J-233177D01*
G01*
X168196580Y-132805708D01*
G75*
G02*
X167828778Y-132904260I-233177J134625D01*
G01*
X167362424Y-132635010D01*
G75*
G02*
X167263872Y-132267208I134625J233177D01*
G01*
G37*
G36*
G01*
X202718250Y-113683000D02*
X203681750Y-113683000D01*
G75*
G02*
X203951000Y-113952250I0J-269250D01*
G01*
X203951000Y-114490750D01*
G75*
G02*
X203681750Y-114760000I-269250J0D01*
G01*
X202718250Y-114760000D01*
G75*
G02*
X202449000Y-114490750I0J269250D01*
G01*
X202449000Y-113952250D01*
G75*
G02*
X202718250Y-113683000I269250J0D01*
G01*
G37*
G36*
G01*
X202718250Y-111808000D02*
X203681750Y-111808000D01*
G75*
G02*
X203951000Y-112077250I0J-269250D01*
G01*
X203951000Y-112615750D01*
G75*
G02*
X203681750Y-112885000I-269250J0D01*
G01*
X202718250Y-112885000D01*
G75*
G02*
X202449000Y-112615750I0J269250D01*
G01*
X202449000Y-112077250D01*
G75*
G02*
X202718250Y-111808000I269250J0D01*
G01*
G37*
G36*
G01*
X237792580Y-131862292D02*
X238274330Y-132696708D01*
G75*
G02*
X238175778Y-133064510I-233177J-134625D01*
G01*
X237709424Y-133333760D01*
G75*
G02*
X237341622Y-133235208I-134625J233177D01*
G01*
X236859872Y-132400792D01*
G75*
G02*
X236958424Y-132032990I233177J134625D01*
G01*
X237424778Y-131763740D01*
G75*
G02*
X237792580Y-131862292I134625J-233177D01*
G01*
G37*
G36*
G01*
X239416378Y-130924792D02*
X239898128Y-131759208D01*
G75*
G02*
X239799576Y-132127010I-233177J-134625D01*
G01*
X239333222Y-132396260D01*
G75*
G02*
X238965420Y-132297708I-134625J233177D01*
G01*
X238483670Y-131463292D01*
G75*
G02*
X238582222Y-131095490I233177J134625D01*
G01*
X239048576Y-130826240D01*
G75*
G02*
X239416378Y-130924792I134625J-233177D01*
G01*
G37*
G36*
G01*
X217386000Y-130833106D02*
X217386000Y-129516894D01*
G75*
G02*
X217653894Y-129249000I267894J0D01*
G01*
X218645106Y-129249000D01*
G75*
G02*
X218913000Y-129516894I0J-267894D01*
G01*
X218913000Y-130833106D01*
G75*
G02*
X218645106Y-131101000I-267894J0D01*
G01*
X217653894Y-131101000D01*
G75*
G02*
X217386000Y-130833106I0J267894D01*
G01*
G37*
G36*
G01*
X214411000Y-130833106D02*
X214411000Y-129516894D01*
G75*
G02*
X214678894Y-129249000I267894J0D01*
G01*
X215670106Y-129249000D01*
G75*
G02*
X215938000Y-129516894I0J-267894D01*
G01*
X215938000Y-130833106D01*
G75*
G02*
X215670106Y-131101000I-267894J0D01*
G01*
X214678894Y-131101000D01*
G75*
G02*
X214411000Y-130833106I0J267894D01*
G01*
G37*
G36*
G01*
X190872000Y-162859000D02*
X191398000Y-162859000D01*
G75*
G02*
X191661000Y-163122000I0J-263000D01*
G01*
X191661000Y-163748000D01*
G75*
G02*
X191398000Y-164011000I-263000J0D01*
G01*
X190872000Y-164011000D01*
G75*
G02*
X190609000Y-163748000I0J263000D01*
G01*
X190609000Y-163122000D01*
G75*
G02*
X190872000Y-162859000I263000J0D01*
G01*
G37*
G36*
G01*
X190872000Y-161109000D02*
X191398000Y-161109000D01*
G75*
G02*
X191661000Y-161372000I0J-263000D01*
G01*
X191661000Y-161998000D01*
G75*
G02*
X191398000Y-162261000I-263000J0D01*
G01*
X190872000Y-162261000D01*
G75*
G02*
X190609000Y-161998000I0J263000D01*
G01*
X190609000Y-161372000D01*
G75*
G02*
X190872000Y-161109000I263000J0D01*
G01*
G37*
G36*
G01*
X215655000Y-164293000D02*
X215129000Y-164293000D01*
G75*
G02*
X214866000Y-164030000I0J263000D01*
G01*
X214866000Y-163404000D01*
G75*
G02*
X215129000Y-163141000I263000J0D01*
G01*
X215655000Y-163141000D01*
G75*
G02*
X215918000Y-163404000I0J-263000D01*
G01*
X215918000Y-164030000D01*
G75*
G02*
X215655000Y-164293000I-263000J0D01*
G01*
G37*
G36*
G01*
X215655000Y-166043000D02*
X215129000Y-166043000D01*
G75*
G02*
X214866000Y-165780000I0J263000D01*
G01*
X214866000Y-165154000D01*
G75*
G02*
X215129000Y-164891000I263000J0D01*
G01*
X215655000Y-164891000D01*
G75*
G02*
X215918000Y-165154000I0J-263000D01*
G01*
X215918000Y-165780000D01*
G75*
G02*
X215655000Y-166043000I-263000J0D01*
G01*
G37*
D17*
X194307460Y-137910280D03*
X194307460Y-140450280D03*
X194307460Y-142990280D03*
X194307460Y-145530280D03*
X194307460Y-148070280D03*
X194307460Y-150610280D03*
X194307460Y-153150280D03*
X194307460Y-155690280D03*
X194307460Y-158230280D03*
X194307460Y-160770280D03*
X194307460Y-163310280D03*
X194307460Y-165850280D03*
X212087460Y-137910280D03*
X212087460Y-140450280D03*
X212087460Y-142990280D03*
X212087460Y-145530280D03*
X212087460Y-148070280D03*
X212087460Y-150610280D03*
X212087460Y-153150280D03*
X212087460Y-155690280D03*
X212087460Y-158230280D03*
X212087460Y-160770280D03*
X212087460Y-163310280D03*
G36*
G01*
X213088460Y-164900280D02*
X213088460Y-166800280D01*
G75*
G02*
X213037460Y-166851280I-51000J0D01*
G01*
X211137460Y-166851280D01*
G75*
G02*
X211086460Y-166800280I0J51000D01*
G01*
X211086460Y-164900280D01*
G75*
G02*
X211137460Y-164849280I51000J0D01*
G01*
X213037460Y-164849280D01*
G75*
G02*
X213088460Y-164900280I0J-51000D01*
G01*
G37*
M02*
